%TF.GenerationSoftware,KiCad,Pcbnew,8.0.6-8.0.6-0~ubuntu22.04.1*%
%TF.CreationDate,2024-11-06T16:41:07-03:00*%
%TF.ProjectId,sensor_filter,73656e73-6f72-45f6-9669-6c7465722e6b,rev?*%
%TF.SameCoordinates,Original*%
%TF.FileFunction,Copper,L1,Top*%
%TF.FilePolarity,Positive*%
%FSLAX46Y46*%
G04 Gerber Fmt 4.6, Leading zero omitted, Abs format (unit mm)*
G04 Created by KiCad (PCBNEW 8.0.6-8.0.6-0~ubuntu22.04.1) date 2024-11-06 16:41:07*
%MOMM*%
%LPD*%
G01*
G04 APERTURE LIST*
%TA.AperFunction,ComponentPad*%
%ADD10R,1.600000X1.600000*%
%TD*%
%TA.AperFunction,ComponentPad*%
%ADD11C,1.600000*%
%TD*%
%TA.AperFunction,ComponentPad*%
%ADD12O,1.600000X1.600000*%
%TD*%
%TA.AperFunction,SMDPad,CuDef*%
%ADD13R,1.550000X0.700000*%
%TD*%
%TA.AperFunction,ComponentPad*%
%ADD14R,1.700000X1.700000*%
%TD*%
%TA.AperFunction,ComponentPad*%
%ADD15O,1.700000X1.700000*%
%TD*%
%TA.AperFunction,ComponentPad*%
%ADD16R,2.800000X2.800000*%
%TD*%
%TA.AperFunction,ComponentPad*%
%ADD17C,2.800000*%
%TD*%
%TA.AperFunction,Conductor*%
%ADD18C,0.500000*%
%TD*%
%TA.AperFunction,Conductor*%
%ADD19C,0.200000*%
%TD*%
G04 APERTURE END LIST*
D10*
%TO.P,C4,1*%
%TO.N,Net-(IC4-VIN+)*%
X151750000Y-85310000D03*
D11*
%TO.P,C4,2*%
%TO.N,GND*%
X151750000Y-87810000D03*
%TD*%
%TO.P,R6,1*%
%TO.N,Line2*%
X139190000Y-64250000D03*
D12*
%TO.P,R6,2*%
%TO.N,Net-(IC2-VIN+)*%
X146810000Y-64250000D03*
%TD*%
D11*
%TO.P,R4,1*%
%TO.N,Line4*%
X129000000Y-85370000D03*
D12*
%TO.P,R4,2*%
%TO.N,+3.3V*%
X129000000Y-77750000D03*
%TD*%
D13*
%TO.P,IC3,1,NC_1*%
%TO.N,unconnected-(IC3-NC_1-Pad1)*%
X158750000Y-73310000D03*
%TO.P,IC3,2,VIN-*%
%TO.N,GND*%
X158750000Y-74580000D03*
%TO.P,IC3,3,VIN+*%
%TO.N,Net-(IC3-VIN+)*%
X158750000Y-75850000D03*
%TO.P,IC3,4,VSS*%
%TO.N,GND*%
X158750000Y-77120000D03*
%TO.P,IC3,5,NC_2*%
%TO.N,unconnected-(IC3-NC_2-Pad5)*%
X164150000Y-77120000D03*
%TO.P,IC3,6,VOUT*%
%TO.N,ADC_Input3*%
X164150000Y-75850000D03*
%TO.P,IC3,7,VDD*%
%TO.N,+3.3V*%
X164150000Y-74580000D03*
%TO.P,IC3,8,NC_3*%
%TO.N,unconnected-(IC3-NC_3-Pad8)*%
X164150000Y-73310000D03*
%TD*%
D11*
%TO.P,R5,1*%
%TO.N,Line1*%
X139690000Y-53000000D03*
D12*
%TO.P,R5,2*%
%TO.N,Net-(IC1-VIN+)*%
X147310000Y-53000000D03*
%TD*%
D13*
%TO.P,IC2,1,NC_1*%
%TO.N,unconnected-(IC2-NC_1-Pad1)*%
X158750000Y-62250000D03*
%TO.P,IC2,2,VIN-*%
%TO.N,GND*%
X158750000Y-63520000D03*
%TO.P,IC2,3,VIN+*%
%TO.N,Net-(IC2-VIN+)*%
X158750000Y-64790000D03*
%TO.P,IC2,4,VSS*%
%TO.N,GND*%
X158750000Y-66060000D03*
%TO.P,IC2,5,NC_2*%
%TO.N,unconnected-(IC2-NC_2-Pad5)*%
X164150000Y-66060000D03*
%TO.P,IC2,6,VOUT*%
%TO.N,ADC_Input2*%
X164150000Y-64790000D03*
%TO.P,IC2,7,VDD*%
%TO.N,+3.3V*%
X164150000Y-63520000D03*
%TO.P,IC2,8,NC_3*%
%TO.N,unconnected-(IC2-NC_3-Pad8)*%
X164150000Y-62250000D03*
%TD*%
%TO.P,IC1,1,NC_1*%
%TO.N,unconnected-(IC1-NC_1-Pad1)*%
X158790000Y-51060000D03*
%TO.P,IC1,2,VIN-*%
%TO.N,GND*%
X158790000Y-52330000D03*
%TO.P,IC1,3,VIN+*%
%TO.N,Net-(IC1-VIN+)*%
X158790000Y-53600000D03*
%TO.P,IC1,4,VSS*%
%TO.N,GND*%
X158790000Y-54870000D03*
%TO.P,IC1,5,NC_2*%
%TO.N,unconnected-(IC1-NC_2-Pad5)*%
X164190000Y-54870000D03*
%TO.P,IC1,6,VOUT*%
%TO.N,ADC_Input1*%
X164190000Y-53600000D03*
%TO.P,IC1,7,VDD*%
%TO.N,+3.3V*%
X164190000Y-52330000D03*
%TO.P,IC1,8,NC_3*%
%TO.N,unconnected-(IC1-NC_3-Pad8)*%
X164190000Y-51060000D03*
%TD*%
D11*
%TO.P,R8,1*%
%TO.N,Line4*%
X139130000Y-85310000D03*
D12*
%TO.P,R8,2*%
%TO.N,Net-(IC4-VIN+)*%
X146750000Y-85310000D03*
%TD*%
D14*
%TO.P,J4,1,Pin_1*%
%TO.N,GPIO_Output1*%
X171500000Y-87920000D03*
D15*
%TO.P,J4,2,Pin_2*%
%TO.N,GPIO_Output2*%
X171500000Y-90460000D03*
%TO.P,J4,3,Pin_3*%
%TO.N,GPIO_Output3*%
X171500000Y-93000000D03*
%TO.P,J4,4,Pin_4*%
%TO.N,GPIO_Output4*%
X171500000Y-95540000D03*
%TD*%
D10*
%TO.P,C1,1*%
%TO.N,Net-(IC1-VIN+)*%
X151750000Y-52560000D03*
D11*
%TO.P,C1,2*%
%TO.N,GND*%
X151750000Y-55060000D03*
%TD*%
%TO.P,R3,1*%
%TO.N,Line3*%
X129000000Y-74620000D03*
D12*
%TO.P,R3,2*%
%TO.N,+3.3V*%
X129000000Y-67000000D03*
%TD*%
D13*
%TO.P,IC4,1,NC_1*%
%TO.N,unconnected-(IC4-NC_1-Pad1)*%
X159040000Y-83560000D03*
%TO.P,IC4,2,VIN-*%
%TO.N,GND*%
X159040000Y-84830000D03*
%TO.P,IC4,3,VIN+*%
%TO.N,Net-(IC4-VIN+)*%
X159040000Y-86100000D03*
%TO.P,IC4,4,VSS*%
%TO.N,GND*%
X159040000Y-87370000D03*
%TO.P,IC4,5,NC_2*%
%TO.N,unconnected-(IC4-NC_2-Pad5)*%
X164440000Y-87370000D03*
%TO.P,IC4,6,VOUT*%
%TO.N,ADC_Input4*%
X164440000Y-86100000D03*
%TO.P,IC4,7,VDD*%
%TO.N,+3.3V*%
X164440000Y-84830000D03*
%TO.P,IC4,8,NC_3*%
%TO.N,unconnected-(IC4-NC_3-Pad8)*%
X164440000Y-83560000D03*
%TD*%
D10*
%TO.P,C3,1*%
%TO.N,Net-(IC3-VIN+)*%
X151750000Y-74560000D03*
D11*
%TO.P,C3,2*%
%TO.N,GND*%
X151750000Y-77060000D03*
%TD*%
D14*
%TO.P,J3,1,Pin_1*%
%TO.N,ADC_Input1*%
X171500000Y-66310000D03*
D15*
%TO.P,J3,2,Pin_2*%
%TO.N,ADC_Input2*%
X171500000Y-68850000D03*
%TO.P,J3,3,Pin_3*%
%TO.N,ADC_Input3*%
X171500000Y-71390000D03*
%TO.P,J3,4,Pin_4*%
%TO.N,ADC_Input4*%
X171500000Y-73930000D03*
%TD*%
D11*
%TO.P,R2,1*%
%TO.N,Line2*%
X129000000Y-63930000D03*
D12*
%TO.P,R2,2*%
%TO.N,+3.3V*%
X129000000Y-56310000D03*
%TD*%
D10*
%TO.P,C2,1*%
%TO.N,Net-(IC2-VIN+)*%
X151750000Y-63560000D03*
D11*
%TO.P,C2,2*%
%TO.N,GND*%
X151750000Y-66060000D03*
%TD*%
D16*
%TO.P,J2,1,Pin_1*%
%TO.N,+3.3V*%
X147750000Y-41250000D03*
D17*
%TO.P,J2,2,Pin_2*%
%TO.N,GND*%
X152750000Y-41250000D03*
%TD*%
D11*
%TO.P,R1,1*%
%TO.N,Line1*%
X129000000Y-53120000D03*
D12*
%TO.P,R1,2*%
%TO.N,+3.3V*%
X129000000Y-45500000D03*
%TD*%
D14*
%TO.P,J1,1,Pin_1*%
%TO.N,GPIO_Output1*%
X129625000Y-95810000D03*
D15*
%TO.P,J1,2,Pin_2*%
%TO.N,GPIO_Output2*%
X132165000Y-95810000D03*
%TO.P,J1,3,Pin_3*%
%TO.N,Line1*%
X134705000Y-95810000D03*
%TO.P,J1,4,Pin_4*%
%TO.N,Line2*%
X137245000Y-95810000D03*
%TO.P,J1,5,Pin_5*%
%TO.N,Line3*%
X139785000Y-95810000D03*
%TO.P,J1,6,Pin_6*%
%TO.N,Line4*%
X142325000Y-95810000D03*
%TO.P,J1,7,Pin_7*%
%TO.N,GPIO_Output3*%
X144865000Y-95810000D03*
%TO.P,J1,8,Pin_8*%
%TO.N,GPIO_Output4*%
X147405000Y-95810000D03*
%TD*%
D11*
%TO.P,R7,1*%
%TO.N,Line3*%
X139190000Y-74750000D03*
D12*
%TO.P,R7,2*%
%TO.N,Net-(IC3-VIN+)*%
X146810000Y-74750000D03*
%TD*%
D18*
%TO.N,GND*%
X157270000Y-63520000D02*
X158750000Y-63520000D01*
X158690000Y-77060000D02*
X158750000Y-77120000D01*
D19*
X159040000Y-84830000D02*
X160015900Y-84830000D01*
D18*
X157170300Y-51787000D02*
X157713300Y-52330000D01*
D19*
X160500000Y-75250000D02*
X160500000Y-76500000D01*
D18*
X156500000Y-56750000D02*
X156500000Y-62750000D01*
X157673300Y-66060000D02*
X151750000Y-66060000D01*
D19*
X158750000Y-66060000D02*
X157673300Y-66060000D01*
X158750000Y-74580000D02*
X159830000Y-74580000D01*
X160500000Y-76500000D02*
X159880000Y-77120000D01*
D18*
X155023000Y-52727000D02*
X152690000Y-55060000D01*
X152690000Y-55060000D02*
X151750000Y-55060000D01*
D19*
X160500000Y-54250000D02*
X159880000Y-54870000D01*
X158750000Y-63520000D02*
X159770000Y-63520000D01*
D18*
X155023000Y-51787000D02*
X157170300Y-51787000D01*
D19*
X160380000Y-87370000D02*
X161000000Y-86750000D01*
X159830000Y-52330000D02*
X160500000Y-53000000D01*
X161000000Y-86750000D02*
X161000000Y-85714800D01*
X160500000Y-53000000D02*
X160500000Y-54250000D01*
D18*
X156500000Y-62750000D02*
X157270000Y-63520000D01*
D19*
X158790000Y-52330000D02*
X159830000Y-52330000D01*
X159690000Y-66060000D02*
X158750000Y-66060000D01*
D18*
X152750000Y-41250000D02*
X152750000Y-49514000D01*
X157330000Y-74580000D02*
X158750000Y-74580000D01*
X155023000Y-51787000D02*
X155023000Y-52727000D01*
D19*
X160250000Y-65500000D02*
X159690000Y-66060000D01*
X161000000Y-85714800D02*
X160115200Y-84830000D01*
X160250000Y-64000000D02*
X160250000Y-65500000D01*
D18*
X152750000Y-49514000D02*
X155023000Y-51787000D01*
D19*
X159830000Y-74580000D02*
X160500000Y-75250000D01*
D18*
X157523300Y-87810000D02*
X157963300Y-87370000D01*
D19*
X158790000Y-54870000D02*
X158380000Y-54870000D01*
X159770000Y-63520000D02*
X160250000Y-64000000D01*
D18*
X158380000Y-54870000D02*
X156500000Y-56750000D01*
X156750000Y-74000000D02*
X157330000Y-74580000D01*
D19*
X159880000Y-77120000D02*
X158750000Y-77120000D01*
X159880000Y-54870000D02*
X158790000Y-54870000D01*
D18*
X158790000Y-52330000D02*
X157713300Y-52330000D01*
X159040000Y-87370000D02*
X157963300Y-87370000D01*
X158750000Y-66060000D02*
X156750000Y-68060000D01*
X151750000Y-77060000D02*
X158690000Y-77060000D01*
X151750000Y-87810000D02*
X157523300Y-87810000D01*
D19*
X160015900Y-84830000D02*
X160115200Y-84830000D01*
X159040000Y-87370000D02*
X160380000Y-87370000D01*
D18*
X156750000Y-68060000D02*
X156750000Y-74000000D01*
%TO.N,Net-(IC1-VIN+)*%
X151750000Y-52560000D02*
X147750000Y-52560000D01*
X152741500Y-56750000D02*
X151000000Y-56750000D01*
X147750000Y-52560000D02*
X147310000Y-53000000D01*
X150000000Y-54310000D02*
X151750000Y-52560000D01*
X150000000Y-55750000D02*
X150000000Y-54310000D01*
X155891500Y-53600000D02*
X152741500Y-56750000D01*
X151000000Y-56750000D02*
X150000000Y-55750000D01*
X158790000Y-53600000D02*
X155891500Y-53600000D01*
%TO.N,Net-(IC2-VIN+)*%
X154081700Y-64790000D02*
X152851700Y-63560000D01*
X147500000Y-63560000D02*
X151750000Y-63560000D01*
X158750000Y-64790000D02*
X154081700Y-64790000D01*
X151750000Y-63560000D02*
X152851700Y-63560000D01*
X151500000Y-63810000D02*
X151750000Y-63560000D01*
X146810000Y-64250000D02*
X147500000Y-63560000D01*
D19*
%TO.N,Net-(IC3-VIN+)*%
X147000000Y-74560000D02*
X146810000Y-74750000D01*
D18*
X153040000Y-75850000D02*
X151750000Y-74560000D01*
X151750000Y-74560000D02*
X147000000Y-74560000D01*
X158750000Y-75850000D02*
X153040000Y-75850000D01*
%TO.N,Net-(IC4-VIN+)*%
X151750000Y-85310000D02*
X152851700Y-85310000D01*
X153641700Y-86100000D02*
X152851700Y-85310000D01*
X159040000Y-86100000D02*
X153641700Y-86100000D01*
X146750000Y-85310000D02*
X151750000Y-85310000D01*
%TO.N,+3.3V*%
X130750000Y-68750000D02*
X130750000Y-76000000D01*
X162830000Y-74580000D02*
X162250000Y-74000000D01*
X164150000Y-74580000D02*
X162830000Y-74580000D01*
X129000000Y-45500000D02*
X128250000Y-45500000D01*
X163080000Y-84830000D02*
X162500000Y-84250000D01*
X150250000Y-38750000D02*
X155000000Y-38750000D01*
X164150000Y-63520000D02*
X163020000Y-63520000D01*
X130750000Y-76000000D02*
X129000000Y-77750000D01*
X162500000Y-84250000D02*
X162500000Y-74910000D01*
X163113300Y-52330000D02*
X164190000Y-52330000D01*
X129000000Y-67000000D02*
X130750000Y-68750000D01*
X162250000Y-62750000D02*
X162250000Y-53000000D01*
X162250000Y-53000000D02*
X162920000Y-52330000D01*
X162000000Y-45750000D02*
X162000000Y-51216700D01*
X155000000Y-38750000D02*
X162000000Y-45750000D01*
X130750000Y-65250000D02*
X129000000Y-67000000D01*
X127000000Y-54310000D02*
X129000000Y-56310000D01*
X164440000Y-84830000D02*
X163080000Y-84830000D01*
X127000000Y-46750000D02*
X127000000Y-54310000D01*
X164150000Y-74580000D02*
X163670000Y-74580000D01*
X162500000Y-74910000D02*
X162830000Y-74580000D01*
X130750000Y-58060000D02*
X130750000Y-65250000D01*
X147750000Y-41250000D02*
X150250000Y-38750000D01*
X163020000Y-63520000D02*
X162250000Y-62750000D01*
X129000000Y-56310000D02*
X130750000Y-58060000D01*
X128250000Y-45500000D02*
X127000000Y-46750000D01*
X162000000Y-51216700D02*
X163113300Y-52330000D01*
X162920000Y-52330000D02*
X163765000Y-52330000D01*
D19*
X164190000Y-52330000D02*
X163765000Y-52330000D01*
D18*
X162250000Y-74000000D02*
X162250000Y-64065000D01*
X162250000Y-64065000D02*
X162795000Y-63520000D01*
X162795000Y-63520000D02*
X164150000Y-63520000D01*
%TO.N,ADC_Input1*%
X171500000Y-66310000D02*
X171500000Y-59833300D01*
X164190000Y-53600000D02*
X165266700Y-53600000D01*
X171500000Y-59833300D02*
X165266700Y-53600000D01*
%TO.N,ADC_Input2*%
X171500000Y-68850000D02*
X170348300Y-68850000D01*
X170348300Y-68850000D02*
X166288300Y-64790000D01*
X166288300Y-64790000D02*
X164150000Y-64790000D01*
%TO.N,ADC_Input3*%
X165888300Y-75850000D02*
X164150000Y-75850000D01*
X170348300Y-71390000D02*
X165888300Y-75850000D01*
X171500000Y-71390000D02*
X170348300Y-71390000D01*
%TO.N,ADC_Input4*%
X171500000Y-73930000D02*
X171500000Y-80116700D01*
X164440000Y-86100000D02*
X165516700Y-86100000D01*
X171500000Y-80116700D02*
X165516700Y-86100000D01*
%TO.N,Line2*%
X134500000Y-87750000D02*
X137245000Y-90495000D01*
X134500000Y-68940000D02*
X134500000Y-87750000D01*
X139190000Y-64250000D02*
X134500000Y-68940000D01*
X137245000Y-90495000D02*
X137245000Y-95810000D01*
%TO.N,Line3*%
X139785000Y-89535000D02*
X136250000Y-86000000D01*
X139785000Y-95810000D02*
X139785000Y-89535000D01*
X136250000Y-86000000D02*
X136250000Y-77690000D01*
X136250000Y-77690000D02*
X139190000Y-74750000D01*
%TO.N,Line4*%
X142325000Y-95810000D02*
X142325000Y-88575000D01*
X139130000Y-85380000D02*
X139130000Y-85310000D01*
X142325000Y-88575000D02*
X139130000Y-85380000D01*
%TO.N,Line1*%
X139690000Y-53000000D02*
X132750000Y-59940000D01*
X132750000Y-59940000D02*
X132750000Y-89500000D01*
X139690000Y-53000000D02*
X129120000Y-53000000D01*
X129120000Y-53000000D02*
X129000000Y-53120000D01*
X134705000Y-91455000D02*
X134705000Y-95810000D01*
X132750000Y-89500000D02*
X134705000Y-91455000D01*
%TD*%
%TA.AperFunction,Conductor*%
%TO.N,GND*%
G36*
X174692539Y-36770185D02*
G01*
X174738294Y-36822989D01*
X174749500Y-36874500D01*
X174749500Y-97875500D01*
X174729815Y-97942539D01*
X174677011Y-97988294D01*
X174625500Y-97999500D01*
X125874500Y-97999500D01*
X125807461Y-97979815D01*
X125761706Y-97927011D01*
X125750500Y-97875500D01*
X125750500Y-85369998D01*
X127694532Y-85369998D01*
X127694532Y-85370001D01*
X127714364Y-85596686D01*
X127714366Y-85596697D01*
X127773258Y-85816488D01*
X127773261Y-85816497D01*
X127869431Y-86022732D01*
X127869432Y-86022734D01*
X127999954Y-86209141D01*
X128160858Y-86370045D01*
X128160861Y-86370047D01*
X128347266Y-86500568D01*
X128553504Y-86596739D01*
X128553509Y-86596740D01*
X128553511Y-86596741D01*
X128580942Y-86604091D01*
X128773308Y-86655635D01*
X128935230Y-86669801D01*
X128999998Y-86675468D01*
X129000000Y-86675468D01*
X129000002Y-86675468D01*
X129056673Y-86670509D01*
X129226692Y-86655635D01*
X129446496Y-86596739D01*
X129652734Y-86500568D01*
X129839139Y-86370047D01*
X130000047Y-86209139D01*
X130130568Y-86022734D01*
X130226739Y-85816496D01*
X130285635Y-85596692D01*
X130305468Y-85370000D01*
X130303674Y-85349500D01*
X130294926Y-85249501D01*
X130285635Y-85143308D01*
X130226739Y-84923504D01*
X130130568Y-84717266D01*
X130000047Y-84530861D01*
X130000045Y-84530858D01*
X129839141Y-84369954D01*
X129652734Y-84239432D01*
X129652732Y-84239431D01*
X129446497Y-84143261D01*
X129446488Y-84143258D01*
X129226697Y-84084366D01*
X129226693Y-84084365D01*
X129226692Y-84084365D01*
X129226691Y-84084364D01*
X129226686Y-84084364D01*
X129000002Y-84064532D01*
X128999998Y-84064532D01*
X128773313Y-84084364D01*
X128773302Y-84084366D01*
X128553511Y-84143258D01*
X128553502Y-84143261D01*
X128347267Y-84239431D01*
X128347265Y-84239432D01*
X128160858Y-84369954D01*
X127999954Y-84530858D01*
X127869432Y-84717265D01*
X127869431Y-84717267D01*
X127773261Y-84923502D01*
X127773258Y-84923511D01*
X127714366Y-85143302D01*
X127714364Y-85143313D01*
X127694532Y-85369998D01*
X125750500Y-85369998D01*
X125750500Y-54383920D01*
X126249499Y-54383920D01*
X126278340Y-54528907D01*
X126278343Y-54528917D01*
X126334914Y-54665492D01*
X126367812Y-54714727D01*
X126367813Y-54714730D01*
X126417046Y-54788414D01*
X126417052Y-54788421D01*
X127673282Y-56044650D01*
X127706767Y-56105973D01*
X127709129Y-56143137D01*
X127694532Y-56309996D01*
X127694532Y-56310001D01*
X127714364Y-56536686D01*
X127714366Y-56536697D01*
X127773258Y-56756488D01*
X127773261Y-56756497D01*
X127869431Y-56962732D01*
X127869432Y-56962734D01*
X127999954Y-57149141D01*
X128160858Y-57310045D01*
X128160861Y-57310047D01*
X128347266Y-57440568D01*
X128553504Y-57536739D01*
X128773308Y-57595635D01*
X128935230Y-57609801D01*
X128999998Y-57615468D01*
X129000000Y-57615468D01*
X129000001Y-57615468D01*
X129020062Y-57613712D01*
X129166861Y-57600869D01*
X129235359Y-57614635D01*
X129265348Y-57636716D01*
X129963181Y-58334549D01*
X129996666Y-58395872D01*
X129999500Y-58422230D01*
X129999500Y-62804037D01*
X129979815Y-62871076D01*
X129927011Y-62916831D01*
X129857853Y-62926775D01*
X129804377Y-62905612D01*
X129652734Y-62799432D01*
X129652732Y-62799431D01*
X129446497Y-62703261D01*
X129446488Y-62703258D01*
X129226697Y-62644366D01*
X129226693Y-62644365D01*
X129226692Y-62644365D01*
X129226691Y-62644364D01*
X129226686Y-62644364D01*
X129000002Y-62624532D01*
X128999998Y-62624532D01*
X128773313Y-62644364D01*
X128773302Y-62644366D01*
X128553511Y-62703258D01*
X128553502Y-62703261D01*
X128347267Y-62799431D01*
X128347265Y-62799432D01*
X128160858Y-62929954D01*
X127999954Y-63090858D01*
X127869432Y-63277265D01*
X127869431Y-63277267D01*
X127773261Y-63483502D01*
X127773258Y-63483511D01*
X127714366Y-63703302D01*
X127714364Y-63703313D01*
X127694532Y-63929998D01*
X127694532Y-63930001D01*
X127714364Y-64156686D01*
X127714366Y-64156697D01*
X127773258Y-64376488D01*
X127773261Y-64376497D01*
X127869431Y-64582732D01*
X127869432Y-64582734D01*
X127999954Y-64769141D01*
X128160858Y-64930045D01*
X128160861Y-64930047D01*
X128347266Y-65060568D01*
X128553504Y-65156739D01*
X128773308Y-65215635D01*
X128935230Y-65229801D01*
X128999998Y-65235468D01*
X129000000Y-65235468D01*
X129000002Y-65235468D01*
X129056673Y-65230509D01*
X129226692Y-65215635D01*
X129446496Y-65156739D01*
X129446503Y-65156735D01*
X129448218Y-65156112D01*
X129449030Y-65156060D01*
X129451726Y-65155338D01*
X129451871Y-65155879D01*
X129517946Y-65151674D01*
X129579005Y-65185639D01*
X129612008Y-65247223D01*
X129606477Y-65316873D01*
X129578320Y-65360311D01*
X129265348Y-65673282D01*
X129204025Y-65706767D01*
X129166861Y-65709129D01*
X129000003Y-65694532D01*
X128999998Y-65694532D01*
X128773313Y-65714364D01*
X128773302Y-65714366D01*
X128553511Y-65773258D01*
X128553502Y-65773261D01*
X128347267Y-65869431D01*
X128347265Y-65869432D01*
X128160858Y-65999954D01*
X127999954Y-66160858D01*
X127869432Y-66347265D01*
X127869431Y-66347267D01*
X127773261Y-66553502D01*
X127773258Y-66553511D01*
X127714366Y-66773302D01*
X127714364Y-66773313D01*
X127694532Y-66999998D01*
X127694532Y-67000001D01*
X127714364Y-67226686D01*
X127714366Y-67226697D01*
X127773258Y-67446488D01*
X127773261Y-67446497D01*
X127869431Y-67652732D01*
X127869432Y-67652734D01*
X127999954Y-67839141D01*
X128160858Y-68000045D01*
X128160861Y-68000047D01*
X128347266Y-68130568D01*
X128553504Y-68226739D01*
X128773308Y-68285635D01*
X128935230Y-68299801D01*
X128999998Y-68305468D01*
X129000000Y-68305468D01*
X129000001Y-68305468D01*
X129020062Y-68303712D01*
X129166861Y-68290869D01*
X129235359Y-68304635D01*
X129265348Y-68326716D01*
X129963181Y-69024549D01*
X129996666Y-69085872D01*
X129999500Y-69112230D01*
X129999500Y-73494037D01*
X129979815Y-73561076D01*
X129927011Y-73606831D01*
X129857853Y-73616775D01*
X129804377Y-73595612D01*
X129652734Y-73489432D01*
X129652732Y-73489431D01*
X129446497Y-73393261D01*
X129446488Y-73393258D01*
X129226697Y-73334366D01*
X129226693Y-73334365D01*
X129226692Y-73334365D01*
X129226691Y-73334364D01*
X129226686Y-73334364D01*
X129000002Y-73314532D01*
X128999998Y-73314532D01*
X128773313Y-73334364D01*
X128773302Y-73334366D01*
X128553511Y-73393258D01*
X128553502Y-73393261D01*
X128347267Y-73489431D01*
X128347265Y-73489432D01*
X128160858Y-73619954D01*
X127999954Y-73780858D01*
X127869432Y-73967265D01*
X127869431Y-73967267D01*
X127773261Y-74173502D01*
X127773258Y-74173511D01*
X127714366Y-74393302D01*
X127714364Y-74393313D01*
X127694532Y-74619998D01*
X127694532Y-74620001D01*
X127714364Y-74846686D01*
X127714366Y-74846697D01*
X127773258Y-75066488D01*
X127773261Y-75066497D01*
X127869431Y-75272732D01*
X127869432Y-75272734D01*
X127999954Y-75459141D01*
X128160858Y-75620045D01*
X128160861Y-75620047D01*
X128347266Y-75750568D01*
X128553504Y-75846739D01*
X128553509Y-75846740D01*
X128553511Y-75846741D01*
X128580942Y-75854091D01*
X128773308Y-75905635D01*
X128935230Y-75919801D01*
X128999998Y-75925468D01*
X129000000Y-75925468D01*
X129000002Y-75925468D01*
X129056673Y-75920509D01*
X129226692Y-75905635D01*
X129446496Y-75846739D01*
X129550021Y-75798464D01*
X129619092Y-75787973D01*
X129682877Y-75816492D01*
X129721117Y-75874968D01*
X129721672Y-75944835D01*
X129690102Y-75998528D01*
X129265348Y-76423282D01*
X129204025Y-76456767D01*
X129166861Y-76459129D01*
X129000003Y-76444532D01*
X128999998Y-76444532D01*
X128773313Y-76464364D01*
X128773302Y-76464366D01*
X128553511Y-76523258D01*
X128553502Y-76523261D01*
X128347267Y-76619431D01*
X128347265Y-76619432D01*
X128160858Y-76749954D01*
X127999954Y-76910858D01*
X127869432Y-77097265D01*
X127869431Y-77097267D01*
X127773261Y-77303502D01*
X127773258Y-77303511D01*
X127714366Y-77523302D01*
X127714364Y-77523313D01*
X127694532Y-77749998D01*
X127694532Y-77750001D01*
X127714364Y-77976686D01*
X127714366Y-77976697D01*
X127773258Y-78196488D01*
X127773261Y-78196497D01*
X127869431Y-78402732D01*
X127869432Y-78402734D01*
X127999954Y-78589141D01*
X128160858Y-78750045D01*
X128160861Y-78750047D01*
X128347266Y-78880568D01*
X128553504Y-78976739D01*
X128773308Y-79035635D01*
X128935230Y-79049801D01*
X128999998Y-79055468D01*
X129000000Y-79055468D01*
X129000002Y-79055468D01*
X129056673Y-79050509D01*
X129226692Y-79035635D01*
X129446496Y-78976739D01*
X129652734Y-78880568D01*
X129839139Y-78750047D01*
X130000047Y-78589139D01*
X130130568Y-78402734D01*
X130226739Y-78196496D01*
X130285635Y-77976692D01*
X130305468Y-77750000D01*
X130290869Y-77583137D01*
X130304635Y-77514639D01*
X130326713Y-77484653D01*
X131332952Y-76478416D01*
X131382186Y-76404729D01*
X131415084Y-76355495D01*
X131450704Y-76269500D01*
X131471659Y-76218912D01*
X131500500Y-76073917D01*
X131500500Y-75926082D01*
X131500500Y-68676082D01*
X131500500Y-68676079D01*
X131482284Y-68584506D01*
X131482284Y-68584502D01*
X131471660Y-68531093D01*
X131471659Y-68531092D01*
X131471659Y-68531088D01*
X131417408Y-68400117D01*
X131415765Y-68395525D01*
X131415084Y-68394505D01*
X131342340Y-68285635D01*
X131332952Y-68271584D01*
X130326716Y-67265348D01*
X130293231Y-67204025D01*
X130290869Y-67166863D01*
X130305468Y-67000000D01*
X130290869Y-66833137D01*
X130304635Y-66764639D01*
X130326713Y-66734653D01*
X131332952Y-65728416D01*
X131391695Y-65640500D01*
X131395978Y-65634090D01*
X131400753Y-65626942D01*
X131415084Y-65605495D01*
X131453952Y-65511659D01*
X131471659Y-65468912D01*
X131500500Y-65323917D01*
X131500500Y-65176082D01*
X131500500Y-57986082D01*
X131494763Y-57957241D01*
X131471659Y-57841088D01*
X131417408Y-57710117D01*
X131415765Y-57705525D01*
X131415084Y-57704505D01*
X131342340Y-57595635D01*
X131332952Y-57581584D01*
X130326716Y-56575348D01*
X130293231Y-56514025D01*
X130290869Y-56476863D01*
X130305468Y-56310000D01*
X130285635Y-56083308D01*
X130226739Y-55863504D01*
X130130568Y-55657266D01*
X130000047Y-55470861D01*
X130000045Y-55470858D01*
X129839141Y-55309954D01*
X129652734Y-55179432D01*
X129652732Y-55179431D01*
X129446497Y-55083261D01*
X129446488Y-55083258D01*
X129226697Y-55024366D01*
X129226693Y-55024365D01*
X129226692Y-55024365D01*
X129226691Y-55024364D01*
X129226686Y-55024364D01*
X129000002Y-55004532D01*
X128999997Y-55004532D01*
X128833137Y-55019129D01*
X128764637Y-55005362D01*
X128734650Y-54983282D01*
X128196209Y-54444841D01*
X128162724Y-54383518D01*
X128167708Y-54313826D01*
X128209580Y-54257893D01*
X128275044Y-54233476D01*
X128343317Y-54248328D01*
X128345895Y-54249776D01*
X128347266Y-54250568D01*
X128553504Y-54346739D01*
X128773308Y-54405635D01*
X128935230Y-54419801D01*
X128999998Y-54425468D01*
X129000000Y-54425468D01*
X129000002Y-54425468D01*
X129056673Y-54420509D01*
X129226692Y-54405635D01*
X129446496Y-54346739D01*
X129652734Y-54250568D01*
X129839139Y-54120047D01*
X130000047Y-53959139D01*
X130109112Y-53803375D01*
X130163687Y-53759752D01*
X130210686Y-53750500D01*
X137578771Y-53750500D01*
X137645810Y-53770185D01*
X137691565Y-53822989D01*
X137701509Y-53892147D01*
X137672484Y-53955703D01*
X137666452Y-53962181D01*
X132167049Y-59461582D01*
X132156210Y-59477805D01*
X132084913Y-59584508D01*
X132028343Y-59721082D01*
X132028340Y-59721092D01*
X131999500Y-59866079D01*
X131999500Y-59866082D01*
X131999500Y-89573918D01*
X131999500Y-89573920D01*
X131999499Y-89573920D01*
X132028340Y-89718907D01*
X132028343Y-89718917D01*
X132084913Y-89855490D01*
X132108303Y-89890496D01*
X132167043Y-89978410D01*
X132167047Y-89978415D01*
X132167048Y-89978416D01*
X133060682Y-90872050D01*
X133918181Y-91729548D01*
X133951666Y-91790871D01*
X133954500Y-91817229D01*
X133954500Y-94622298D01*
X133934815Y-94689337D01*
X133901625Y-94723872D01*
X133833595Y-94771507D01*
X133666505Y-94938597D01*
X133536575Y-95124158D01*
X133481998Y-95167783D01*
X133412500Y-95174977D01*
X133350145Y-95143454D01*
X133333425Y-95124158D01*
X133203494Y-94938597D01*
X133036402Y-94771506D01*
X133036395Y-94771501D01*
X132842834Y-94635967D01*
X132842830Y-94635965D01*
X132813521Y-94622298D01*
X132628663Y-94536097D01*
X132628659Y-94536096D01*
X132628655Y-94536094D01*
X132400413Y-94474938D01*
X132400403Y-94474936D01*
X132165001Y-94454341D01*
X132164999Y-94454341D01*
X131929596Y-94474936D01*
X131929586Y-94474938D01*
X131701344Y-94536094D01*
X131701335Y-94536098D01*
X131487171Y-94635964D01*
X131487169Y-94635965D01*
X131293600Y-94771503D01*
X131171673Y-94893430D01*
X131110350Y-94926914D01*
X131040658Y-94921930D01*
X130984725Y-94880058D01*
X130967810Y-94849081D01*
X130918797Y-94717671D01*
X130918793Y-94717664D01*
X130832547Y-94602455D01*
X130832544Y-94602452D01*
X130717335Y-94516206D01*
X130717328Y-94516202D01*
X130582482Y-94465908D01*
X130582483Y-94465908D01*
X130522883Y-94459501D01*
X130522881Y-94459500D01*
X130522873Y-94459500D01*
X130522864Y-94459500D01*
X128727129Y-94459500D01*
X128727123Y-94459501D01*
X128667516Y-94465908D01*
X128532671Y-94516202D01*
X128532664Y-94516206D01*
X128417455Y-94602452D01*
X128417452Y-94602455D01*
X128331206Y-94717664D01*
X128331202Y-94717671D01*
X128280908Y-94852517D01*
X128274501Y-94912116D01*
X128274500Y-94912135D01*
X128274500Y-96707870D01*
X128274501Y-96707876D01*
X128280908Y-96767483D01*
X128331202Y-96902328D01*
X128331206Y-96902335D01*
X128417452Y-97017544D01*
X128417455Y-97017547D01*
X128532664Y-97103793D01*
X128532671Y-97103797D01*
X128667517Y-97154091D01*
X128667516Y-97154091D01*
X128674444Y-97154835D01*
X128727127Y-97160500D01*
X130522872Y-97160499D01*
X130582483Y-97154091D01*
X130717331Y-97103796D01*
X130832546Y-97017546D01*
X130918796Y-96902331D01*
X130967810Y-96770916D01*
X131009681Y-96714984D01*
X131075145Y-96690566D01*
X131143418Y-96705417D01*
X131171673Y-96726569D01*
X131293599Y-96848495D01*
X131390384Y-96916265D01*
X131487165Y-96984032D01*
X131487167Y-96984033D01*
X131487170Y-96984035D01*
X131701337Y-97083903D01*
X131929592Y-97145063D01*
X132106034Y-97160500D01*
X132164999Y-97165659D01*
X132165000Y-97165659D01*
X132165001Y-97165659D01*
X132223966Y-97160500D01*
X132400408Y-97145063D01*
X132628663Y-97083903D01*
X132842830Y-96984035D01*
X133036401Y-96848495D01*
X133203495Y-96681401D01*
X133333425Y-96495842D01*
X133388002Y-96452217D01*
X133457500Y-96445023D01*
X133519855Y-96476546D01*
X133536575Y-96495842D01*
X133666500Y-96681395D01*
X133666505Y-96681401D01*
X133833599Y-96848495D01*
X133930384Y-96916265D01*
X134027165Y-96984032D01*
X134027167Y-96984033D01*
X134027170Y-96984035D01*
X134241337Y-97083903D01*
X134469592Y-97145063D01*
X134646034Y-97160500D01*
X134704999Y-97165659D01*
X134705000Y-97165659D01*
X134705001Y-97165659D01*
X134763966Y-97160500D01*
X134940408Y-97145063D01*
X135168663Y-97083903D01*
X135382830Y-96984035D01*
X135576401Y-96848495D01*
X135743495Y-96681401D01*
X135873425Y-96495842D01*
X135928002Y-96452217D01*
X135997500Y-96445023D01*
X136059855Y-96476546D01*
X136076575Y-96495842D01*
X136206500Y-96681395D01*
X136206505Y-96681401D01*
X136373599Y-96848495D01*
X136470384Y-96916265D01*
X136567165Y-96984032D01*
X136567167Y-96984033D01*
X136567170Y-96984035D01*
X136781337Y-97083903D01*
X137009592Y-97145063D01*
X137186034Y-97160500D01*
X137244999Y-97165659D01*
X137245000Y-97165659D01*
X137245001Y-97165659D01*
X137303966Y-97160500D01*
X137480408Y-97145063D01*
X137708663Y-97083903D01*
X137922830Y-96984035D01*
X138116401Y-96848495D01*
X138283495Y-96681401D01*
X138413425Y-96495842D01*
X138468002Y-96452217D01*
X138537500Y-96445023D01*
X138599855Y-96476546D01*
X138616575Y-96495842D01*
X138746500Y-96681395D01*
X138746505Y-96681401D01*
X138913599Y-96848495D01*
X139010384Y-96916265D01*
X139107165Y-96984032D01*
X139107167Y-96984033D01*
X139107170Y-96984035D01*
X139321337Y-97083903D01*
X139549592Y-97145063D01*
X139726034Y-97160500D01*
X139784999Y-97165659D01*
X139785000Y-97165659D01*
X139785001Y-97165659D01*
X139843966Y-97160500D01*
X140020408Y-97145063D01*
X140248663Y-97083903D01*
X140462830Y-96984035D01*
X140656401Y-96848495D01*
X140823495Y-96681401D01*
X140953425Y-96495842D01*
X141008002Y-96452217D01*
X141077500Y-96445023D01*
X141139855Y-96476546D01*
X141156575Y-96495842D01*
X141286500Y-96681395D01*
X141286505Y-96681401D01*
X141453599Y-96848495D01*
X141550384Y-96916265D01*
X141647165Y-96984032D01*
X141647167Y-96984033D01*
X141647170Y-96984035D01*
X141861337Y-97083903D01*
X142089592Y-97145063D01*
X142266034Y-97160500D01*
X142324999Y-97165659D01*
X142325000Y-97165659D01*
X142325001Y-97165659D01*
X142383966Y-97160500D01*
X142560408Y-97145063D01*
X142788663Y-97083903D01*
X143002830Y-96984035D01*
X143196401Y-96848495D01*
X143363495Y-96681401D01*
X143493425Y-96495842D01*
X143548002Y-96452217D01*
X143617500Y-96445023D01*
X143679855Y-96476546D01*
X143696575Y-96495842D01*
X143826500Y-96681395D01*
X143826505Y-96681401D01*
X143993599Y-96848495D01*
X144090384Y-96916265D01*
X144187165Y-96984032D01*
X144187167Y-96984033D01*
X144187170Y-96984035D01*
X144401337Y-97083903D01*
X144629592Y-97145063D01*
X144806034Y-97160500D01*
X144864999Y-97165659D01*
X144865000Y-97165659D01*
X144865001Y-97165659D01*
X144923966Y-97160500D01*
X145100408Y-97145063D01*
X145328663Y-97083903D01*
X145542830Y-96984035D01*
X145736401Y-96848495D01*
X145903495Y-96681401D01*
X146033425Y-96495842D01*
X146088002Y-96452217D01*
X146157500Y-96445023D01*
X146219855Y-96476546D01*
X146236575Y-96495842D01*
X146366500Y-96681395D01*
X146366505Y-96681401D01*
X146533599Y-96848495D01*
X146630384Y-96916265D01*
X146727165Y-96984032D01*
X146727167Y-96984033D01*
X146727170Y-96984035D01*
X146941337Y-97083903D01*
X147169592Y-97145063D01*
X147346034Y-97160500D01*
X147404999Y-97165659D01*
X147405000Y-97165659D01*
X147405001Y-97165659D01*
X147463966Y-97160500D01*
X147640408Y-97145063D01*
X147868663Y-97083903D01*
X148082830Y-96984035D01*
X148276401Y-96848495D01*
X148443495Y-96681401D01*
X148579035Y-96487830D01*
X148678903Y-96273663D01*
X148740063Y-96045408D01*
X148760659Y-95810000D01*
X148740063Y-95574592D01*
X148678903Y-95346337D01*
X148579035Y-95132171D01*
X148573425Y-95124158D01*
X148443494Y-94938597D01*
X148276402Y-94771506D01*
X148276395Y-94771501D01*
X148082834Y-94635967D01*
X148082830Y-94635965D01*
X148053521Y-94622298D01*
X147868663Y-94536097D01*
X147868659Y-94536096D01*
X147868655Y-94536094D01*
X147640413Y-94474938D01*
X147640403Y-94474936D01*
X147405001Y-94454341D01*
X147404999Y-94454341D01*
X147169596Y-94474936D01*
X147169586Y-94474938D01*
X146941344Y-94536094D01*
X146941335Y-94536098D01*
X146727171Y-94635964D01*
X146727169Y-94635965D01*
X146533597Y-94771505D01*
X146366505Y-94938597D01*
X146236575Y-95124158D01*
X146181998Y-95167783D01*
X146112500Y-95174977D01*
X146050145Y-95143454D01*
X146033425Y-95124158D01*
X145903494Y-94938597D01*
X145736402Y-94771506D01*
X145736395Y-94771501D01*
X145542834Y-94635967D01*
X145542830Y-94635965D01*
X145513521Y-94622298D01*
X145328663Y-94536097D01*
X145328659Y-94536096D01*
X145328655Y-94536094D01*
X145100413Y-94474938D01*
X145100403Y-94474936D01*
X144865001Y-94454341D01*
X144864999Y-94454341D01*
X144629596Y-94474936D01*
X144629586Y-94474938D01*
X144401344Y-94536094D01*
X144401335Y-94536098D01*
X144187171Y-94635964D01*
X144187169Y-94635965D01*
X143993597Y-94771505D01*
X143826505Y-94938597D01*
X143696575Y-95124158D01*
X143641998Y-95167783D01*
X143572500Y-95174977D01*
X143510145Y-95143454D01*
X143493425Y-95124158D01*
X143363494Y-94938597D01*
X143196404Y-94771507D01*
X143128375Y-94723872D01*
X143084751Y-94669294D01*
X143075500Y-94622298D01*
X143075500Y-90459999D01*
X170144341Y-90459999D01*
X170144341Y-90460000D01*
X170164936Y-90695403D01*
X170164938Y-90695413D01*
X170226094Y-90923655D01*
X170226096Y-90923659D01*
X170226097Y-90923663D01*
X170325965Y-91137830D01*
X170325967Y-91137834D01*
X170461501Y-91331395D01*
X170461505Y-91331401D01*
X170628597Y-91498493D01*
X170628603Y-91498498D01*
X170814158Y-91628425D01*
X170857783Y-91683002D01*
X170864977Y-91752500D01*
X170833454Y-91814855D01*
X170814158Y-91831575D01*
X170628597Y-91961505D01*
X170461505Y-92128597D01*
X170325965Y-92322169D01*
X170325964Y-92322171D01*
X170226098Y-92536335D01*
X170226094Y-92536344D01*
X170164938Y-92764586D01*
X170164936Y-92764596D01*
X170144341Y-92999999D01*
X170144341Y-93000000D01*
X170164936Y-93235403D01*
X170164938Y-93235413D01*
X170226094Y-93463655D01*
X170226096Y-93463659D01*
X170226097Y-93463663D01*
X170325965Y-93677830D01*
X170325967Y-93677834D01*
X170461501Y-93871395D01*
X170461506Y-93871402D01*
X170628597Y-94038493D01*
X170628603Y-94038498D01*
X170814158Y-94168425D01*
X170857783Y-94223002D01*
X170864977Y-94292500D01*
X170833454Y-94354855D01*
X170814158Y-94371575D01*
X170628597Y-94501505D01*
X170461505Y-94668597D01*
X170325965Y-94862169D01*
X170325964Y-94862171D01*
X170226098Y-95076335D01*
X170226094Y-95076344D01*
X170164938Y-95304586D01*
X170164936Y-95304596D01*
X170144341Y-95539999D01*
X170144341Y-95540000D01*
X170164936Y-95775403D01*
X170164938Y-95775413D01*
X170226094Y-96003655D01*
X170226096Y-96003659D01*
X170226097Y-96003663D01*
X170325965Y-96217830D01*
X170325967Y-96217834D01*
X170434281Y-96372521D01*
X170461505Y-96411401D01*
X170628599Y-96578495D01*
X170725384Y-96646265D01*
X170822165Y-96714032D01*
X170822167Y-96714033D01*
X170822170Y-96714035D01*
X171036337Y-96813903D01*
X171264592Y-96875063D01*
X171452918Y-96891539D01*
X171499999Y-96895659D01*
X171500000Y-96895659D01*
X171500001Y-96895659D01*
X171539234Y-96892226D01*
X171735408Y-96875063D01*
X171963663Y-96813903D01*
X172177830Y-96714035D01*
X172371401Y-96578495D01*
X172538495Y-96411401D01*
X172674035Y-96217830D01*
X172773903Y-96003663D01*
X172835063Y-95775408D01*
X172855659Y-95540000D01*
X172835063Y-95304592D01*
X172773903Y-95076337D01*
X172674035Y-94862171D01*
X172667276Y-94852517D01*
X172538494Y-94668597D01*
X172371402Y-94501506D01*
X172371396Y-94501501D01*
X172185842Y-94371575D01*
X172142217Y-94316998D01*
X172135023Y-94247500D01*
X172166546Y-94185145D01*
X172185842Y-94168425D01*
X172208026Y-94152891D01*
X172371401Y-94038495D01*
X172538495Y-93871401D01*
X172674035Y-93677830D01*
X172773903Y-93463663D01*
X172835063Y-93235408D01*
X172855659Y-93000000D01*
X172835063Y-92764592D01*
X172773903Y-92536337D01*
X172674035Y-92322171D01*
X172538495Y-92128599D01*
X172538494Y-92128597D01*
X172371402Y-91961506D01*
X172371396Y-91961501D01*
X172185842Y-91831575D01*
X172142217Y-91776998D01*
X172135023Y-91707500D01*
X172166546Y-91645145D01*
X172185842Y-91628425D01*
X172208026Y-91612891D01*
X172371401Y-91498495D01*
X172538495Y-91331401D01*
X172674035Y-91137830D01*
X172773903Y-90923663D01*
X172835063Y-90695408D01*
X172855659Y-90460000D01*
X172835063Y-90224592D01*
X172773903Y-89996337D01*
X172674035Y-89782171D01*
X172629744Y-89718917D01*
X172538496Y-89588600D01*
X172523814Y-89573918D01*
X172416567Y-89466671D01*
X172383084Y-89405351D01*
X172388068Y-89335659D01*
X172429939Y-89279725D01*
X172460915Y-89262810D01*
X172592331Y-89213796D01*
X172707546Y-89127546D01*
X172793796Y-89012331D01*
X172844091Y-88877483D01*
X172850500Y-88817873D01*
X172850499Y-87022128D01*
X172844091Y-86962517D01*
X172825483Y-86912627D01*
X172793797Y-86827671D01*
X172793793Y-86827664D01*
X172707547Y-86712455D01*
X172707544Y-86712452D01*
X172592335Y-86626206D01*
X172592328Y-86626202D01*
X172457482Y-86575908D01*
X172457483Y-86575908D01*
X172397883Y-86569501D01*
X172397881Y-86569500D01*
X172397873Y-86569500D01*
X172397864Y-86569500D01*
X170602129Y-86569500D01*
X170602123Y-86569501D01*
X170542516Y-86575908D01*
X170407671Y-86626202D01*
X170407664Y-86626206D01*
X170292455Y-86712452D01*
X170292452Y-86712455D01*
X170206206Y-86827664D01*
X170206202Y-86827671D01*
X170155908Y-86962517D01*
X170149501Y-87022116D01*
X170149501Y-87022123D01*
X170149500Y-87022135D01*
X170149500Y-88817870D01*
X170149501Y-88817876D01*
X170155908Y-88877483D01*
X170206202Y-89012328D01*
X170206206Y-89012335D01*
X170292452Y-89127544D01*
X170292455Y-89127547D01*
X170407664Y-89213793D01*
X170407671Y-89213797D01*
X170539081Y-89262810D01*
X170595015Y-89304681D01*
X170619432Y-89370145D01*
X170604580Y-89438418D01*
X170583430Y-89466673D01*
X170461503Y-89588600D01*
X170325965Y-89782169D01*
X170325964Y-89782171D01*
X170226098Y-89996335D01*
X170226094Y-89996344D01*
X170164938Y-90224586D01*
X170164936Y-90224596D01*
X170144341Y-90459999D01*
X143075500Y-90459999D01*
X143075500Y-88501079D01*
X143046659Y-88356092D01*
X143046658Y-88356091D01*
X143046658Y-88356087D01*
X143005332Y-88256317D01*
X142990087Y-88219511D01*
X142990080Y-88219498D01*
X142907952Y-88096585D01*
X142866973Y-88055606D01*
X142803416Y-87992049D01*
X141633025Y-86821658D01*
X140451084Y-85639716D01*
X140417599Y-85578393D01*
X140415237Y-85541227D01*
X140415633Y-85536698D01*
X140415635Y-85536692D01*
X140435468Y-85310000D01*
X140435468Y-85309998D01*
X145444532Y-85309998D01*
X145444532Y-85310001D01*
X145464364Y-85536686D01*
X145464366Y-85536697D01*
X145523258Y-85756488D01*
X145523261Y-85756497D01*
X145619431Y-85962732D01*
X145619432Y-85962734D01*
X145749954Y-86149141D01*
X145910858Y-86310045D01*
X145910861Y-86310047D01*
X146097266Y-86440568D01*
X146303504Y-86536739D01*
X146523308Y-86595635D01*
X146685230Y-86609801D01*
X146749998Y-86615468D01*
X146750000Y-86615468D01*
X146750002Y-86615468D01*
X146806807Y-86610498D01*
X146976692Y-86595635D01*
X147196496Y-86536739D01*
X147402734Y-86440568D01*
X147589139Y-86310047D01*
X147750047Y-86149139D01*
X147775088Y-86113377D01*
X147829665Y-86069752D01*
X147876663Y-86060500D01*
X150327649Y-86060500D01*
X150394688Y-86080185D01*
X150440443Y-86132989D01*
X150450939Y-86171248D01*
X150455908Y-86217483D01*
X150506202Y-86352328D01*
X150506206Y-86352335D01*
X150592452Y-86467544D01*
X150592455Y-86467547D01*
X150707664Y-86553793D01*
X150707671Y-86553797D01*
X150717554Y-86557483D01*
X150842517Y-86604091D01*
X150902127Y-86610500D01*
X150902153Y-86610499D01*
X150905453Y-86610678D01*
X150905372Y-86612183D01*
X150966672Y-86630112D01*
X151012483Y-86682867D01*
X151020016Y-86726464D01*
X151703553Y-87410000D01*
X151697339Y-87410000D01*
X151595606Y-87437259D01*
X151504394Y-87489920D01*
X151429920Y-87564394D01*
X151377259Y-87655606D01*
X151350000Y-87757339D01*
X151350000Y-87763552D01*
X150670974Y-87084526D01*
X150670973Y-87084526D01*
X150619868Y-87157512D01*
X150619866Y-87157516D01*
X150523734Y-87363673D01*
X150523730Y-87363682D01*
X150464860Y-87583389D01*
X150464858Y-87583400D01*
X150445034Y-87809997D01*
X150445034Y-87810002D01*
X150464858Y-88036599D01*
X150464860Y-88036610D01*
X150523730Y-88256317D01*
X150523735Y-88256331D01*
X150619863Y-88462478D01*
X150670974Y-88535472D01*
X151350000Y-87856446D01*
X151350000Y-87862661D01*
X151377259Y-87964394D01*
X151429920Y-88055606D01*
X151504394Y-88130080D01*
X151595606Y-88182741D01*
X151697339Y-88210000D01*
X151703553Y-88210000D01*
X151024526Y-88889025D01*
X151097513Y-88940132D01*
X151097521Y-88940136D01*
X151303668Y-89036264D01*
X151303682Y-89036269D01*
X151523389Y-89095139D01*
X151523400Y-89095141D01*
X151749998Y-89114966D01*
X151750002Y-89114966D01*
X151976599Y-89095141D01*
X151976610Y-89095139D01*
X152196317Y-89036269D01*
X152196331Y-89036264D01*
X152402478Y-88940136D01*
X152475471Y-88889024D01*
X151796447Y-88210000D01*
X151802661Y-88210000D01*
X151904394Y-88182741D01*
X151995606Y-88130080D01*
X152070080Y-88055606D01*
X152122741Y-87964394D01*
X152150000Y-87862661D01*
X152150000Y-87856447D01*
X152829024Y-88535471D01*
X152880136Y-88462478D01*
X152976264Y-88256331D01*
X152976269Y-88256317D01*
X153035139Y-88036610D01*
X153035141Y-88036599D01*
X153054966Y-87810002D01*
X153054966Y-87809997D01*
X153051278Y-87767844D01*
X157765000Y-87767844D01*
X157771401Y-87827372D01*
X157771403Y-87827379D01*
X157821645Y-87962086D01*
X157821649Y-87962093D01*
X157907809Y-88077187D01*
X157907812Y-88077190D01*
X158022906Y-88163350D01*
X158022913Y-88163354D01*
X158157620Y-88213596D01*
X158157627Y-88213598D01*
X158217155Y-88219999D01*
X158217172Y-88220000D01*
X158790000Y-88220000D01*
X159290000Y-88220000D01*
X159862828Y-88220000D01*
X159862844Y-88219999D01*
X159922372Y-88213598D01*
X159922379Y-88213596D01*
X160057086Y-88163354D01*
X160057093Y-88163350D01*
X160172187Y-88077190D01*
X160172190Y-88077187D01*
X160258350Y-87962093D01*
X160258354Y-87962086D01*
X160308596Y-87827379D01*
X160308598Y-87827372D01*
X160314999Y-87767844D01*
X160315000Y-87767827D01*
X160315000Y-87620000D01*
X159290000Y-87620000D01*
X159290000Y-88220000D01*
X158790000Y-88220000D01*
X158790000Y-87620000D01*
X157765000Y-87620000D01*
X157765000Y-87767844D01*
X153051278Y-87767844D01*
X153035141Y-87583400D01*
X153035139Y-87583389D01*
X152976269Y-87363682D01*
X152976264Y-87363668D01*
X152880136Y-87157521D01*
X152880132Y-87157513D01*
X152829025Y-87084526D01*
X152150000Y-87763551D01*
X152150000Y-87757339D01*
X152122741Y-87655606D01*
X152070080Y-87564394D01*
X151995606Y-87489920D01*
X151904394Y-87437259D01*
X151802661Y-87410000D01*
X151796448Y-87410000D01*
X152480645Y-86725801D01*
X152490492Y-86676807D01*
X152539107Y-86626624D01*
X152594633Y-86611981D01*
X152594576Y-86610900D01*
X152594571Y-86610854D01*
X152594573Y-86610853D01*
X152594564Y-86610676D01*
X152597857Y-86610499D01*
X152597872Y-86610499D01*
X152657483Y-86604091D01*
X152792331Y-86553796D01*
X152844597Y-86514669D01*
X152910056Y-86490252D01*
X152978330Y-86505102D01*
X153006587Y-86526255D01*
X153163286Y-86682954D01*
X153192720Y-86702620D01*
X153207438Y-86712454D01*
X153286205Y-86765084D01*
X153286206Y-86765084D01*
X153286207Y-86765085D01*
X153316587Y-86777669D01*
X153316588Y-86777669D01*
X153422788Y-86821659D01*
X153538941Y-86844763D01*
X153558168Y-86848587D01*
X153567781Y-86850500D01*
X153567782Y-86850500D01*
X153567783Y-86850500D01*
X153715618Y-86850500D01*
X157641000Y-86850500D01*
X157708039Y-86870185D01*
X157753794Y-86922989D01*
X157765000Y-86974500D01*
X157765000Y-87120000D01*
X160315000Y-87120000D01*
X160315000Y-86972172D01*
X160314999Y-86972155D01*
X160308598Y-86912627D01*
X160308597Y-86912623D01*
X160258776Y-86779049D01*
X160253792Y-86709358D01*
X160258776Y-86692381D01*
X160258793Y-86692334D01*
X160258796Y-86692331D01*
X160309091Y-86557483D01*
X160315500Y-86497873D01*
X160315499Y-85702128D01*
X160309091Y-85642517D01*
X160258796Y-85507669D01*
X160258793Y-85507665D01*
X160258776Y-85507619D01*
X160253792Y-85437927D01*
X160258776Y-85420951D01*
X160308597Y-85287376D01*
X160308598Y-85287372D01*
X160314999Y-85227844D01*
X160315000Y-85227827D01*
X160315000Y-85080000D01*
X157765000Y-85080000D01*
X157765000Y-85225500D01*
X157745315Y-85292539D01*
X157692511Y-85338294D01*
X157641000Y-85349500D01*
X154003930Y-85349500D01*
X153936891Y-85329815D01*
X153916249Y-85313181D01*
X153330121Y-84727052D01*
X153330120Y-84727051D01*
X153315477Y-84717267D01*
X153227288Y-84658342D01*
X153207195Y-84644916D01*
X153190278Y-84637909D01*
X153127046Y-84611717D01*
X153072643Y-84567876D01*
X153050578Y-84501582D01*
X153050499Y-84497156D01*
X153050499Y-84462129D01*
X153050498Y-84462123D01*
X153047273Y-84432123D01*
X153044091Y-84402517D01*
X153032941Y-84372623D01*
X152993797Y-84267671D01*
X152993793Y-84267664D01*
X152907547Y-84152455D01*
X152907544Y-84152452D01*
X152792335Y-84066206D01*
X152792328Y-84066202D01*
X152657482Y-84015908D01*
X152657483Y-84015908D01*
X152597883Y-84009501D01*
X152597881Y-84009500D01*
X152597873Y-84009500D01*
X152597864Y-84009500D01*
X150902129Y-84009500D01*
X150902123Y-84009501D01*
X150842516Y-84015908D01*
X150707671Y-84066202D01*
X150707664Y-84066206D01*
X150592455Y-84152452D01*
X150592452Y-84152455D01*
X150506206Y-84267664D01*
X150506202Y-84267671D01*
X150467057Y-84372627D01*
X150455909Y-84402517D01*
X150450937Y-84448757D01*
X150424201Y-84513306D01*
X150366809Y-84553154D01*
X150327649Y-84559500D01*
X147876663Y-84559500D01*
X147809624Y-84539815D01*
X147775088Y-84506623D01*
X147750045Y-84470858D01*
X147589141Y-84309954D01*
X147402734Y-84179432D01*
X147402732Y-84179431D01*
X147196497Y-84083261D01*
X147196488Y-84083258D01*
X146976697Y-84024366D01*
X146976693Y-84024365D01*
X146976692Y-84024365D01*
X146976691Y-84024364D01*
X146976686Y-84024364D01*
X146750002Y-84004532D01*
X146749998Y-84004532D01*
X146523313Y-84024364D01*
X146523302Y-84024366D01*
X146303511Y-84083258D01*
X146303502Y-84083261D01*
X146097267Y-84179431D01*
X146097265Y-84179432D01*
X145910858Y-84309954D01*
X145749954Y-84470858D01*
X145619432Y-84657265D01*
X145619431Y-84657267D01*
X145523261Y-84863502D01*
X145523258Y-84863511D01*
X145464366Y-85083302D01*
X145464364Y-85083313D01*
X145444532Y-85309998D01*
X140435468Y-85309998D01*
X140415635Y-85083308D01*
X140356739Y-84863504D01*
X140260568Y-84657266D01*
X140130047Y-84470861D01*
X140130045Y-84470858D01*
X139969141Y-84309954D01*
X139782734Y-84179432D01*
X139782732Y-84179431D01*
X139576497Y-84083261D01*
X139576488Y-84083258D01*
X139356697Y-84024366D01*
X139356693Y-84024365D01*
X139356692Y-84024365D01*
X139356691Y-84024364D01*
X139356686Y-84024364D01*
X139130002Y-84004532D01*
X139129998Y-84004532D01*
X138903313Y-84024364D01*
X138903302Y-84024366D01*
X138683511Y-84083258D01*
X138683502Y-84083261D01*
X138477267Y-84179431D01*
X138477265Y-84179432D01*
X138290858Y-84309954D01*
X138129954Y-84470858D01*
X137999432Y-84657265D01*
X137999431Y-84657267D01*
X137903261Y-84863502D01*
X137903258Y-84863511D01*
X137844366Y-85083302D01*
X137844364Y-85083313D01*
X137824532Y-85309998D01*
X137824532Y-85310001D01*
X137844364Y-85536686D01*
X137844366Y-85536697D01*
X137903258Y-85756488D01*
X137903261Y-85756497D01*
X137999431Y-85962732D01*
X137999432Y-85962734D01*
X138129954Y-86149141D01*
X138290858Y-86310045D01*
X138290861Y-86310047D01*
X138477266Y-86440568D01*
X138683504Y-86536739D01*
X138903308Y-86595635D01*
X139065230Y-86609801D01*
X139129998Y-86615468D01*
X139129999Y-86615468D01*
X139129999Y-86615467D01*
X139130000Y-86615468D01*
X139232492Y-86606500D01*
X139300989Y-86620266D01*
X139330979Y-86642347D01*
X141538181Y-88849548D01*
X141571666Y-88910871D01*
X141574500Y-88937229D01*
X141574500Y-94622298D01*
X141554815Y-94689337D01*
X141521625Y-94723872D01*
X141453595Y-94771507D01*
X141286505Y-94938597D01*
X141156575Y-95124158D01*
X141101998Y-95167783D01*
X141032500Y-95174977D01*
X140970145Y-95143454D01*
X140953425Y-95124158D01*
X140823494Y-94938597D01*
X140656404Y-94771507D01*
X140588375Y-94723872D01*
X140544751Y-94669294D01*
X140535500Y-94622298D01*
X140535500Y-89461079D01*
X140506659Y-89316092D01*
X140506658Y-89316091D01*
X140506658Y-89316087D01*
X140506656Y-89316082D01*
X140450087Y-89179511D01*
X140450085Y-89179507D01*
X140450084Y-89179505D01*
X140399861Y-89104341D01*
X140393713Y-89095139D01*
X140367954Y-89056586D01*
X137036819Y-85725451D01*
X137003334Y-85664128D01*
X137000500Y-85637770D01*
X137000500Y-83162135D01*
X157764500Y-83162135D01*
X157764500Y-83957870D01*
X157764501Y-83957876D01*
X157770908Y-84017483D01*
X157821222Y-84152381D01*
X157826206Y-84222073D01*
X157821222Y-84239046D01*
X157771403Y-84372617D01*
X157771401Y-84372627D01*
X157765000Y-84432155D01*
X157765000Y-84580000D01*
X160315000Y-84580000D01*
X160315000Y-84432172D01*
X160314999Y-84432155D01*
X160308598Y-84372627D01*
X160308597Y-84372623D01*
X160258776Y-84239049D01*
X160253792Y-84169358D01*
X160258776Y-84152381D01*
X160258793Y-84152334D01*
X160258796Y-84152331D01*
X160309091Y-84017483D01*
X160315500Y-83957873D01*
X160315499Y-83162128D01*
X160309091Y-83102517D01*
X160258796Y-82967669D01*
X160258795Y-82967668D01*
X160258793Y-82967664D01*
X160172547Y-82852455D01*
X160172544Y-82852452D01*
X160057335Y-82766206D01*
X160057328Y-82766202D01*
X159922482Y-82715908D01*
X159922483Y-82715908D01*
X159862883Y-82709501D01*
X159862881Y-82709500D01*
X159862873Y-82709500D01*
X159862864Y-82709500D01*
X158217129Y-82709500D01*
X158217123Y-82709501D01*
X158157516Y-82715908D01*
X158022671Y-82766202D01*
X158022664Y-82766206D01*
X157907455Y-82852452D01*
X157907452Y-82852455D01*
X157821206Y-82967664D01*
X157821202Y-82967671D01*
X157770908Y-83102517D01*
X157764501Y-83162116D01*
X157764501Y-83162123D01*
X157764500Y-83162135D01*
X137000500Y-83162135D01*
X137000500Y-78052229D01*
X137020185Y-77985190D01*
X137036814Y-77964553D01*
X138924652Y-76076714D01*
X138985973Y-76043231D01*
X139023135Y-76040869D01*
X139166366Y-76053400D01*
X139189999Y-76055468D01*
X139190000Y-76055468D01*
X139190002Y-76055468D01*
X139246673Y-76050509D01*
X139416692Y-76035635D01*
X139636496Y-75976739D01*
X139842734Y-75880568D01*
X140029139Y-75750047D01*
X140190047Y-75589139D01*
X140320568Y-75402734D01*
X140416739Y-75196496D01*
X140475635Y-74976692D01*
X140495468Y-74750000D01*
X140495468Y-74749998D01*
X145504532Y-74749998D01*
X145504532Y-74750001D01*
X145524364Y-74976686D01*
X145524366Y-74976697D01*
X145583258Y-75196488D01*
X145583261Y-75196497D01*
X145679431Y-75402732D01*
X145679432Y-75402734D01*
X145809954Y-75589141D01*
X145970858Y-75750045D01*
X145970861Y-75750047D01*
X146157266Y-75880568D01*
X146363504Y-75976739D01*
X146583308Y-76035635D01*
X146745230Y-76049801D01*
X146809998Y-76055468D01*
X146810000Y-76055468D01*
X146810002Y-76055468D01*
X146866673Y-76050509D01*
X147036692Y-76035635D01*
X147256496Y-75976739D01*
X147462734Y-75880568D01*
X147649139Y-75750047D01*
X147810047Y-75589139D01*
X147940568Y-75402734D01*
X147950192Y-75382094D01*
X147996363Y-75329657D01*
X148062574Y-75310500D01*
X150327649Y-75310500D01*
X150394688Y-75330185D01*
X150440443Y-75382989D01*
X150450939Y-75421248D01*
X150455908Y-75467483D01*
X150506202Y-75602328D01*
X150506206Y-75602335D01*
X150592452Y-75717544D01*
X150592455Y-75717547D01*
X150707664Y-75803793D01*
X150707671Y-75803797D01*
X150741709Y-75816492D01*
X150842517Y-75854091D01*
X150902127Y-75860500D01*
X150902153Y-75860499D01*
X150905453Y-75860678D01*
X150905372Y-75862183D01*
X150966672Y-75880112D01*
X151012483Y-75932867D01*
X151020016Y-75976464D01*
X151703553Y-76660000D01*
X151697339Y-76660000D01*
X151595606Y-76687259D01*
X151504394Y-76739920D01*
X151429920Y-76814394D01*
X151377259Y-76905606D01*
X151350000Y-77007339D01*
X151350000Y-77013552D01*
X150670974Y-76334526D01*
X150670973Y-76334526D01*
X150619868Y-76407512D01*
X150619866Y-76407516D01*
X150523734Y-76613673D01*
X150523730Y-76613682D01*
X150464860Y-76833389D01*
X150464858Y-76833400D01*
X150445034Y-77059997D01*
X150445034Y-77060002D01*
X150464858Y-77286599D01*
X150464860Y-77286610D01*
X150523730Y-77506317D01*
X150523735Y-77506331D01*
X150619863Y-77712478D01*
X150670974Y-77785472D01*
X151350000Y-77106446D01*
X151350000Y-77112661D01*
X151377259Y-77214394D01*
X151429920Y-77305606D01*
X151504394Y-77380080D01*
X151595606Y-77432741D01*
X151697339Y-77460000D01*
X151703553Y-77460000D01*
X151024526Y-78139025D01*
X151097513Y-78190132D01*
X151097521Y-78190136D01*
X151303668Y-78286264D01*
X151303682Y-78286269D01*
X151523389Y-78345139D01*
X151523400Y-78345141D01*
X151749998Y-78364966D01*
X151750002Y-78364966D01*
X151976599Y-78345141D01*
X151976610Y-78345139D01*
X152196317Y-78286269D01*
X152196331Y-78286264D01*
X152402478Y-78190136D01*
X152475471Y-78139024D01*
X151796447Y-77460000D01*
X151802661Y-77460000D01*
X151904394Y-77432741D01*
X151995606Y-77380080D01*
X152070080Y-77305606D01*
X152122741Y-77214394D01*
X152150000Y-77112661D01*
X152150000Y-77106447D01*
X152829024Y-77785471D01*
X152880136Y-77712478D01*
X152970895Y-77517844D01*
X157475000Y-77517844D01*
X157481401Y-77577372D01*
X157481403Y-77577379D01*
X157531645Y-77712086D01*
X157531649Y-77712093D01*
X157617809Y-77827187D01*
X157617812Y-77827190D01*
X157732906Y-77913350D01*
X157732913Y-77913354D01*
X157867620Y-77963596D01*
X157867627Y-77963598D01*
X157927155Y-77969999D01*
X157927172Y-77970000D01*
X158500000Y-77970000D01*
X159000000Y-77970000D01*
X159572828Y-77970000D01*
X159572844Y-77969999D01*
X159632372Y-77963598D01*
X159632379Y-77963596D01*
X159767086Y-77913354D01*
X159767093Y-77913350D01*
X159882187Y-77827190D01*
X159882190Y-77827187D01*
X159968350Y-77712093D01*
X159968354Y-77712086D01*
X160018596Y-77577379D01*
X160018598Y-77577372D01*
X160024999Y-77517844D01*
X160025000Y-77517827D01*
X160025000Y-77370000D01*
X159000000Y-77370000D01*
X159000000Y-77970000D01*
X158500000Y-77970000D01*
X158500000Y-77370000D01*
X157475000Y-77370000D01*
X157475000Y-77517844D01*
X152970895Y-77517844D01*
X152976264Y-77506331D01*
X152976269Y-77506317D01*
X153035139Y-77286610D01*
X153035141Y-77286599D01*
X153054966Y-77060002D01*
X153054966Y-77059997D01*
X153035141Y-76833400D01*
X153035139Y-76833389D01*
X153014562Y-76756593D01*
X153016225Y-76686743D01*
X153055388Y-76628881D01*
X153119616Y-76601377D01*
X153134337Y-76600500D01*
X157351000Y-76600500D01*
X157418039Y-76620185D01*
X157463794Y-76672989D01*
X157475000Y-76724500D01*
X157475000Y-76870000D01*
X160025000Y-76870000D01*
X160025000Y-76722172D01*
X160024999Y-76722155D01*
X160018598Y-76662627D01*
X160018597Y-76662623D01*
X159968776Y-76529049D01*
X159963792Y-76459358D01*
X159968776Y-76442381D01*
X159968793Y-76442334D01*
X159968796Y-76442331D01*
X160019091Y-76307483D01*
X160025500Y-76247873D01*
X160025499Y-75452128D01*
X160019091Y-75392517D01*
X159968796Y-75257669D01*
X159968793Y-75257665D01*
X159968776Y-75257619D01*
X159963792Y-75187927D01*
X159968776Y-75170951D01*
X160018597Y-75037376D01*
X160018598Y-75037372D01*
X160024999Y-74977844D01*
X160025000Y-74977827D01*
X160025000Y-74830000D01*
X157475000Y-74830000D01*
X157475000Y-74975500D01*
X157455315Y-75042539D01*
X157402511Y-75088294D01*
X157351000Y-75099500D01*
X153402229Y-75099500D01*
X153335190Y-75079815D01*
X153314548Y-75063181D01*
X153086818Y-74835451D01*
X153053333Y-74774128D01*
X153050499Y-74747770D01*
X153050499Y-73712129D01*
X153050498Y-73712123D01*
X153050042Y-73707883D01*
X153044091Y-73652517D01*
X153031945Y-73619953D01*
X152993797Y-73517671D01*
X152993793Y-73517664D01*
X152907547Y-73402455D01*
X152907544Y-73402452D01*
X152792335Y-73316206D01*
X152792328Y-73316202D01*
X152657482Y-73265908D01*
X152657483Y-73265908D01*
X152597883Y-73259501D01*
X152597881Y-73259500D01*
X152597873Y-73259500D01*
X152597864Y-73259500D01*
X150902129Y-73259500D01*
X150902123Y-73259501D01*
X150842516Y-73265908D01*
X150707671Y-73316202D01*
X150707664Y-73316206D01*
X150592455Y-73402452D01*
X150592452Y-73402455D01*
X150506206Y-73517664D01*
X150506202Y-73517671D01*
X150468054Y-73619954D01*
X150455909Y-73652517D01*
X150450937Y-73698757D01*
X150424201Y-73763306D01*
X150366809Y-73803154D01*
X150327649Y-73809500D01*
X147760049Y-73809500D01*
X147693010Y-73789815D01*
X147672368Y-73773181D01*
X147649141Y-73749954D01*
X147462734Y-73619432D01*
X147462732Y-73619431D01*
X147256497Y-73523261D01*
X147256488Y-73523258D01*
X147036697Y-73464366D01*
X147036693Y-73464365D01*
X147036692Y-73464365D01*
X147036691Y-73464364D01*
X147036686Y-73464364D01*
X146810002Y-73444532D01*
X146809998Y-73444532D01*
X146583313Y-73464364D01*
X146583302Y-73464366D01*
X146363511Y-73523258D01*
X146363502Y-73523261D01*
X146157267Y-73619431D01*
X146157265Y-73619432D01*
X145970858Y-73749954D01*
X145809954Y-73910858D01*
X145679432Y-74097265D01*
X145679431Y-74097267D01*
X145583261Y-74303502D01*
X145583258Y-74303511D01*
X145524366Y-74523302D01*
X145524364Y-74523313D01*
X145504532Y-74749998D01*
X140495468Y-74749998D01*
X140475635Y-74523308D01*
X140416739Y-74303504D01*
X140320568Y-74097266D01*
X140203448Y-73930000D01*
X140190045Y-73910858D01*
X140029141Y-73749954D01*
X139842734Y-73619432D01*
X139842732Y-73619431D01*
X139636497Y-73523261D01*
X139636488Y-73523258D01*
X139416697Y-73464366D01*
X139416693Y-73464365D01*
X139416692Y-73464365D01*
X139416691Y-73464364D01*
X139416686Y-73464364D01*
X139190002Y-73444532D01*
X139189998Y-73444532D01*
X138963313Y-73464364D01*
X138963302Y-73464366D01*
X138743511Y-73523258D01*
X138743502Y-73523261D01*
X138537267Y-73619431D01*
X138537265Y-73619432D01*
X138350858Y-73749954D01*
X138189954Y-73910858D01*
X138059432Y-74097265D01*
X138059431Y-74097267D01*
X137963261Y-74303502D01*
X137963258Y-74303511D01*
X137904366Y-74523302D01*
X137904364Y-74523313D01*
X137884532Y-74749998D01*
X137884532Y-74750003D01*
X137899129Y-74916861D01*
X137885362Y-74985360D01*
X137863282Y-75015348D01*
X135667049Y-77211581D01*
X135626957Y-77271583D01*
X135626958Y-77271584D01*
X135584914Y-77334508D01*
X135528343Y-77471082D01*
X135528340Y-77471092D01*
X135499500Y-77616079D01*
X135499500Y-77616082D01*
X135499500Y-86073918D01*
X135499500Y-86073920D01*
X135499499Y-86073920D01*
X135528340Y-86218907D01*
X135528343Y-86218917D01*
X135584914Y-86355492D01*
X135617812Y-86404727D01*
X135617813Y-86404730D01*
X135667046Y-86478414D01*
X135667052Y-86478421D01*
X138998181Y-89809549D01*
X139031666Y-89870872D01*
X139034500Y-89897230D01*
X139034500Y-94622298D01*
X139014815Y-94689337D01*
X138981625Y-94723872D01*
X138913595Y-94771507D01*
X138746505Y-94938597D01*
X138616575Y-95124158D01*
X138561998Y-95167783D01*
X138492500Y-95174977D01*
X138430145Y-95143454D01*
X138413425Y-95124158D01*
X138283494Y-94938597D01*
X138116404Y-94771507D01*
X138048375Y-94723872D01*
X138004751Y-94669294D01*
X137995500Y-94622298D01*
X137995500Y-90421079D01*
X137966659Y-90276092D01*
X137966658Y-90276091D01*
X137966658Y-90276087D01*
X137945326Y-90224586D01*
X137910087Y-90139511D01*
X137910080Y-90139498D01*
X137827952Y-90016585D01*
X137789777Y-89978410D01*
X137723416Y-89912049D01*
X135286819Y-87475451D01*
X135253334Y-87414128D01*
X135250500Y-87387770D01*
X135250500Y-72912135D01*
X157474500Y-72912135D01*
X157474500Y-73707870D01*
X157474501Y-73707876D01*
X157480908Y-73767483D01*
X157531222Y-73902381D01*
X157536206Y-73972073D01*
X157531222Y-73989046D01*
X157481403Y-74122617D01*
X157481401Y-74122627D01*
X157475000Y-74182155D01*
X157475000Y-74330000D01*
X160025000Y-74330000D01*
X160025000Y-74182172D01*
X160024999Y-74182155D01*
X160018598Y-74122627D01*
X160018597Y-74122623D01*
X159968776Y-73989049D01*
X159963792Y-73919358D01*
X159968776Y-73902381D01*
X159968793Y-73902334D01*
X159968796Y-73902331D01*
X160019091Y-73767483D01*
X160025500Y-73707873D01*
X160025499Y-72912128D01*
X160019091Y-72852517D01*
X159983079Y-72755965D01*
X159968797Y-72717671D01*
X159968793Y-72717664D01*
X159882547Y-72602455D01*
X159882544Y-72602452D01*
X159767335Y-72516206D01*
X159767328Y-72516202D01*
X159632482Y-72465908D01*
X159632483Y-72465908D01*
X159572883Y-72459501D01*
X159572881Y-72459500D01*
X159572873Y-72459500D01*
X159572864Y-72459500D01*
X157927129Y-72459500D01*
X157927123Y-72459501D01*
X157867516Y-72465908D01*
X157732671Y-72516202D01*
X157732664Y-72516206D01*
X157617455Y-72602452D01*
X157617452Y-72602455D01*
X157531206Y-72717664D01*
X157531202Y-72717671D01*
X157480908Y-72852517D01*
X157476717Y-72891505D01*
X157474501Y-72912123D01*
X157474500Y-72912135D01*
X135250500Y-72912135D01*
X135250500Y-69302229D01*
X135270185Y-69235190D01*
X135286819Y-69214548D01*
X137101937Y-67399430D01*
X138924652Y-65576714D01*
X138985973Y-65543231D01*
X139023135Y-65540869D01*
X139166366Y-65553400D01*
X139189999Y-65555468D01*
X139190000Y-65555468D01*
X139190002Y-65555468D01*
X139246673Y-65550509D01*
X139416692Y-65535635D01*
X139636496Y-65476739D01*
X139842734Y-65380568D01*
X140029139Y-65250047D01*
X140190047Y-65089139D01*
X140320568Y-64902734D01*
X140416739Y-64696496D01*
X140475635Y-64476692D01*
X140495468Y-64250000D01*
X140495468Y-64249998D01*
X145504532Y-64249998D01*
X145504532Y-64250001D01*
X145524364Y-64476686D01*
X145524366Y-64476697D01*
X145583258Y-64696488D01*
X145583261Y-64696497D01*
X145679431Y-64902732D01*
X145679432Y-64902734D01*
X145809954Y-65089141D01*
X145970858Y-65250045D01*
X145970861Y-65250047D01*
X146157266Y-65380568D01*
X146363504Y-65476739D01*
X146583308Y-65535635D01*
X146745230Y-65549801D01*
X146809998Y-65555468D01*
X146810000Y-65555468D01*
X146810002Y-65555468D01*
X146866673Y-65550509D01*
X147036692Y-65535635D01*
X147256496Y-65476739D01*
X147462734Y-65380568D01*
X147649139Y-65250047D01*
X147810047Y-65089139D01*
X147940568Y-64902734D01*
X148036739Y-64696496D01*
X148095635Y-64476692D01*
X148100272Y-64423692D01*
X148125725Y-64358623D01*
X148182316Y-64317645D01*
X148223800Y-64310500D01*
X150327649Y-64310500D01*
X150394688Y-64330185D01*
X150440443Y-64382989D01*
X150450939Y-64421248D01*
X150455908Y-64467483D01*
X150506202Y-64602328D01*
X150506206Y-64602335D01*
X150592452Y-64717544D01*
X150592455Y-64717547D01*
X150707664Y-64803793D01*
X150707671Y-64803797D01*
X150752618Y-64820561D01*
X150842517Y-64854091D01*
X150902127Y-64860500D01*
X150902153Y-64860499D01*
X150905453Y-64860678D01*
X150905372Y-64862183D01*
X150966672Y-64880112D01*
X151012483Y-64932867D01*
X151020016Y-64976464D01*
X151703553Y-65660000D01*
X151697339Y-65660000D01*
X151595606Y-65687259D01*
X151504394Y-65739920D01*
X151429920Y-65814394D01*
X151377259Y-65905606D01*
X151350000Y-66007339D01*
X151350000Y-66013552D01*
X150670974Y-65334526D01*
X150670973Y-65334526D01*
X150619868Y-65407512D01*
X150619866Y-65407516D01*
X150523734Y-65613673D01*
X150523730Y-65613682D01*
X150464860Y-65833389D01*
X150464858Y-65833400D01*
X150445034Y-66059997D01*
X150445034Y-66060002D01*
X150464858Y-66286599D01*
X150464860Y-66286610D01*
X150523730Y-66506317D01*
X150523735Y-66506331D01*
X150619863Y-66712478D01*
X150670974Y-66785472D01*
X151350000Y-66106446D01*
X151350000Y-66112661D01*
X151377259Y-66214394D01*
X151429920Y-66305606D01*
X151504394Y-66380080D01*
X151595606Y-66432741D01*
X151697339Y-66460000D01*
X151703553Y-66460000D01*
X151024526Y-67139025D01*
X151097513Y-67190132D01*
X151097521Y-67190136D01*
X151303668Y-67286264D01*
X151303682Y-67286269D01*
X151523389Y-67345139D01*
X151523400Y-67345141D01*
X151749998Y-67364966D01*
X151750002Y-67364966D01*
X151976599Y-67345141D01*
X151976610Y-67345139D01*
X152196317Y-67286269D01*
X152196331Y-67286264D01*
X152402478Y-67190136D01*
X152475471Y-67139024D01*
X151796447Y-66460000D01*
X151802661Y-66460000D01*
X151904394Y-66432741D01*
X151995606Y-66380080D01*
X152070080Y-66305606D01*
X152122741Y-66214394D01*
X152150000Y-66112661D01*
X152150000Y-66106447D01*
X152829024Y-66785471D01*
X152880136Y-66712478D01*
X152976264Y-66506331D01*
X152976269Y-66506317D01*
X152989257Y-66457844D01*
X157475000Y-66457844D01*
X157481401Y-66517372D01*
X157481403Y-66517379D01*
X157531645Y-66652086D01*
X157531649Y-66652093D01*
X157617809Y-66767187D01*
X157617812Y-66767190D01*
X157732906Y-66853350D01*
X157732913Y-66853354D01*
X157867620Y-66903596D01*
X157867627Y-66903598D01*
X157927155Y-66909999D01*
X157927172Y-66910000D01*
X158500000Y-66910000D01*
X159000000Y-66910000D01*
X159572828Y-66910000D01*
X159572844Y-66909999D01*
X159632372Y-66903598D01*
X159632379Y-66903596D01*
X159767086Y-66853354D01*
X159767093Y-66853350D01*
X159882187Y-66767190D01*
X159882190Y-66767187D01*
X159968350Y-66652093D01*
X159968354Y-66652086D01*
X160018596Y-66517379D01*
X160018598Y-66517372D01*
X160024999Y-66457844D01*
X160025000Y-66457827D01*
X160025000Y-66310000D01*
X159000000Y-66310000D01*
X159000000Y-66910000D01*
X158500000Y-66910000D01*
X158500000Y-66310000D01*
X157475000Y-66310000D01*
X157475000Y-66457844D01*
X152989257Y-66457844D01*
X153035139Y-66286610D01*
X153035141Y-66286599D01*
X153054966Y-66060002D01*
X153054966Y-66059997D01*
X153035141Y-65833400D01*
X153035139Y-65833389D01*
X152976269Y-65613682D01*
X152976264Y-65613668D01*
X152880136Y-65407521D01*
X152880132Y-65407513D01*
X152829025Y-65334526D01*
X152150000Y-66013551D01*
X152150000Y-66007339D01*
X152122741Y-65905606D01*
X152070080Y-65814394D01*
X151995606Y-65739920D01*
X151904394Y-65687259D01*
X151802661Y-65660000D01*
X151796448Y-65660000D01*
X152480645Y-64975801D01*
X152490492Y-64926807D01*
X152539107Y-64876624D01*
X152594633Y-64861981D01*
X152594576Y-64860900D01*
X152594571Y-64860854D01*
X152594573Y-64860853D01*
X152594564Y-64860676D01*
X152597857Y-64860499D01*
X152597872Y-64860499D01*
X152657483Y-64854091D01*
X152792331Y-64803796D01*
X152844598Y-64764668D01*
X152910058Y-64740252D01*
X152978332Y-64755103D01*
X153006584Y-64776252D01*
X153603285Y-65372952D01*
X153603288Y-65372954D01*
X153617324Y-65382333D01*
X153617323Y-65382333D01*
X153726202Y-65455083D01*
X153726206Y-65455085D01*
X153778484Y-65476739D01*
X153778485Y-65476739D01*
X153862788Y-65511659D01*
X153969379Y-65532861D01*
X153994981Y-65537953D01*
X154007781Y-65540500D01*
X154007782Y-65540500D01*
X154007783Y-65540500D01*
X154155618Y-65540500D01*
X157351000Y-65540500D01*
X157418039Y-65560185D01*
X157463794Y-65612989D01*
X157475000Y-65664500D01*
X157475000Y-65810000D01*
X160025000Y-65810000D01*
X160025000Y-65662172D01*
X160024999Y-65662155D01*
X160018598Y-65602627D01*
X160018597Y-65602623D01*
X159968776Y-65469049D01*
X159963792Y-65399358D01*
X159968776Y-65382381D01*
X159968793Y-65382334D01*
X159968796Y-65382331D01*
X160019091Y-65247483D01*
X160025500Y-65187873D01*
X160025499Y-64392128D01*
X160019091Y-64332517D01*
X159968796Y-64197669D01*
X159968793Y-64197665D01*
X159968776Y-64197619D01*
X159963792Y-64127927D01*
X159968776Y-64110951D01*
X160018597Y-63977376D01*
X160018598Y-63977372D01*
X160024999Y-63917844D01*
X160025000Y-63917827D01*
X160025000Y-63770000D01*
X157475000Y-63770000D01*
X157475000Y-63915500D01*
X157455315Y-63982539D01*
X157402511Y-64028294D01*
X157351000Y-64039500D01*
X154443929Y-64039500D01*
X154376890Y-64019815D01*
X154356248Y-64003181D01*
X153848248Y-63495181D01*
X153330116Y-62977048D01*
X153330115Y-62977047D01*
X153330113Y-62977045D01*
X153275325Y-62940439D01*
X153256213Y-62927669D01*
X153207195Y-62894916D01*
X153207194Y-62894915D01*
X153207192Y-62894914D01*
X153127046Y-62861717D01*
X153072643Y-62817876D01*
X153050578Y-62751582D01*
X153050499Y-62747156D01*
X153050499Y-62712129D01*
X153050498Y-62712123D01*
X153049999Y-62707483D01*
X153044091Y-62652517D01*
X153033653Y-62624532D01*
X152993797Y-62517671D01*
X152993793Y-62517664D01*
X152907547Y-62402455D01*
X152907544Y-62402452D01*
X152792335Y-62316206D01*
X152792328Y-62316202D01*
X152657482Y-62265908D01*
X152657483Y-62265908D01*
X152597883Y-62259501D01*
X152597881Y-62259500D01*
X152597873Y-62259500D01*
X152597864Y-62259500D01*
X150902129Y-62259500D01*
X150902123Y-62259501D01*
X150842516Y-62265908D01*
X150707671Y-62316202D01*
X150707664Y-62316206D01*
X150592455Y-62402452D01*
X150592452Y-62402455D01*
X150506206Y-62517664D01*
X150506202Y-62517671D01*
X150457637Y-62647883D01*
X150455909Y-62652517D01*
X150450937Y-62698757D01*
X150424201Y-62763306D01*
X150366809Y-62803154D01*
X150327649Y-62809500D01*
X147426080Y-62809500D01*
X147281092Y-62838340D01*
X147281082Y-62838343D01*
X147144508Y-62894914D01*
X147076374Y-62940439D01*
X147009696Y-62961316D01*
X146996677Y-62960864D01*
X146810002Y-62944532D01*
X146809998Y-62944532D01*
X146583313Y-62964364D01*
X146583302Y-62964366D01*
X146363511Y-63023258D01*
X146363502Y-63023261D01*
X146157267Y-63119431D01*
X146157265Y-63119432D01*
X145970858Y-63249954D01*
X145809954Y-63410858D01*
X145679432Y-63597265D01*
X145679431Y-63597267D01*
X145583261Y-63803502D01*
X145583258Y-63803511D01*
X145524366Y-64023302D01*
X145524364Y-64023313D01*
X145504532Y-64249998D01*
X140495468Y-64249998D01*
X140491710Y-64207051D01*
X140484788Y-64127927D01*
X140475635Y-64023308D01*
X140416739Y-63803504D01*
X140320568Y-63597266D01*
X140190047Y-63410861D01*
X140190045Y-63410858D01*
X140029141Y-63249954D01*
X139842734Y-63119432D01*
X139842732Y-63119431D01*
X139636497Y-63023261D01*
X139636488Y-63023258D01*
X139416697Y-62964366D01*
X139416693Y-62964365D01*
X139416692Y-62964365D01*
X139416691Y-62964364D01*
X139416686Y-62964364D01*
X139190002Y-62944532D01*
X139189998Y-62944532D01*
X138963313Y-62964364D01*
X138963302Y-62964366D01*
X138743511Y-63023258D01*
X138743502Y-63023261D01*
X138537267Y-63119431D01*
X138537265Y-63119432D01*
X138350858Y-63249954D01*
X138189954Y-63410858D01*
X138059432Y-63597265D01*
X138059431Y-63597267D01*
X137963261Y-63803502D01*
X137963258Y-63803511D01*
X137904366Y-64023302D01*
X137904364Y-64023313D01*
X137884532Y-64249998D01*
X137884532Y-64250003D01*
X137899129Y-64416861D01*
X137885362Y-64485360D01*
X137863282Y-64515348D01*
X133917047Y-68461584D01*
X133906025Y-68478080D01*
X133895051Y-68494506D01*
X133870608Y-68531088D01*
X133834915Y-68584506D01*
X133834914Y-68584506D01*
X133778343Y-68721082D01*
X133778340Y-68721092D01*
X133749500Y-68866079D01*
X133749500Y-68866082D01*
X133749500Y-87823918D01*
X133749500Y-87823920D01*
X133749499Y-87823920D01*
X133778340Y-87968907D01*
X133778343Y-87968917D01*
X133834914Y-88105492D01*
X133867812Y-88154727D01*
X133867813Y-88154730D01*
X133917046Y-88228414D01*
X133917052Y-88228421D01*
X136458181Y-90769548D01*
X136491666Y-90830871D01*
X136494500Y-90857229D01*
X136494500Y-94622298D01*
X136474815Y-94689337D01*
X136441625Y-94723872D01*
X136373595Y-94771507D01*
X136206505Y-94938597D01*
X136076575Y-95124158D01*
X136021998Y-95167783D01*
X135952500Y-95174977D01*
X135890145Y-95143454D01*
X135873425Y-95124158D01*
X135743494Y-94938597D01*
X135576404Y-94771507D01*
X135508375Y-94723872D01*
X135464751Y-94669294D01*
X135455500Y-94622298D01*
X135455500Y-91381081D01*
X135455499Y-91381080D01*
X135445618Y-91331401D01*
X135426659Y-91236088D01*
X135372408Y-91105117D01*
X135370764Y-91100522D01*
X135287954Y-90976588D01*
X135287953Y-90976587D01*
X135287951Y-90976584D01*
X135183416Y-90872049D01*
X133536819Y-89225451D01*
X133503334Y-89164128D01*
X133500500Y-89137770D01*
X133500500Y-61852135D01*
X157474500Y-61852135D01*
X157474500Y-62647870D01*
X157474501Y-62647876D01*
X157480908Y-62707483D01*
X157531222Y-62842381D01*
X157536206Y-62912073D01*
X157531222Y-62929046D01*
X157481403Y-63062617D01*
X157481401Y-63062627D01*
X157475000Y-63122155D01*
X157475000Y-63270000D01*
X160025000Y-63270000D01*
X160025000Y-63122172D01*
X160024999Y-63122155D01*
X160018598Y-63062627D01*
X160018597Y-63062623D01*
X159968776Y-62929049D01*
X159963792Y-62859358D01*
X159968776Y-62842381D01*
X159968793Y-62842334D01*
X159968796Y-62842331D01*
X160019091Y-62707483D01*
X160025500Y-62647873D01*
X160025499Y-61852128D01*
X160019091Y-61792517D01*
X159968796Y-61657669D01*
X159968795Y-61657668D01*
X159968793Y-61657664D01*
X159882547Y-61542455D01*
X159882544Y-61542452D01*
X159767335Y-61456206D01*
X159767328Y-61456202D01*
X159632482Y-61405908D01*
X159632483Y-61405908D01*
X159572883Y-61399501D01*
X159572881Y-61399500D01*
X159572873Y-61399500D01*
X159572864Y-61399500D01*
X157927129Y-61399500D01*
X157927123Y-61399501D01*
X157867516Y-61405908D01*
X157732671Y-61456202D01*
X157732664Y-61456206D01*
X157617455Y-61542452D01*
X157617452Y-61542455D01*
X157531206Y-61657664D01*
X157531202Y-61657671D01*
X157480908Y-61792517D01*
X157474501Y-61852116D01*
X157474501Y-61852123D01*
X157474500Y-61852135D01*
X133500500Y-61852135D01*
X133500500Y-60302229D01*
X133520185Y-60235190D01*
X133536819Y-60214548D01*
X136441322Y-57310045D01*
X139424652Y-54326714D01*
X139485973Y-54293231D01*
X139523135Y-54290869D01*
X139666366Y-54303400D01*
X139689999Y-54305468D01*
X139690000Y-54305468D01*
X139690002Y-54305468D01*
X139746673Y-54300509D01*
X139916692Y-54285635D01*
X140136496Y-54226739D01*
X140342734Y-54130568D01*
X140529139Y-54000047D01*
X140690047Y-53839139D01*
X140820568Y-53652734D01*
X140916739Y-53446496D01*
X140975635Y-53226692D01*
X140993976Y-53017050D01*
X140995468Y-53000001D01*
X140995468Y-52999998D01*
X146004532Y-52999998D01*
X146004532Y-53000001D01*
X146024364Y-53226686D01*
X146024366Y-53226697D01*
X146083258Y-53446488D01*
X146083261Y-53446497D01*
X146179431Y-53652732D01*
X146179432Y-53652734D01*
X146309954Y-53839141D01*
X146470858Y-54000045D01*
X146470861Y-54000047D01*
X146657266Y-54130568D01*
X146863504Y-54226739D01*
X146863509Y-54226740D01*
X146863511Y-54226741D01*
X146898373Y-54236082D01*
X147083308Y-54285635D01*
X147245230Y-54299801D01*
X147309998Y-54305468D01*
X147310000Y-54305468D01*
X147310002Y-54305468D01*
X147366673Y-54300509D01*
X147536692Y-54285635D01*
X147756496Y-54226739D01*
X147962734Y-54130568D01*
X148149139Y-54000047D01*
X148310047Y-53839139D01*
X148440568Y-53652734D01*
X148536739Y-53446496D01*
X148548553Y-53402406D01*
X148584918Y-53342746D01*
X148647765Y-53312217D01*
X148668328Y-53310500D01*
X149638770Y-53310500D01*
X149705809Y-53330185D01*
X149751564Y-53382989D01*
X149761508Y-53452147D01*
X149732483Y-53515703D01*
X149726451Y-53522181D01*
X149417047Y-53831584D01*
X149404018Y-53851084D01*
X149391046Y-53870500D01*
X149376582Y-53892147D01*
X149334914Y-53954507D01*
X149278343Y-54091082D01*
X149278340Y-54091092D01*
X149249500Y-54236079D01*
X149249500Y-54236082D01*
X149249500Y-55823918D01*
X149249500Y-55823920D01*
X149249499Y-55823920D01*
X149278340Y-55968907D01*
X149278343Y-55968917D01*
X149334914Y-56105492D01*
X149334915Y-56105494D01*
X149334916Y-56105495D01*
X149360067Y-56143137D01*
X149367812Y-56154727D01*
X149367813Y-56154730D01*
X149417046Y-56228414D01*
X149417052Y-56228421D01*
X150417049Y-57228416D01*
X150521584Y-57332951D01*
X150521587Y-57332953D01*
X150521588Y-57332954D01*
X150644503Y-57415083D01*
X150644506Y-57415085D01*
X150701079Y-57438518D01*
X150701080Y-57438518D01*
X150781088Y-57471659D01*
X150897241Y-57494763D01*
X150916468Y-57498587D01*
X150926081Y-57500500D01*
X150926082Y-57500500D01*
X152815420Y-57500500D01*
X152912962Y-57481096D01*
X152960413Y-57471658D01*
X153096995Y-57415084D01*
X153146229Y-57382186D01*
X153219916Y-57332952D01*
X155285024Y-55267844D01*
X157515000Y-55267844D01*
X157521401Y-55327372D01*
X157521403Y-55327379D01*
X157571645Y-55462086D01*
X157571649Y-55462093D01*
X157657809Y-55577187D01*
X157657812Y-55577190D01*
X157772906Y-55663350D01*
X157772913Y-55663354D01*
X157907620Y-55713596D01*
X157907627Y-55713598D01*
X157967155Y-55719999D01*
X157967172Y-55720000D01*
X158540000Y-55720000D01*
X159040000Y-55720000D01*
X159612828Y-55720000D01*
X159612844Y-55719999D01*
X159672372Y-55713598D01*
X159672379Y-55713596D01*
X159807086Y-55663354D01*
X159807093Y-55663350D01*
X159922187Y-55577190D01*
X159922190Y-55577187D01*
X160008350Y-55462093D01*
X160008354Y-55462086D01*
X160058596Y-55327379D01*
X160058598Y-55327372D01*
X160064999Y-55267844D01*
X160065000Y-55267827D01*
X160065000Y-55120000D01*
X159040000Y-55120000D01*
X159040000Y-55720000D01*
X158540000Y-55720000D01*
X158540000Y-55120000D01*
X157515000Y-55120000D01*
X157515000Y-55267844D01*
X155285024Y-55267844D01*
X156166049Y-54386819D01*
X156227372Y-54353334D01*
X156253730Y-54350500D01*
X157391000Y-54350500D01*
X157458039Y-54370185D01*
X157503794Y-54422989D01*
X157515000Y-54474500D01*
X157515000Y-54620000D01*
X160065000Y-54620000D01*
X160065000Y-54472172D01*
X160064999Y-54472155D01*
X160058598Y-54412627D01*
X160058597Y-54412623D01*
X160008776Y-54279049D01*
X160003792Y-54209358D01*
X160008776Y-54192381D01*
X160008793Y-54192334D01*
X160008796Y-54192331D01*
X160059091Y-54057483D01*
X160065500Y-53997873D01*
X160065499Y-53202128D01*
X160059091Y-53142517D01*
X160008796Y-53007669D01*
X160008793Y-53007665D01*
X160008776Y-53007619D01*
X160003792Y-52937927D01*
X160008776Y-52920951D01*
X160058597Y-52787376D01*
X160058598Y-52787372D01*
X160064999Y-52727844D01*
X160065000Y-52727827D01*
X160065000Y-52580000D01*
X157515000Y-52580000D01*
X157515000Y-52725500D01*
X157495315Y-52792539D01*
X157442511Y-52838294D01*
X157391000Y-52849500D01*
X155817576Y-52849500D01*
X155788742Y-52855234D01*
X155788743Y-52855235D01*
X155672592Y-52878339D01*
X155672586Y-52878341D01*
X155617672Y-52901088D01*
X155536009Y-52934914D01*
X155535996Y-52934921D01*
X155486769Y-52967813D01*
X155413088Y-53017044D01*
X155413080Y-53017050D01*
X153265650Y-55164480D01*
X153204327Y-55197965D01*
X153134635Y-55192981D01*
X153078702Y-55151109D01*
X153054285Y-55085645D01*
X153054442Y-55065982D01*
X153054966Y-55059998D01*
X153054966Y-55059997D01*
X153035141Y-54833400D01*
X153035139Y-54833389D01*
X152976269Y-54613682D01*
X152976264Y-54613668D01*
X152880136Y-54407521D01*
X152880132Y-54407513D01*
X152829025Y-54334526D01*
X152150000Y-55013551D01*
X152150000Y-55007339D01*
X152122741Y-54905606D01*
X152070080Y-54814394D01*
X151995606Y-54739920D01*
X151904394Y-54687259D01*
X151802661Y-54660000D01*
X151796447Y-54660000D01*
X152480645Y-53975801D01*
X152490492Y-53926807D01*
X152539107Y-53876624D01*
X152594633Y-53861981D01*
X152594576Y-53860900D01*
X152594571Y-53860854D01*
X152594573Y-53860853D01*
X152594564Y-53860676D01*
X152597857Y-53860499D01*
X152597872Y-53860499D01*
X152657483Y-53854091D01*
X152792331Y-53803796D01*
X152907546Y-53717546D01*
X152993796Y-53602331D01*
X153044091Y-53467483D01*
X153050500Y-53407873D01*
X153050499Y-51712128D01*
X153044091Y-51652517D01*
X153044040Y-51652381D01*
X152993797Y-51517671D01*
X152993793Y-51517664D01*
X152907547Y-51402455D01*
X152907544Y-51402452D01*
X152792335Y-51316206D01*
X152792328Y-51316202D01*
X152657482Y-51265908D01*
X152657483Y-51265908D01*
X152597883Y-51259501D01*
X152597881Y-51259500D01*
X152597873Y-51259500D01*
X152597864Y-51259500D01*
X150902129Y-51259500D01*
X150902123Y-51259501D01*
X150842516Y-51265908D01*
X150707671Y-51316202D01*
X150707664Y-51316206D01*
X150592455Y-51402452D01*
X150592452Y-51402455D01*
X150506206Y-51517664D01*
X150506202Y-51517671D01*
X150455910Y-51652513D01*
X150455909Y-51652517D01*
X150450937Y-51698757D01*
X150424201Y-51763306D01*
X150366809Y-51803154D01*
X150327649Y-51809500D01*
X147861700Y-51809500D01*
X147809295Y-51797882D01*
X147756497Y-51773261D01*
X147756488Y-51773258D01*
X147536697Y-51714366D01*
X147536693Y-51714365D01*
X147536692Y-51714365D01*
X147536691Y-51714364D01*
X147536686Y-51714364D01*
X147310002Y-51694532D01*
X147309998Y-51694532D01*
X147083313Y-51714364D01*
X147083302Y-51714366D01*
X146863511Y-51773258D01*
X146863502Y-51773261D01*
X146657267Y-51869431D01*
X146657265Y-51869432D01*
X146470858Y-51999954D01*
X146309954Y-52160858D01*
X146179432Y-52347265D01*
X146179431Y-52347267D01*
X146083261Y-52553502D01*
X146083258Y-52553511D01*
X146024366Y-52773302D01*
X146024364Y-52773313D01*
X146004532Y-52999998D01*
X140995468Y-52999998D01*
X140984824Y-52878339D01*
X140975635Y-52773308D01*
X140916739Y-52553504D01*
X140820568Y-52347266D01*
X140690047Y-52160861D01*
X140690045Y-52160858D01*
X140529141Y-51999954D01*
X140342734Y-51869432D01*
X140342732Y-51869431D01*
X140136497Y-51773261D01*
X140136488Y-51773258D01*
X139916697Y-51714366D01*
X139916693Y-51714365D01*
X139916692Y-51714365D01*
X139916691Y-51714364D01*
X139916686Y-51714364D01*
X139690002Y-51694532D01*
X139689998Y-51694532D01*
X139463313Y-51714364D01*
X139463302Y-51714366D01*
X139243511Y-51773258D01*
X139243502Y-51773261D01*
X139037267Y-51869431D01*
X139037265Y-51869432D01*
X138850858Y-51999954D01*
X138689954Y-52160858D01*
X138664912Y-52196623D01*
X138610335Y-52240248D01*
X138563337Y-52249500D01*
X130020048Y-52249500D01*
X129953009Y-52229815D01*
X129932371Y-52213185D01*
X129839139Y-52119953D01*
X129839138Y-52119952D01*
X129839137Y-52119951D01*
X129652734Y-51989432D01*
X129652732Y-51989431D01*
X129446497Y-51893261D01*
X129446488Y-51893258D01*
X129226697Y-51834366D01*
X129226693Y-51834365D01*
X129226692Y-51834365D01*
X129226691Y-51834364D01*
X129226686Y-51834364D01*
X129000002Y-51814532D01*
X128999998Y-51814532D01*
X128773313Y-51834364D01*
X128773302Y-51834366D01*
X128553511Y-51893258D01*
X128553502Y-51893261D01*
X128347267Y-51989431D01*
X128347265Y-51989432D01*
X128160858Y-52119954D01*
X127999954Y-52280858D01*
X127976075Y-52314962D01*
X127921498Y-52358587D01*
X127852000Y-52365781D01*
X127789645Y-52334258D01*
X127754231Y-52274029D01*
X127750500Y-52243839D01*
X127750500Y-50662135D01*
X157514500Y-50662135D01*
X157514500Y-51457870D01*
X157514501Y-51457876D01*
X157520908Y-51517483D01*
X157571222Y-51652381D01*
X157576206Y-51722073D01*
X157571222Y-51739046D01*
X157521403Y-51872617D01*
X157521401Y-51872627D01*
X157515000Y-51932155D01*
X157515000Y-52080000D01*
X160065000Y-52080000D01*
X160065000Y-51932172D01*
X160064999Y-51932155D01*
X160058598Y-51872627D01*
X160058597Y-51872623D01*
X160008776Y-51739049D01*
X160003792Y-51669358D01*
X160008776Y-51652381D01*
X160008793Y-51652334D01*
X160008796Y-51652331D01*
X160059091Y-51517483D01*
X160065500Y-51457873D01*
X160065499Y-50662128D01*
X160059091Y-50602517D01*
X160012505Y-50477614D01*
X160008797Y-50467671D01*
X160008793Y-50467664D01*
X159922547Y-50352455D01*
X159922544Y-50352452D01*
X159807335Y-50266206D01*
X159807328Y-50266202D01*
X159672482Y-50215908D01*
X159672483Y-50215908D01*
X159612883Y-50209501D01*
X159612881Y-50209500D01*
X159612873Y-50209500D01*
X159612864Y-50209500D01*
X157967129Y-50209500D01*
X157967123Y-50209501D01*
X157907516Y-50215908D01*
X157772671Y-50266202D01*
X157772664Y-50266206D01*
X157657455Y-50352452D01*
X157657452Y-50352455D01*
X157571206Y-50467664D01*
X157571202Y-50467671D01*
X157520908Y-50602517D01*
X157514501Y-50662116D01*
X157514501Y-50662123D01*
X157514500Y-50662135D01*
X127750500Y-50662135D01*
X127750500Y-47112229D01*
X127770185Y-47045190D01*
X127786815Y-47024552D01*
X128175784Y-46635582D01*
X128237105Y-46602099D01*
X128306796Y-46607083D01*
X128334586Y-46621689D01*
X128347266Y-46630568D01*
X128553504Y-46726739D01*
X128773308Y-46785635D01*
X128935230Y-46799801D01*
X128999998Y-46805468D01*
X129000000Y-46805468D01*
X129000002Y-46805468D01*
X129056673Y-46800509D01*
X129226692Y-46785635D01*
X129446496Y-46726739D01*
X129652734Y-46630568D01*
X129839139Y-46500047D01*
X130000047Y-46339139D01*
X130130568Y-46152734D01*
X130226739Y-45946496D01*
X130285635Y-45726692D01*
X130305468Y-45500000D01*
X130285635Y-45273308D01*
X130226739Y-45053504D01*
X130130568Y-44847266D01*
X130000047Y-44660861D01*
X130000045Y-44660858D01*
X129839141Y-44499954D01*
X129652734Y-44369432D01*
X129652732Y-44369431D01*
X129446497Y-44273261D01*
X129446488Y-44273258D01*
X129226697Y-44214366D01*
X129226693Y-44214365D01*
X129226692Y-44214365D01*
X129226691Y-44214364D01*
X129226686Y-44214364D01*
X129000002Y-44194532D01*
X128999998Y-44194532D01*
X128773313Y-44214364D01*
X128773302Y-44214366D01*
X128553511Y-44273258D01*
X128553502Y-44273261D01*
X128347267Y-44369431D01*
X128347265Y-44369432D01*
X128160858Y-44499954D01*
X127999953Y-44660859D01*
X127876982Y-44836482D01*
X127844298Y-44868461D01*
X127771584Y-44917047D01*
X127771580Y-44917050D01*
X126417049Y-46271581D01*
X126376043Y-46332951D01*
X126376044Y-46332952D01*
X126334914Y-46394508D01*
X126278343Y-46531082D01*
X126278340Y-46531092D01*
X126249500Y-46676079D01*
X126249500Y-46676082D01*
X126249500Y-54383918D01*
X126249500Y-54383920D01*
X126249499Y-54383920D01*
X125750500Y-54383920D01*
X125750500Y-39802135D01*
X145849500Y-39802135D01*
X145849500Y-42697870D01*
X145849501Y-42697876D01*
X145855908Y-42757483D01*
X145906202Y-42892328D01*
X145906206Y-42892335D01*
X145992452Y-43007544D01*
X145992455Y-43007547D01*
X146107664Y-43093793D01*
X146107671Y-43093797D01*
X146242517Y-43144091D01*
X146242516Y-43144091D01*
X146249444Y-43144835D01*
X146302127Y-43150500D01*
X149197872Y-43150499D01*
X149257483Y-43144091D01*
X149392331Y-43093796D01*
X149507546Y-43007546D01*
X149593796Y-42892331D01*
X149644091Y-42757483D01*
X149650500Y-42697873D01*
X149650499Y-40462229D01*
X149670184Y-40395191D01*
X149686818Y-40374549D01*
X150524549Y-39536819D01*
X150585872Y-39503334D01*
X150612230Y-39500500D01*
X151544015Y-39500500D01*
X151611054Y-39520185D01*
X151656809Y-39572989D01*
X151666753Y-39642147D01*
X151637728Y-39705703D01*
X151618325Y-39723767D01*
X151594875Y-39741321D01*
X151594874Y-39741322D01*
X152502511Y-40648958D01*
X152442110Y-40673978D01*
X152335649Y-40745112D01*
X152245112Y-40835649D01*
X152173978Y-40942110D01*
X152148958Y-41002510D01*
X151241322Y-40094874D01*
X151241321Y-40094875D01*
X151147537Y-40220156D01*
X151147532Y-40220164D01*
X151017287Y-40458689D01*
X151017285Y-40458693D01*
X150922305Y-40713345D01*
X150864537Y-40978902D01*
X150864536Y-40978909D01*
X150845147Y-41249998D01*
X150845147Y-41250001D01*
X150864536Y-41521090D01*
X150864537Y-41521097D01*
X150922305Y-41786654D01*
X151017285Y-42041306D01*
X151017287Y-42041310D01*
X151147532Y-42279835D01*
X151147537Y-42279843D01*
X151241321Y-42405123D01*
X151241322Y-42405124D01*
X152148958Y-41497488D01*
X152173978Y-41557890D01*
X152245112Y-41664351D01*
X152335649Y-41754888D01*
X152442110Y-41826022D01*
X152502511Y-41851041D01*
X151594874Y-42758676D01*
X151720163Y-42852466D01*
X151720164Y-42852467D01*
X151958689Y-42982712D01*
X151958693Y-42982714D01*
X152213345Y-43077694D01*
X152478902Y-43135462D01*
X152478909Y-43135463D01*
X152749999Y-43154853D01*
X152750001Y-43154853D01*
X153021090Y-43135463D01*
X153021097Y-43135462D01*
X153286654Y-43077694D01*
X153541306Y-42982714D01*
X153541310Y-42982712D01*
X153779844Y-42852462D01*
X153905123Y-42758677D01*
X153905124Y-42758676D01*
X152997488Y-41851041D01*
X153057890Y-41826022D01*
X153164351Y-41754888D01*
X153254888Y-41664351D01*
X153326022Y-41557890D01*
X153351041Y-41497489D01*
X154258676Y-42405124D01*
X154258677Y-42405123D01*
X154352462Y-42279844D01*
X154482712Y-42041310D01*
X154482714Y-42041306D01*
X154577694Y-41786654D01*
X154635462Y-41521097D01*
X154635463Y-41521090D01*
X154654853Y-41250001D01*
X154654853Y-41249998D01*
X154635463Y-40978909D01*
X154635462Y-40978902D01*
X154577694Y-40713345D01*
X154482714Y-40458693D01*
X154482712Y-40458689D01*
X154352467Y-40220164D01*
X154352466Y-40220163D01*
X154258676Y-40094874D01*
X153351041Y-41002510D01*
X153326022Y-40942110D01*
X153254888Y-40835649D01*
X153164351Y-40745112D01*
X153057890Y-40673978D01*
X152997488Y-40648958D01*
X153905124Y-39741322D01*
X153905123Y-39741321D01*
X153881674Y-39723767D01*
X153839802Y-39667834D01*
X153834818Y-39598142D01*
X153868303Y-39536819D01*
X153929626Y-39503334D01*
X153955984Y-39500500D01*
X154637770Y-39500500D01*
X154704809Y-39520185D01*
X154725451Y-39536819D01*
X161213181Y-46024549D01*
X161246666Y-46085872D01*
X161249500Y-46112230D01*
X161249500Y-51290618D01*
X161249500Y-51290620D01*
X161249499Y-51290620D01*
X161278340Y-51435607D01*
X161278343Y-51435617D01*
X161334913Y-51572190D01*
X161334914Y-51572192D01*
X161359069Y-51608342D01*
X161359070Y-51608344D01*
X161417043Y-51695110D01*
X161417047Y-51695115D01*
X161867601Y-52145669D01*
X161901086Y-52206992D01*
X161896102Y-52276684D01*
X161867601Y-52321031D01*
X161667047Y-52521584D01*
X161667042Y-52521590D01*
X161640190Y-52561781D01*
X161640188Y-52561784D01*
X161628017Y-52580000D01*
X161584914Y-52644507D01*
X161528343Y-52781082D01*
X161528340Y-52781092D01*
X161499500Y-52926079D01*
X161499500Y-52926082D01*
X161499500Y-62823918D01*
X161499500Y-62823920D01*
X161499499Y-62823920D01*
X161528340Y-62968907D01*
X161528343Y-62968917D01*
X161584912Y-63105488D01*
X161584916Y-63105495D01*
X161603595Y-63133450D01*
X161603596Y-63133453D01*
X161603597Y-63133453D01*
X161667051Y-63228420D01*
X161758450Y-63319819D01*
X161791935Y-63381142D01*
X161786951Y-63450834D01*
X161758450Y-63495181D01*
X161667050Y-63586580D01*
X161667044Y-63586588D01*
X161617812Y-63660268D01*
X161617813Y-63660269D01*
X161584921Y-63709496D01*
X161584914Y-63709508D01*
X161528342Y-63846086D01*
X161528340Y-63846092D01*
X161499500Y-63991079D01*
X161499500Y-63991082D01*
X161499500Y-74073918D01*
X161499500Y-74073920D01*
X161499499Y-74073920D01*
X161528340Y-74218907D01*
X161528343Y-74218917D01*
X161584913Y-74355490D01*
X161584916Y-74355495D01*
X161602148Y-74381286D01*
X161667044Y-74478410D01*
X161667050Y-74478418D01*
X161749447Y-74560815D01*
X161782932Y-74622138D01*
X161778454Y-74684751D01*
X161780111Y-74685254D01*
X161778341Y-74691088D01*
X161749500Y-74836079D01*
X161749500Y-74836082D01*
X161749500Y-84323918D01*
X161749500Y-84323920D01*
X161749499Y-84323920D01*
X161778340Y-84468907D01*
X161778343Y-84468917D01*
X161834912Y-84605488D01*
X161834914Y-84605492D01*
X161834916Y-84605495D01*
X161850956Y-84629500D01*
X161909597Y-84717265D01*
X161917049Y-84728417D01*
X162601586Y-85412954D01*
X162628966Y-85431247D01*
X162670039Y-85458691D01*
X162724505Y-85495084D01*
X162724507Y-85495085D01*
X162724511Y-85495087D01*
X162835904Y-85541227D01*
X162861087Y-85551658D01*
X162861091Y-85551658D01*
X162861092Y-85551659D01*
X163006079Y-85580500D01*
X163006082Y-85580500D01*
X163006083Y-85580500D01*
X163040500Y-85580500D01*
X163107539Y-85600185D01*
X163153294Y-85652989D01*
X163164500Y-85704500D01*
X163164501Y-86497862D01*
X163164501Y-86497876D01*
X163170909Y-86557484D01*
X163220955Y-86691668D01*
X163225939Y-86761360D01*
X163220955Y-86778332D01*
X163170909Y-86912514D01*
X163170908Y-86912516D01*
X163167514Y-86944091D01*
X163164501Y-86972123D01*
X163164500Y-86972135D01*
X163164500Y-87767870D01*
X163164501Y-87767876D01*
X163170908Y-87827483D01*
X163221202Y-87962328D01*
X163221206Y-87962335D01*
X163307452Y-88077544D01*
X163307455Y-88077547D01*
X163422664Y-88163793D01*
X163422671Y-88163797D01*
X163557517Y-88214091D01*
X163557516Y-88214091D01*
X163564444Y-88214835D01*
X163617127Y-88220500D01*
X165262872Y-88220499D01*
X165322483Y-88214091D01*
X165457331Y-88163796D01*
X165572546Y-88077546D01*
X165658796Y-87962331D01*
X165709091Y-87827483D01*
X165715500Y-87767873D01*
X165715499Y-86972128D01*
X165710792Y-86928340D01*
X165723199Y-86859581D01*
X165770810Y-86808444D01*
X165786630Y-86800526D01*
X165841812Y-86777669D01*
X165872195Y-86765084D01*
X165950962Y-86712454D01*
X165995116Y-86682952D01*
X172082952Y-80595116D01*
X172132186Y-80521429D01*
X172165084Y-80472195D01*
X172221658Y-80335613D01*
X172250500Y-80190618D01*
X172250500Y-75117700D01*
X172270185Y-75050661D01*
X172303375Y-75016126D01*
X172371401Y-74968495D01*
X172538495Y-74801401D01*
X172674035Y-74607830D01*
X172773903Y-74393663D01*
X172835063Y-74165408D01*
X172855659Y-73930000D01*
X172835063Y-73694592D01*
X172773903Y-73466337D01*
X172674035Y-73252171D01*
X172538495Y-73058599D01*
X172538494Y-73058597D01*
X172371402Y-72891506D01*
X172371396Y-72891501D01*
X172185842Y-72761575D01*
X172142217Y-72706998D01*
X172135023Y-72637500D01*
X172166546Y-72575145D01*
X172185842Y-72558425D01*
X172246140Y-72516204D01*
X172371401Y-72428495D01*
X172538495Y-72261401D01*
X172674035Y-72067830D01*
X172773903Y-71853663D01*
X172835063Y-71625408D01*
X172855659Y-71390000D01*
X172835063Y-71154592D01*
X172773903Y-70926337D01*
X172674035Y-70712171D01*
X172643347Y-70668343D01*
X172538494Y-70518597D01*
X172371402Y-70351506D01*
X172371396Y-70351501D01*
X172185842Y-70221575D01*
X172142217Y-70166998D01*
X172135023Y-70097500D01*
X172166546Y-70035145D01*
X172185842Y-70018425D01*
X172208026Y-70002891D01*
X172371401Y-69888495D01*
X172538495Y-69721401D01*
X172674035Y-69527830D01*
X172773903Y-69313663D01*
X172835063Y-69085408D01*
X172855659Y-68850000D01*
X172835063Y-68614592D01*
X172773903Y-68386337D01*
X172674035Y-68172171D01*
X172644904Y-68130568D01*
X172538496Y-67978600D01*
X172500114Y-67940218D01*
X172416567Y-67856671D01*
X172383084Y-67795351D01*
X172388068Y-67725659D01*
X172429939Y-67669725D01*
X172460915Y-67652810D01*
X172592331Y-67603796D01*
X172707546Y-67517546D01*
X172793796Y-67402331D01*
X172844091Y-67267483D01*
X172850500Y-67207873D01*
X172850499Y-65412128D01*
X172844091Y-65352517D01*
X172833425Y-65323921D01*
X172793797Y-65217671D01*
X172793793Y-65217664D01*
X172707547Y-65102455D01*
X172707544Y-65102452D01*
X172592335Y-65016206D01*
X172592328Y-65016202D01*
X172457482Y-64965908D01*
X172457483Y-64965908D01*
X172397883Y-64959501D01*
X172397881Y-64959500D01*
X172397873Y-64959500D01*
X172397865Y-64959500D01*
X172374500Y-64959500D01*
X172307461Y-64939815D01*
X172261706Y-64887011D01*
X172250500Y-64835500D01*
X172250500Y-59759379D01*
X172221659Y-59614392D01*
X172221658Y-59614391D01*
X172221658Y-59614387D01*
X172209282Y-59584508D01*
X172165087Y-59477811D01*
X172165080Y-59477798D01*
X172082952Y-59354885D01*
X172082951Y-59354884D01*
X171978416Y-59250349D01*
X170432572Y-57704505D01*
X165745121Y-53017052D01*
X165745114Y-53017046D01*
X165671429Y-52967812D01*
X165671429Y-52967813D01*
X165622195Y-52934916D01*
X165622190Y-52934914D01*
X165536628Y-52899473D01*
X165482225Y-52855632D01*
X165460160Y-52789338D01*
X165460791Y-52771665D01*
X165465500Y-52727873D01*
X165465499Y-51932128D01*
X165459091Y-51872517D01*
X165409042Y-51738330D01*
X165404059Y-51668642D01*
X165409039Y-51651678D01*
X165459091Y-51517483D01*
X165465500Y-51457873D01*
X165465499Y-50662128D01*
X165459091Y-50602517D01*
X165412505Y-50477614D01*
X165408797Y-50467671D01*
X165408793Y-50467664D01*
X165322547Y-50352455D01*
X165322544Y-50352452D01*
X165207335Y-50266206D01*
X165207328Y-50266202D01*
X165072482Y-50215908D01*
X165072483Y-50215908D01*
X165012883Y-50209501D01*
X165012881Y-50209500D01*
X165012873Y-50209500D01*
X165012864Y-50209500D01*
X163367129Y-50209500D01*
X163367123Y-50209501D01*
X163307516Y-50215908D01*
X163172671Y-50266202D01*
X163172664Y-50266206D01*
X163057455Y-50352452D01*
X162973766Y-50464246D01*
X162917832Y-50506116D01*
X162848141Y-50511100D01*
X162786818Y-50477614D01*
X162753333Y-50416291D01*
X162750500Y-50389934D01*
X162750500Y-45676079D01*
X162721659Y-45531092D01*
X162721658Y-45531091D01*
X162721658Y-45531087D01*
X162708782Y-45500001D01*
X162665086Y-45394509D01*
X162665085Y-45394507D01*
X162632186Y-45345270D01*
X162632185Y-45345268D01*
X162582956Y-45271589D01*
X162582952Y-45271584D01*
X155478421Y-38167052D01*
X155478414Y-38167046D01*
X155404729Y-38117812D01*
X155404729Y-38117813D01*
X155355491Y-38084913D01*
X155218917Y-38028343D01*
X155218907Y-38028340D01*
X155073920Y-37999500D01*
X155073918Y-37999500D01*
X150176082Y-37999500D01*
X150176080Y-37999500D01*
X150031092Y-38028340D01*
X150031086Y-38028342D01*
X149894508Y-38084914D01*
X149894496Y-38084921D01*
X149845269Y-38117813D01*
X149771588Y-38167044D01*
X149771580Y-38167050D01*
X148625449Y-39313181D01*
X148564126Y-39346666D01*
X148537768Y-39349500D01*
X146302129Y-39349500D01*
X146302123Y-39349501D01*
X146242516Y-39355908D01*
X146107671Y-39406202D01*
X146107664Y-39406206D01*
X145992455Y-39492452D01*
X145992452Y-39492455D01*
X145906206Y-39607664D01*
X145906202Y-39607671D01*
X145855908Y-39742517D01*
X145849501Y-39802116D01*
X145849500Y-39802135D01*
X125750500Y-39802135D01*
X125750500Y-36874500D01*
X125770185Y-36807461D01*
X125822989Y-36761706D01*
X125874500Y-36750500D01*
X174625500Y-36750500D01*
X174692539Y-36770185D01*
G37*
%TD.AperFunction*%
%TD*%
M02*
