M48
; DRILL file {KiCad 8.0.6-8.0.6-0~ubuntu22.04.1} date 2024-11-06T16:38:49-0300
; FORMAT={-:-/ absolute / inch / decimal}
; #@! TF.CreationDate,2024-11-06T16:38:49-03:00
; #@! TF.GenerationSoftware,Kicad,Pcbnew,8.0.6-8.0.6-0~ubuntu22.04.1
; #@! TF.FileFunction,Plated,1,2,PTH
FMAT,2
INCH
; #@! TA.AperFunction,Plated,PTH,ComponentDrill
T1C0.0315
; #@! TA.AperFunction,Plated,PTH,ComponentDrill
T2C0.0394
; #@! TA.AperFunction,Plated,PTH,ComponentDrill
T3C0.0512
%
G90
G05
T1
X5.0787Y-1.7913
X5.0787Y-2.0913
X5.0787Y-2.2169
X5.0787Y-2.5169
X5.0787Y-2.6378
X5.0787Y-2.9378
X5.0787Y-3.061
X5.0787Y-3.361
X5.4776Y-3.3587
X5.4799Y-2.5295
X5.4799Y-2.9429
X5.4996Y-2.0866
X5.7776Y-3.3587
X5.7799Y-2.5295
X5.7799Y-2.9429
X5.7996Y-2.0866
X5.9744Y-2.0693
X5.9744Y-2.1677
X5.9744Y-2.5024
X5.9744Y-2.6008
X5.9744Y-2.9354
X5.9744Y-3.0339
X5.9744Y-3.3587
X5.9744Y-3.4571
T2
X5.1033Y-3.772
X5.2033Y-3.772
X5.3033Y-3.772
X5.4033Y-3.772
X5.5033Y-3.772
X5.6033Y-3.772
X5.7033Y-3.772
X5.8033Y-3.772
X6.752Y-2.6106
X6.752Y-2.7106
X6.752Y-2.8106
X6.752Y-2.9106
X6.752Y-3.4614
X6.752Y-3.5614
X6.752Y-3.6614
X6.752Y-3.7614
T3
X5.8169Y-1.624
X6.0138Y-1.624
M30
