%TF.GenerationSoftware,KiCad,Pcbnew,8.0.6-8.0.6-0~ubuntu22.04.1*%
%TF.CreationDate,2024-11-06T16:41:22-03:00*%
%TF.ProjectId,sensor_filter,73656e73-6f72-45f6-9669-6c7465722e6b,rev?*%
%TF.SameCoordinates,Original*%
%TF.FileFunction,Soldermask,Top*%
%TF.FilePolarity,Negative*%
%FSLAX46Y46*%
G04 Gerber Fmt 4.6, Leading zero omitted, Abs format (unit mm)*
G04 Created by KiCad (PCBNEW 8.0.6-8.0.6-0~ubuntu22.04.1) date 2024-11-06 16:41:22*
%MOMM*%
%LPD*%
G01*
G04 APERTURE LIST*
%ADD10R,1.600000X1.600000*%
%ADD11C,1.600000*%
%ADD12O,1.600000X1.600000*%
%ADD13R,1.550000X0.700000*%
%ADD14R,1.700000X1.700000*%
%ADD15O,1.700000X1.700000*%
%ADD16R,2.800000X2.800000*%
%ADD17C,2.800000*%
G04 APERTURE END LIST*
D10*
%TO.C,C4*%
X151750000Y-85310000D03*
D11*
X151750000Y-87810000D03*
%TD*%
%TO.C,R6*%
X139190000Y-64250000D03*
D12*
X146810000Y-64250000D03*
%TD*%
D11*
%TO.C,R4*%
X129000000Y-85370000D03*
D12*
X129000000Y-77750000D03*
%TD*%
D13*
%TO.C,IC3*%
X158750000Y-73310000D03*
X158750000Y-74580000D03*
X158750000Y-75850000D03*
X158750000Y-77120000D03*
X164150000Y-77120000D03*
X164150000Y-75850000D03*
X164150000Y-74580000D03*
X164150000Y-73310000D03*
%TD*%
D11*
%TO.C,R5*%
X139690000Y-53000000D03*
D12*
X147310000Y-53000000D03*
%TD*%
D13*
%TO.C,IC2*%
X158750000Y-62250000D03*
X158750000Y-63520000D03*
X158750000Y-64790000D03*
X158750000Y-66060000D03*
X164150000Y-66060000D03*
X164150000Y-64790000D03*
X164150000Y-63520000D03*
X164150000Y-62250000D03*
%TD*%
%TO.C,IC1*%
X158790000Y-51060000D03*
X158790000Y-52330000D03*
X158790000Y-53600000D03*
X158790000Y-54870000D03*
X164190000Y-54870000D03*
X164190000Y-53600000D03*
X164190000Y-52330000D03*
X164190000Y-51060000D03*
%TD*%
D11*
%TO.C,R8*%
X139130000Y-85310000D03*
D12*
X146750000Y-85310000D03*
%TD*%
D14*
%TO.C,J4*%
X171500000Y-87920000D03*
D15*
X171500000Y-90460000D03*
X171500000Y-93000000D03*
X171500000Y-95540000D03*
%TD*%
D10*
%TO.C,C1*%
X151750000Y-52560000D03*
D11*
X151750000Y-55060000D03*
%TD*%
%TO.C,R3*%
X129000000Y-74620000D03*
D12*
X129000000Y-67000000D03*
%TD*%
D13*
%TO.C,IC4*%
X159040000Y-83560000D03*
X159040000Y-84830000D03*
X159040000Y-86100000D03*
X159040000Y-87370000D03*
X164440000Y-87370000D03*
X164440000Y-86100000D03*
X164440000Y-84830000D03*
X164440000Y-83560000D03*
%TD*%
D10*
%TO.C,C3*%
X151750000Y-74560000D03*
D11*
X151750000Y-77060000D03*
%TD*%
D14*
%TO.C,J3*%
X171500000Y-66310000D03*
D15*
X171500000Y-68850000D03*
X171500000Y-71390000D03*
X171500000Y-73930000D03*
%TD*%
D11*
%TO.C,R2*%
X129000000Y-63930000D03*
D12*
X129000000Y-56310000D03*
%TD*%
D10*
%TO.C,C2*%
X151750000Y-63560000D03*
D11*
X151750000Y-66060000D03*
%TD*%
D16*
%TO.C,J2*%
X147750000Y-41250000D03*
D17*
X152750000Y-41250000D03*
%TD*%
D11*
%TO.C,R1*%
X129000000Y-53120000D03*
D12*
X129000000Y-45500000D03*
%TD*%
D14*
%TO.C,J1*%
X129625000Y-95810000D03*
D15*
X132165000Y-95810000D03*
X134705000Y-95810000D03*
X137245000Y-95810000D03*
X139785000Y-95810000D03*
X142325000Y-95810000D03*
X144865000Y-95810000D03*
X147405000Y-95810000D03*
%TD*%
D11*
%TO.C,R7*%
X139190000Y-74750000D03*
D12*
X146810000Y-74750000D03*
%TD*%
M02*
