%TF.GenerationSoftware,KiCad,Pcbnew,8.0.6-8.0.6-0~ubuntu22.04.1*%
%TF.CreationDate,2024-11-06T16:41:07-03:00*%
%TF.ProjectId,sensor_filter,73656e73-6f72-45f6-9669-6c7465722e6b,rev?*%
%TF.SameCoordinates,Original*%
%TF.FileFunction,Copper,L2,Bot*%
%TF.FilePolarity,Positive*%
%FSLAX46Y46*%
G04 Gerber Fmt 4.6, Leading zero omitted, Abs format (unit mm)*
G04 Created by KiCad (PCBNEW 8.0.6-8.0.6-0~ubuntu22.04.1) date 2024-11-06 16:41:07*
%MOMM*%
%LPD*%
G01*
G04 APERTURE LIST*
%ADD10C,0.300000*%
%TA.AperFunction,NonConductor*%
%ADD11C,0.300000*%
%TD*%
%TA.AperFunction,NonConductor*%
%ADD12C,0.200000*%
%TD*%
%TA.AperFunction,ComponentPad*%
%ADD13R,1.600000X1.600000*%
%TD*%
%TA.AperFunction,ComponentPad*%
%ADD14C,1.600000*%
%TD*%
%TA.AperFunction,ComponentPad*%
%ADD15O,1.600000X1.600000*%
%TD*%
%TA.AperFunction,ComponentPad*%
%ADD16R,1.700000X1.700000*%
%TD*%
%TA.AperFunction,ComponentPad*%
%ADD17O,1.700000X1.700000*%
%TD*%
%TA.AperFunction,ComponentPad*%
%ADD18R,2.800000X2.800000*%
%TD*%
%TA.AperFunction,ComponentPad*%
%ADD19C,2.800000*%
%TD*%
%TA.AperFunction,Conductor*%
%ADD20C,0.200000*%
%TD*%
%TA.AperFunction,Conductor*%
%ADD21C,0.500000*%
%TD*%
%TA.AperFunction,Conductor*%
%ADD22C,1.000000*%
%TD*%
G04 APERTURE END LIST*
D10*
D11*
X194878328Y-61160716D02*
X194878328Y-60875001D01*
X194878328Y-60875001D02*
X194949757Y-60732144D01*
X194949757Y-60732144D02*
X195021185Y-60660716D01*
X195021185Y-60660716D02*
X195235471Y-60517858D01*
X195235471Y-60517858D02*
X195521185Y-60446430D01*
X195521185Y-60446430D02*
X196092614Y-60446430D01*
X196092614Y-60446430D02*
X196235471Y-60517858D01*
X196235471Y-60517858D02*
X196306900Y-60589287D01*
X196306900Y-60589287D02*
X196378328Y-60732144D01*
X196378328Y-60732144D02*
X196378328Y-61017858D01*
X196378328Y-61017858D02*
X196306900Y-61160716D01*
X196306900Y-61160716D02*
X196235471Y-61232144D01*
X196235471Y-61232144D02*
X196092614Y-61303573D01*
X196092614Y-61303573D02*
X195735471Y-61303573D01*
X195735471Y-61303573D02*
X195592614Y-61232144D01*
X195592614Y-61232144D02*
X195521185Y-61160716D01*
X195521185Y-61160716D02*
X195449757Y-61017858D01*
X195449757Y-61017858D02*
X195449757Y-60732144D01*
X195449757Y-60732144D02*
X195521185Y-60589287D01*
X195521185Y-60589287D02*
X195592614Y-60517858D01*
X195592614Y-60517858D02*
X195735471Y-60446430D01*
X195021185Y-61875001D02*
X194949757Y-61946429D01*
X194949757Y-61946429D02*
X194878328Y-62089287D01*
X194878328Y-62089287D02*
X194878328Y-62446429D01*
X194878328Y-62446429D02*
X194949757Y-62589287D01*
X194949757Y-62589287D02*
X195021185Y-62660715D01*
X195021185Y-62660715D02*
X195164042Y-62732144D01*
X195164042Y-62732144D02*
X195306900Y-62732144D01*
X195306900Y-62732144D02*
X195521185Y-62660715D01*
X195521185Y-62660715D02*
X196378328Y-61803572D01*
X196378328Y-61803572D02*
X196378328Y-62732144D01*
X196235471Y-63375000D02*
X196306900Y-63446429D01*
X196306900Y-63446429D02*
X196378328Y-63375000D01*
X196378328Y-63375000D02*
X196306900Y-63303572D01*
X196306900Y-63303572D02*
X196235471Y-63375000D01*
X196235471Y-63375000D02*
X196378328Y-63375000D01*
X195021185Y-64017858D02*
X194949757Y-64089286D01*
X194949757Y-64089286D02*
X194878328Y-64232144D01*
X194878328Y-64232144D02*
X194878328Y-64589286D01*
X194878328Y-64589286D02*
X194949757Y-64732144D01*
X194949757Y-64732144D02*
X195021185Y-64803572D01*
X195021185Y-64803572D02*
X195164042Y-64875001D01*
X195164042Y-64875001D02*
X195306900Y-64875001D01*
X195306900Y-64875001D02*
X195521185Y-64803572D01*
X195521185Y-64803572D02*
X196378328Y-63946429D01*
X196378328Y-63946429D02*
X196378328Y-64875001D01*
X194878328Y-66232143D02*
X194878328Y-65517857D01*
X194878328Y-65517857D02*
X195592614Y-65446429D01*
X195592614Y-65446429D02*
X195521185Y-65517857D01*
X195521185Y-65517857D02*
X195449757Y-65660715D01*
X195449757Y-65660715D02*
X195449757Y-66017857D01*
X195449757Y-66017857D02*
X195521185Y-66160715D01*
X195521185Y-66160715D02*
X195592614Y-66232143D01*
X195592614Y-66232143D02*
X195735471Y-66303572D01*
X195735471Y-66303572D02*
X196092614Y-66303572D01*
X196092614Y-66303572D02*
X196235471Y-66232143D01*
X196235471Y-66232143D02*
X196306900Y-66160715D01*
X196306900Y-66160715D02*
X196378328Y-66017857D01*
X196378328Y-66017857D02*
X196378328Y-65660715D01*
X196378328Y-65660715D02*
X196306900Y-65517857D01*
X196306900Y-65517857D02*
X196235471Y-65446429D01*
X194878328Y-67232143D02*
X194878328Y-67375000D01*
X194878328Y-67375000D02*
X194949757Y-67517857D01*
X194949757Y-67517857D02*
X195021185Y-67589286D01*
X195021185Y-67589286D02*
X195164042Y-67660714D01*
X195164042Y-67660714D02*
X195449757Y-67732143D01*
X195449757Y-67732143D02*
X195806900Y-67732143D01*
X195806900Y-67732143D02*
X196092614Y-67660714D01*
X196092614Y-67660714D02*
X196235471Y-67589286D01*
X196235471Y-67589286D02*
X196306900Y-67517857D01*
X196306900Y-67517857D02*
X196378328Y-67375000D01*
X196378328Y-67375000D02*
X196378328Y-67232143D01*
X196378328Y-67232143D02*
X196306900Y-67089286D01*
X196306900Y-67089286D02*
X196235471Y-67017857D01*
X196235471Y-67017857D02*
X196092614Y-66946428D01*
X196092614Y-66946428D02*
X195806900Y-66875000D01*
X195806900Y-66875000D02*
X195449757Y-66875000D01*
X195449757Y-66875000D02*
X195164042Y-66946428D01*
X195164042Y-66946428D02*
X195021185Y-67017857D01*
X195021185Y-67017857D02*
X194949757Y-67089286D01*
X194949757Y-67089286D02*
X194878328Y-67232143D01*
X194878328Y-68660714D02*
X194878328Y-68803571D01*
X194878328Y-68803571D02*
X194949757Y-68946428D01*
X194949757Y-68946428D02*
X195021185Y-69017857D01*
X195021185Y-69017857D02*
X195164042Y-69089285D01*
X195164042Y-69089285D02*
X195449757Y-69160714D01*
X195449757Y-69160714D02*
X195806900Y-69160714D01*
X195806900Y-69160714D02*
X196092614Y-69089285D01*
X196092614Y-69089285D02*
X196235471Y-69017857D01*
X196235471Y-69017857D02*
X196306900Y-68946428D01*
X196306900Y-68946428D02*
X196378328Y-68803571D01*
X196378328Y-68803571D02*
X196378328Y-68660714D01*
X196378328Y-68660714D02*
X196306900Y-68517857D01*
X196306900Y-68517857D02*
X196235471Y-68446428D01*
X196235471Y-68446428D02*
X196092614Y-68374999D01*
X196092614Y-68374999D02*
X195806900Y-68303571D01*
X195806900Y-68303571D02*
X195449757Y-68303571D01*
X195449757Y-68303571D02*
X195164042Y-68374999D01*
X195164042Y-68374999D02*
X195021185Y-68446428D01*
X195021185Y-68446428D02*
X194949757Y-68517857D01*
X194949757Y-68517857D02*
X194878328Y-68660714D01*
X196378328Y-70946427D02*
X195378328Y-70946427D01*
X195521185Y-70946427D02*
X195449757Y-71017856D01*
X195449757Y-71017856D02*
X195378328Y-71160713D01*
X195378328Y-71160713D02*
X195378328Y-71374999D01*
X195378328Y-71374999D02*
X195449757Y-71517856D01*
X195449757Y-71517856D02*
X195592614Y-71589285D01*
X195592614Y-71589285D02*
X196378328Y-71589285D01*
X195592614Y-71589285D02*
X195449757Y-71660713D01*
X195449757Y-71660713D02*
X195378328Y-71803570D01*
X195378328Y-71803570D02*
X195378328Y-72017856D01*
X195378328Y-72017856D02*
X195449757Y-72160713D01*
X195449757Y-72160713D02*
X195592614Y-72232142D01*
X195592614Y-72232142D02*
X196378328Y-72232142D01*
X196378328Y-72946427D02*
X195378328Y-72946427D01*
X195521185Y-72946427D02*
X195449757Y-73017856D01*
X195449757Y-73017856D02*
X195378328Y-73160713D01*
X195378328Y-73160713D02*
X195378328Y-73374999D01*
X195378328Y-73374999D02*
X195449757Y-73517856D01*
X195449757Y-73517856D02*
X195592614Y-73589285D01*
X195592614Y-73589285D02*
X196378328Y-73589285D01*
X195592614Y-73589285D02*
X195449757Y-73660713D01*
X195449757Y-73660713D02*
X195378328Y-73803570D01*
X195378328Y-73803570D02*
X195378328Y-74017856D01*
X195378328Y-74017856D02*
X195449757Y-74160713D01*
X195449757Y-74160713D02*
X195592614Y-74232142D01*
X195592614Y-74232142D02*
X196378328Y-74232142D01*
D12*
X175750000Y-98500000D02*
X198086420Y-98500000D01*
X175750000Y-36250000D02*
X198086420Y-36250000D01*
X197500000Y-98500000D02*
X197500000Y-36250000D01*
X197500000Y-98500000D02*
X197500000Y-36250000D01*
X197500000Y-98500000D02*
X196913579Y-97373496D01*
X197500000Y-98500000D02*
X198086421Y-97373496D01*
X197500000Y-36250000D02*
X198086421Y-37376504D01*
X197500000Y-36250000D02*
X196913579Y-37376504D01*
D10*
D11*
X156392855Y-25628328D02*
X157107141Y-25628328D01*
X157107141Y-25628328D02*
X157178569Y-26342614D01*
X157178569Y-26342614D02*
X157107141Y-26271185D01*
X157107141Y-26271185D02*
X156964284Y-26199757D01*
X156964284Y-26199757D02*
X156607141Y-26199757D01*
X156607141Y-26199757D02*
X156464284Y-26271185D01*
X156464284Y-26271185D02*
X156392855Y-26342614D01*
X156392855Y-26342614D02*
X156321426Y-26485471D01*
X156321426Y-26485471D02*
X156321426Y-26842614D01*
X156321426Y-26842614D02*
X156392855Y-26985471D01*
X156392855Y-26985471D02*
X156464284Y-27056900D01*
X156464284Y-27056900D02*
X156607141Y-27128328D01*
X156607141Y-27128328D02*
X156964284Y-27128328D01*
X156964284Y-27128328D02*
X157107141Y-27056900D01*
X157107141Y-27056900D02*
X157178569Y-26985471D01*
X155392855Y-25628328D02*
X155249998Y-25628328D01*
X155249998Y-25628328D02*
X155107141Y-25699757D01*
X155107141Y-25699757D02*
X155035713Y-25771185D01*
X155035713Y-25771185D02*
X154964284Y-25914042D01*
X154964284Y-25914042D02*
X154892855Y-26199757D01*
X154892855Y-26199757D02*
X154892855Y-26556900D01*
X154892855Y-26556900D02*
X154964284Y-26842614D01*
X154964284Y-26842614D02*
X155035713Y-26985471D01*
X155035713Y-26985471D02*
X155107141Y-27056900D01*
X155107141Y-27056900D02*
X155249998Y-27128328D01*
X155249998Y-27128328D02*
X155392855Y-27128328D01*
X155392855Y-27128328D02*
X155535713Y-27056900D01*
X155535713Y-27056900D02*
X155607141Y-26985471D01*
X155607141Y-26985471D02*
X155678570Y-26842614D01*
X155678570Y-26842614D02*
X155749998Y-26556900D01*
X155749998Y-26556900D02*
X155749998Y-26199757D01*
X155749998Y-26199757D02*
X155678570Y-25914042D01*
X155678570Y-25914042D02*
X155607141Y-25771185D01*
X155607141Y-25771185D02*
X155535713Y-25699757D01*
X155535713Y-25699757D02*
X155392855Y-25628328D01*
X154249999Y-26985471D02*
X154178570Y-27056900D01*
X154178570Y-27056900D02*
X154249999Y-27128328D01*
X154249999Y-27128328D02*
X154321427Y-27056900D01*
X154321427Y-27056900D02*
X154249999Y-26985471D01*
X154249999Y-26985471D02*
X154249999Y-27128328D01*
X153249998Y-25628328D02*
X153107141Y-25628328D01*
X153107141Y-25628328D02*
X152964284Y-25699757D01*
X152964284Y-25699757D02*
X152892856Y-25771185D01*
X152892856Y-25771185D02*
X152821427Y-25914042D01*
X152821427Y-25914042D02*
X152749998Y-26199757D01*
X152749998Y-26199757D02*
X152749998Y-26556900D01*
X152749998Y-26556900D02*
X152821427Y-26842614D01*
X152821427Y-26842614D02*
X152892856Y-26985471D01*
X152892856Y-26985471D02*
X152964284Y-27056900D01*
X152964284Y-27056900D02*
X153107141Y-27128328D01*
X153107141Y-27128328D02*
X153249998Y-27128328D01*
X153249998Y-27128328D02*
X153392856Y-27056900D01*
X153392856Y-27056900D02*
X153464284Y-26985471D01*
X153464284Y-26985471D02*
X153535713Y-26842614D01*
X153535713Y-26842614D02*
X153607141Y-26556900D01*
X153607141Y-26556900D02*
X153607141Y-26199757D01*
X153607141Y-26199757D02*
X153535713Y-25914042D01*
X153535713Y-25914042D02*
X153464284Y-25771185D01*
X153464284Y-25771185D02*
X153392856Y-25699757D01*
X153392856Y-25699757D02*
X153249998Y-25628328D01*
X151821427Y-25628328D02*
X151678570Y-25628328D01*
X151678570Y-25628328D02*
X151535713Y-25699757D01*
X151535713Y-25699757D02*
X151464285Y-25771185D01*
X151464285Y-25771185D02*
X151392856Y-25914042D01*
X151392856Y-25914042D02*
X151321427Y-26199757D01*
X151321427Y-26199757D02*
X151321427Y-26556900D01*
X151321427Y-26556900D02*
X151392856Y-26842614D01*
X151392856Y-26842614D02*
X151464285Y-26985471D01*
X151464285Y-26985471D02*
X151535713Y-27056900D01*
X151535713Y-27056900D02*
X151678570Y-27128328D01*
X151678570Y-27128328D02*
X151821427Y-27128328D01*
X151821427Y-27128328D02*
X151964285Y-27056900D01*
X151964285Y-27056900D02*
X152035713Y-26985471D01*
X152035713Y-26985471D02*
X152107142Y-26842614D01*
X152107142Y-26842614D02*
X152178570Y-26556900D01*
X152178570Y-26556900D02*
X152178570Y-26199757D01*
X152178570Y-26199757D02*
X152107142Y-25914042D01*
X152107142Y-25914042D02*
X152035713Y-25771185D01*
X152035713Y-25771185D02*
X151964285Y-25699757D01*
X151964285Y-25699757D02*
X151821427Y-25628328D01*
X150392856Y-25628328D02*
X150249999Y-25628328D01*
X150249999Y-25628328D02*
X150107142Y-25699757D01*
X150107142Y-25699757D02*
X150035714Y-25771185D01*
X150035714Y-25771185D02*
X149964285Y-25914042D01*
X149964285Y-25914042D02*
X149892856Y-26199757D01*
X149892856Y-26199757D02*
X149892856Y-26556900D01*
X149892856Y-26556900D02*
X149964285Y-26842614D01*
X149964285Y-26842614D02*
X150035714Y-26985471D01*
X150035714Y-26985471D02*
X150107142Y-27056900D01*
X150107142Y-27056900D02*
X150249999Y-27128328D01*
X150249999Y-27128328D02*
X150392856Y-27128328D01*
X150392856Y-27128328D02*
X150535714Y-27056900D01*
X150535714Y-27056900D02*
X150607142Y-26985471D01*
X150607142Y-26985471D02*
X150678571Y-26842614D01*
X150678571Y-26842614D02*
X150749999Y-26556900D01*
X150749999Y-26556900D02*
X150749999Y-26199757D01*
X150749999Y-26199757D02*
X150678571Y-25914042D01*
X150678571Y-25914042D02*
X150607142Y-25771185D01*
X150607142Y-25771185D02*
X150535714Y-25699757D01*
X150535714Y-25699757D02*
X150392856Y-25628328D01*
X148964285Y-25628328D02*
X148821428Y-25628328D01*
X148821428Y-25628328D02*
X148678571Y-25699757D01*
X148678571Y-25699757D02*
X148607143Y-25771185D01*
X148607143Y-25771185D02*
X148535714Y-25914042D01*
X148535714Y-25914042D02*
X148464285Y-26199757D01*
X148464285Y-26199757D02*
X148464285Y-26556900D01*
X148464285Y-26556900D02*
X148535714Y-26842614D01*
X148535714Y-26842614D02*
X148607143Y-26985471D01*
X148607143Y-26985471D02*
X148678571Y-27056900D01*
X148678571Y-27056900D02*
X148821428Y-27128328D01*
X148821428Y-27128328D02*
X148964285Y-27128328D01*
X148964285Y-27128328D02*
X149107143Y-27056900D01*
X149107143Y-27056900D02*
X149178571Y-26985471D01*
X149178571Y-26985471D02*
X149250000Y-26842614D01*
X149250000Y-26842614D02*
X149321428Y-26556900D01*
X149321428Y-26556900D02*
X149321428Y-26199757D01*
X149321428Y-26199757D02*
X149250000Y-25914042D01*
X149250000Y-25914042D02*
X149178571Y-25771185D01*
X149178571Y-25771185D02*
X149107143Y-25699757D01*
X149107143Y-25699757D02*
X148964285Y-25628328D01*
X146678572Y-27128328D02*
X146678572Y-26128328D01*
X146678572Y-26271185D02*
X146607143Y-26199757D01*
X146607143Y-26199757D02*
X146464286Y-26128328D01*
X146464286Y-26128328D02*
X146250000Y-26128328D01*
X146250000Y-26128328D02*
X146107143Y-26199757D01*
X146107143Y-26199757D02*
X146035715Y-26342614D01*
X146035715Y-26342614D02*
X146035715Y-27128328D01*
X146035715Y-26342614D02*
X145964286Y-26199757D01*
X145964286Y-26199757D02*
X145821429Y-26128328D01*
X145821429Y-26128328D02*
X145607143Y-26128328D01*
X145607143Y-26128328D02*
X145464286Y-26199757D01*
X145464286Y-26199757D02*
X145392857Y-26342614D01*
X145392857Y-26342614D02*
X145392857Y-27128328D01*
X144678572Y-27128328D02*
X144678572Y-26128328D01*
X144678572Y-26271185D02*
X144607143Y-26199757D01*
X144607143Y-26199757D02*
X144464286Y-26128328D01*
X144464286Y-26128328D02*
X144250000Y-26128328D01*
X144250000Y-26128328D02*
X144107143Y-26199757D01*
X144107143Y-26199757D02*
X144035715Y-26342614D01*
X144035715Y-26342614D02*
X144035715Y-27128328D01*
X144035715Y-26342614D02*
X143964286Y-26199757D01*
X143964286Y-26199757D02*
X143821429Y-26128328D01*
X143821429Y-26128328D02*
X143607143Y-26128328D01*
X143607143Y-26128328D02*
X143464286Y-26199757D01*
X143464286Y-26199757D02*
X143392857Y-26342614D01*
X143392857Y-26342614D02*
X143392857Y-27128328D01*
D12*
X125250000Y-35750000D02*
X125250000Y-27663580D01*
X175250000Y-35750000D02*
X175250000Y-27663580D01*
X125250000Y-28250000D02*
X175250000Y-28250000D01*
X125250000Y-28250000D02*
X175250000Y-28250000D01*
X125250000Y-28250000D02*
X126376504Y-27663579D01*
X125250000Y-28250000D02*
X126376504Y-28836421D01*
X175250000Y-28250000D02*
X174123496Y-28836421D01*
X175250000Y-28250000D02*
X174123496Y-27663579D01*
D13*
%TO.P,C4,1*%
%TO.N,Net-(IC4-VIN+)*%
X151750000Y-85310000D03*
D14*
%TO.P,C4,2*%
%TO.N,GND*%
X151750000Y-87810000D03*
%TD*%
%TO.P,R6,1*%
%TO.N,Line2*%
X139190000Y-64250000D03*
D15*
%TO.P,R6,2*%
%TO.N,Net-(IC2-VIN+)*%
X146810000Y-64250000D03*
%TD*%
D14*
%TO.P,R4,1*%
%TO.N,Line4*%
X129000000Y-85370000D03*
D15*
%TO.P,R4,2*%
%TO.N,+3.3V*%
X129000000Y-77750000D03*
%TD*%
D14*
%TO.P,R5,1*%
%TO.N,Line1*%
X139690000Y-53000000D03*
D15*
%TO.P,R5,2*%
%TO.N,Net-(IC1-VIN+)*%
X147310000Y-53000000D03*
%TD*%
D14*
%TO.P,R8,1*%
%TO.N,Line4*%
X139130000Y-85310000D03*
D15*
%TO.P,R8,2*%
%TO.N,Net-(IC4-VIN+)*%
X146750000Y-85310000D03*
%TD*%
D16*
%TO.P,J4,1,Pin_1*%
%TO.N,GPIO_Output1*%
X171500000Y-87920000D03*
D17*
%TO.P,J4,2,Pin_2*%
%TO.N,GPIO_Output2*%
X171500000Y-90460000D03*
%TO.P,J4,3,Pin_3*%
%TO.N,GPIO_Output3*%
X171500000Y-93000000D03*
%TO.P,J4,4,Pin_4*%
%TO.N,GPIO_Output4*%
X171500000Y-95540000D03*
%TD*%
D13*
%TO.P,C1,1*%
%TO.N,Net-(IC1-VIN+)*%
X151750000Y-52560000D03*
D14*
%TO.P,C1,2*%
%TO.N,GND*%
X151750000Y-55060000D03*
%TD*%
%TO.P,R3,1*%
%TO.N,Line3*%
X129000000Y-74620000D03*
D15*
%TO.P,R3,2*%
%TO.N,+3.3V*%
X129000000Y-67000000D03*
%TD*%
D13*
%TO.P,C3,1*%
%TO.N,Net-(IC3-VIN+)*%
X151750000Y-74560000D03*
D14*
%TO.P,C3,2*%
%TO.N,GND*%
X151750000Y-77060000D03*
%TD*%
D16*
%TO.P,J3,1,Pin_1*%
%TO.N,ADC_Input1*%
X171500000Y-66310000D03*
D17*
%TO.P,J3,2,Pin_2*%
%TO.N,ADC_Input2*%
X171500000Y-68850000D03*
%TO.P,J3,3,Pin_3*%
%TO.N,ADC_Input3*%
X171500000Y-71390000D03*
%TO.P,J3,4,Pin_4*%
%TO.N,ADC_Input4*%
X171500000Y-73930000D03*
%TD*%
D14*
%TO.P,R2,1*%
%TO.N,Line2*%
X129000000Y-63930000D03*
D15*
%TO.P,R2,2*%
%TO.N,+3.3V*%
X129000000Y-56310000D03*
%TD*%
D13*
%TO.P,C2,1*%
%TO.N,Net-(IC2-VIN+)*%
X151750000Y-63560000D03*
D14*
%TO.P,C2,2*%
%TO.N,GND*%
X151750000Y-66060000D03*
%TD*%
D18*
%TO.P,J2,1,Pin_1*%
%TO.N,+3.3V*%
X147750000Y-41250000D03*
D19*
%TO.P,J2,2,Pin_2*%
%TO.N,GND*%
X152750000Y-41250000D03*
%TD*%
D14*
%TO.P,R1,1*%
%TO.N,Line1*%
X129000000Y-53120000D03*
D15*
%TO.P,R1,2*%
%TO.N,+3.3V*%
X129000000Y-45500000D03*
%TD*%
D16*
%TO.P,J1,1,Pin_1*%
%TO.N,GPIO_Output1*%
X129625000Y-95810000D03*
D17*
%TO.P,J1,2,Pin_2*%
%TO.N,GPIO_Output2*%
X132165000Y-95810000D03*
%TO.P,J1,3,Pin_3*%
%TO.N,Line1*%
X134705000Y-95810000D03*
%TO.P,J1,4,Pin_4*%
%TO.N,Line2*%
X137245000Y-95810000D03*
%TO.P,J1,5,Pin_5*%
%TO.N,Line3*%
X139785000Y-95810000D03*
%TO.P,J1,6,Pin_6*%
%TO.N,Line4*%
X142325000Y-95810000D03*
%TO.P,J1,7,Pin_7*%
%TO.N,GPIO_Output3*%
X144865000Y-95810000D03*
%TO.P,J1,8,Pin_8*%
%TO.N,GPIO_Output4*%
X147405000Y-95810000D03*
%TD*%
D14*
%TO.P,R7,1*%
%TO.N,Line3*%
X139190000Y-74750000D03*
D15*
%TO.P,R7,2*%
%TO.N,Net-(IC3-VIN+)*%
X146810000Y-74750000D03*
%TD*%
D20*
%TO.N,Net-(IC2-VIN+)*%
X151500000Y-63810000D02*
X151750000Y-63560000D01*
D21*
%TO.N,+3.3V*%
X129000000Y-45500000D02*
X130101700Y-45500000D01*
X147750000Y-41250000D02*
X134351700Y-41250000D01*
X134351700Y-41250000D02*
X130101700Y-45500000D01*
%TO.N,Line2*%
X138870000Y-63930000D02*
X139190000Y-64250000D01*
X129000000Y-63930000D02*
X138870000Y-63930000D01*
%TO.N,Line3*%
X129000000Y-74620000D02*
X139060000Y-74620000D01*
X139060000Y-74620000D02*
X139190000Y-74750000D01*
%TO.N,Line4*%
X129000000Y-85370000D02*
X139070000Y-85370000D01*
X139070000Y-85370000D02*
X139130000Y-85310000D01*
D22*
%TO.N,GPIO_Output3*%
X144865000Y-95810000D02*
X144865000Y-94385000D01*
X144865000Y-94385000D02*
X145500000Y-93750000D01*
X145500000Y-93750000D02*
X170750000Y-93750000D01*
X170750000Y-93750000D02*
X171500000Y-93000000D01*
%TO.N,GPIO_Output1*%
X171500000Y-87920000D02*
X169330000Y-87920000D01*
X134500000Y-90000000D02*
X129625000Y-94875000D01*
D20*
X129625000Y-94875000D02*
X129625000Y-95810000D01*
D22*
X167250000Y-90000000D02*
X134500000Y-90000000D01*
X169330000Y-87920000D02*
X167250000Y-90000000D01*
%TO.N,GPIO_Output4*%
X147465000Y-95750000D02*
X171290000Y-95750000D01*
X171290000Y-95750000D02*
X171500000Y-95540000D01*
X147405000Y-95810000D02*
X147465000Y-95750000D01*
%TO.N,GPIO_Output2*%
X132165000Y-94835000D02*
X135250000Y-91750000D01*
X132165000Y-95810000D02*
X132165000Y-94835000D01*
X169790000Y-90460000D02*
X171500000Y-90460000D01*
X135250000Y-91750000D02*
X168500000Y-91750000D01*
X168500000Y-91750000D02*
X169790000Y-90460000D01*
%TD*%
%TA.AperFunction,Conductor*%
%TO.N,GND*%
G36*
X174692539Y-36770185D02*
G01*
X174738294Y-36822989D01*
X174749500Y-36874500D01*
X174749500Y-97875500D01*
X174729815Y-97942539D01*
X174677011Y-97988294D01*
X174625500Y-97999500D01*
X125874500Y-97999500D01*
X125807461Y-97979815D01*
X125761706Y-97927011D01*
X125750500Y-97875500D01*
X125750500Y-94912135D01*
X128274500Y-94912135D01*
X128274500Y-96707870D01*
X128274501Y-96707876D01*
X128280908Y-96767483D01*
X128331202Y-96902328D01*
X128331206Y-96902335D01*
X128417452Y-97017544D01*
X128417455Y-97017547D01*
X128532664Y-97103793D01*
X128532671Y-97103797D01*
X128667517Y-97154091D01*
X128667516Y-97154091D01*
X128674444Y-97154835D01*
X128727127Y-97160500D01*
X130522872Y-97160499D01*
X130582483Y-97154091D01*
X130717331Y-97103796D01*
X130832546Y-97017546D01*
X130918796Y-96902331D01*
X130967810Y-96770916D01*
X131009681Y-96714984D01*
X131075145Y-96690566D01*
X131143418Y-96705417D01*
X131171673Y-96726569D01*
X131293599Y-96848495D01*
X131390384Y-96916265D01*
X131487165Y-96984032D01*
X131487167Y-96984033D01*
X131487170Y-96984035D01*
X131701337Y-97083903D01*
X131929592Y-97145063D01*
X132106034Y-97160500D01*
X132164999Y-97165659D01*
X132165000Y-97165659D01*
X132165001Y-97165659D01*
X132223966Y-97160500D01*
X132400408Y-97145063D01*
X132628663Y-97083903D01*
X132842830Y-96984035D01*
X133036401Y-96848495D01*
X133203495Y-96681401D01*
X133333425Y-96495842D01*
X133388002Y-96452217D01*
X133457500Y-96445023D01*
X133519855Y-96476546D01*
X133536575Y-96495842D01*
X133666505Y-96681401D01*
X133833599Y-96848495D01*
X133930384Y-96916265D01*
X134027165Y-96984032D01*
X134027167Y-96984033D01*
X134027170Y-96984035D01*
X134241337Y-97083903D01*
X134469592Y-97145063D01*
X134646034Y-97160500D01*
X134704999Y-97165659D01*
X134705000Y-97165659D01*
X134705001Y-97165659D01*
X134763966Y-97160500D01*
X134940408Y-97145063D01*
X135168663Y-97083903D01*
X135382830Y-96984035D01*
X135576401Y-96848495D01*
X135743495Y-96681401D01*
X135873425Y-96495842D01*
X135928002Y-96452217D01*
X135997500Y-96445023D01*
X136059855Y-96476546D01*
X136076575Y-96495842D01*
X136206505Y-96681401D01*
X136373599Y-96848495D01*
X136470384Y-96916265D01*
X136567165Y-96984032D01*
X136567167Y-96984033D01*
X136567170Y-96984035D01*
X136781337Y-97083903D01*
X137009592Y-97145063D01*
X137186034Y-97160500D01*
X137244999Y-97165659D01*
X137245000Y-97165659D01*
X137245001Y-97165659D01*
X137303966Y-97160500D01*
X137480408Y-97145063D01*
X137708663Y-97083903D01*
X137922830Y-96984035D01*
X138116401Y-96848495D01*
X138283495Y-96681401D01*
X138413425Y-96495842D01*
X138468002Y-96452217D01*
X138537500Y-96445023D01*
X138599855Y-96476546D01*
X138616575Y-96495842D01*
X138746505Y-96681401D01*
X138913599Y-96848495D01*
X139010384Y-96916265D01*
X139107165Y-96984032D01*
X139107167Y-96984033D01*
X139107170Y-96984035D01*
X139321337Y-97083903D01*
X139549592Y-97145063D01*
X139726034Y-97160500D01*
X139784999Y-97165659D01*
X139785000Y-97165659D01*
X139785001Y-97165659D01*
X139843966Y-97160500D01*
X140020408Y-97145063D01*
X140248663Y-97083903D01*
X140462830Y-96984035D01*
X140656401Y-96848495D01*
X140823495Y-96681401D01*
X140953425Y-96495842D01*
X141008002Y-96452217D01*
X141077500Y-96445023D01*
X141139855Y-96476546D01*
X141156575Y-96495842D01*
X141286505Y-96681401D01*
X141453599Y-96848495D01*
X141550384Y-96916265D01*
X141647165Y-96984032D01*
X141647167Y-96984033D01*
X141647170Y-96984035D01*
X141861337Y-97083903D01*
X142089592Y-97145063D01*
X142266034Y-97160500D01*
X142324999Y-97165659D01*
X142325000Y-97165659D01*
X142325001Y-97165659D01*
X142383966Y-97160500D01*
X142560408Y-97145063D01*
X142788663Y-97083903D01*
X143002830Y-96984035D01*
X143196401Y-96848495D01*
X143363495Y-96681401D01*
X143493425Y-96495842D01*
X143548002Y-96452217D01*
X143617500Y-96445023D01*
X143679855Y-96476546D01*
X143696575Y-96495842D01*
X143826505Y-96681401D01*
X143993599Y-96848495D01*
X144090384Y-96916265D01*
X144187165Y-96984032D01*
X144187167Y-96984033D01*
X144187170Y-96984035D01*
X144401337Y-97083903D01*
X144629592Y-97145063D01*
X144806034Y-97160500D01*
X144864999Y-97165659D01*
X144865000Y-97165659D01*
X144865001Y-97165659D01*
X144923966Y-97160500D01*
X145100408Y-97145063D01*
X145328663Y-97083903D01*
X145542830Y-96984035D01*
X145736401Y-96848495D01*
X145903495Y-96681401D01*
X146033425Y-96495842D01*
X146088002Y-96452217D01*
X146157500Y-96445023D01*
X146219855Y-96476546D01*
X146236575Y-96495842D01*
X146366505Y-96681401D01*
X146533599Y-96848495D01*
X146630384Y-96916265D01*
X146727165Y-96984032D01*
X146727167Y-96984033D01*
X146727170Y-96984035D01*
X146941337Y-97083903D01*
X147169592Y-97145063D01*
X147346034Y-97160500D01*
X147404999Y-97165659D01*
X147405000Y-97165659D01*
X147405001Y-97165659D01*
X147463966Y-97160500D01*
X147640408Y-97145063D01*
X147868663Y-97083903D01*
X148082830Y-96984035D01*
X148276401Y-96848495D01*
X148338077Y-96786819D01*
X148399400Y-96753334D01*
X148425758Y-96750500D01*
X170872879Y-96750500D01*
X170925283Y-96762117D01*
X171036337Y-96813903D01*
X171264592Y-96875063D01*
X171452918Y-96891539D01*
X171499999Y-96895659D01*
X171500000Y-96895659D01*
X171500001Y-96895659D01*
X171539234Y-96892226D01*
X171735408Y-96875063D01*
X171963663Y-96813903D01*
X172177830Y-96714035D01*
X172371401Y-96578495D01*
X172538495Y-96411401D01*
X172674035Y-96217830D01*
X172773903Y-96003663D01*
X172835063Y-95775408D01*
X172855659Y-95540000D01*
X172835063Y-95304592D01*
X172773903Y-95076337D01*
X172674035Y-94862171D01*
X172667276Y-94852517D01*
X172538494Y-94668597D01*
X172371402Y-94501506D01*
X172371396Y-94501501D01*
X172185842Y-94371575D01*
X172142217Y-94316998D01*
X172135023Y-94247500D01*
X172166546Y-94185145D01*
X172185842Y-94168425D01*
X172293331Y-94093160D01*
X172371401Y-94038495D01*
X172538495Y-93871401D01*
X172674035Y-93677830D01*
X172773903Y-93463663D01*
X172835063Y-93235408D01*
X172855659Y-93000000D01*
X172835063Y-92764592D01*
X172773903Y-92536337D01*
X172674035Y-92322171D01*
X172538495Y-92128599D01*
X172538494Y-92128597D01*
X172371402Y-91961506D01*
X172371396Y-91961501D01*
X172185842Y-91831575D01*
X172142217Y-91776998D01*
X172135023Y-91707500D01*
X172166546Y-91645145D01*
X172185842Y-91628425D01*
X172208026Y-91612891D01*
X172371401Y-91498495D01*
X172538495Y-91331401D01*
X172674035Y-91137830D01*
X172773903Y-90923663D01*
X172835063Y-90695408D01*
X172855659Y-90460000D01*
X172835063Y-90224592D01*
X172773903Y-89996337D01*
X172674035Y-89782171D01*
X172538495Y-89588599D01*
X172416567Y-89466671D01*
X172383084Y-89405351D01*
X172388068Y-89335659D01*
X172429939Y-89279725D01*
X172460915Y-89262810D01*
X172592331Y-89213796D01*
X172707546Y-89127546D01*
X172793796Y-89012331D01*
X172844091Y-88877483D01*
X172850500Y-88817873D01*
X172850499Y-87022128D01*
X172844091Y-86962517D01*
X172842387Y-86957949D01*
X172793797Y-86827671D01*
X172793793Y-86827664D01*
X172707547Y-86712455D01*
X172707544Y-86712452D01*
X172592335Y-86626206D01*
X172592328Y-86626202D01*
X172457482Y-86575908D01*
X172457483Y-86575908D01*
X172397883Y-86569501D01*
X172397881Y-86569500D01*
X172397873Y-86569500D01*
X172397864Y-86569500D01*
X170602129Y-86569500D01*
X170602123Y-86569501D01*
X170542516Y-86575908D01*
X170407671Y-86626202D01*
X170407664Y-86626206D01*
X170292455Y-86712452D01*
X170292452Y-86712455D01*
X170206206Y-86827664D01*
X170206204Y-86827668D01*
X170206204Y-86827669D01*
X170202039Y-86838834D01*
X170160171Y-86894766D01*
X170094707Y-86919184D01*
X170085859Y-86919500D01*
X169231455Y-86919500D01*
X169134812Y-86938724D01*
X169038167Y-86957947D01*
X169038161Y-86957949D01*
X168984834Y-86980037D01*
X168984834Y-86980038D01*
X168939315Y-86998892D01*
X168856089Y-87033366D01*
X168856079Y-87033371D01*
X168692219Y-87142859D01*
X168622540Y-87212538D01*
X168552861Y-87282218D01*
X168552858Y-87282221D01*
X167705000Y-88130080D01*
X166871899Y-88963181D01*
X166810576Y-88996666D01*
X166784218Y-88999500D01*
X152601129Y-88999500D01*
X152534090Y-88979815D01*
X152488335Y-88927011D01*
X152483107Y-88896660D01*
X151796447Y-88210000D01*
X151802661Y-88210000D01*
X151904394Y-88182741D01*
X151995606Y-88130080D01*
X152070080Y-88055606D01*
X152122741Y-87964394D01*
X152150000Y-87862661D01*
X152150000Y-87856447D01*
X152829024Y-88535471D01*
X152880136Y-88462478D01*
X152976264Y-88256331D01*
X152976269Y-88256317D01*
X153035139Y-88036610D01*
X153035141Y-88036599D01*
X153054966Y-87810002D01*
X153054966Y-87809997D01*
X153035141Y-87583400D01*
X153035139Y-87583389D01*
X152976269Y-87363682D01*
X152976264Y-87363668D01*
X152880136Y-87157521D01*
X152880132Y-87157513D01*
X152829025Y-87084526D01*
X152150000Y-87763551D01*
X152150000Y-87757339D01*
X152122741Y-87655606D01*
X152070080Y-87564394D01*
X151995606Y-87489920D01*
X151904394Y-87437259D01*
X151802661Y-87410000D01*
X151796448Y-87410000D01*
X152480645Y-86725801D01*
X152490492Y-86676807D01*
X152539107Y-86626624D01*
X152594633Y-86611981D01*
X152594576Y-86610900D01*
X152594571Y-86610854D01*
X152594573Y-86610853D01*
X152594564Y-86610676D01*
X152597857Y-86610499D01*
X152597872Y-86610499D01*
X152657483Y-86604091D01*
X152792331Y-86553796D01*
X152907546Y-86467546D01*
X152993796Y-86352331D01*
X153044091Y-86217483D01*
X153050500Y-86157873D01*
X153050499Y-84462128D01*
X153044091Y-84402517D01*
X153031945Y-84369953D01*
X152993797Y-84267671D01*
X152993793Y-84267664D01*
X152907547Y-84152455D01*
X152907544Y-84152452D01*
X152792335Y-84066206D01*
X152792328Y-84066202D01*
X152657482Y-84015908D01*
X152657483Y-84015908D01*
X152597883Y-84009501D01*
X152597881Y-84009500D01*
X152597873Y-84009500D01*
X152597864Y-84009500D01*
X150902129Y-84009500D01*
X150902123Y-84009501D01*
X150842516Y-84015908D01*
X150707671Y-84066202D01*
X150707664Y-84066206D01*
X150592455Y-84152452D01*
X150592452Y-84152455D01*
X150506206Y-84267664D01*
X150506202Y-84267671D01*
X150455908Y-84402517D01*
X150449501Y-84462116D01*
X150449501Y-84462123D01*
X150449500Y-84462135D01*
X150449500Y-86157870D01*
X150449501Y-86157876D01*
X150455908Y-86217483D01*
X150506202Y-86352328D01*
X150506206Y-86352335D01*
X150592452Y-86467544D01*
X150592455Y-86467547D01*
X150707664Y-86553793D01*
X150707671Y-86553797D01*
X150749774Y-86569500D01*
X150842517Y-86604091D01*
X150902127Y-86610500D01*
X150902153Y-86610499D01*
X150905453Y-86610678D01*
X150905372Y-86612183D01*
X150966672Y-86630112D01*
X151012483Y-86682867D01*
X151020016Y-86726464D01*
X151703553Y-87410000D01*
X151697339Y-87410000D01*
X151595606Y-87437259D01*
X151504394Y-87489920D01*
X151429920Y-87564394D01*
X151377259Y-87655606D01*
X151350000Y-87757339D01*
X151350000Y-87763552D01*
X150670974Y-87084526D01*
X150670973Y-87084526D01*
X150619868Y-87157512D01*
X150619866Y-87157516D01*
X150523734Y-87363673D01*
X150523730Y-87363682D01*
X150464860Y-87583389D01*
X150464858Y-87583400D01*
X150445034Y-87809997D01*
X150445034Y-87810002D01*
X150464858Y-88036599D01*
X150464860Y-88036610D01*
X150523730Y-88256317D01*
X150523735Y-88256331D01*
X150619863Y-88462478D01*
X150670974Y-88535472D01*
X151350000Y-87856446D01*
X151350000Y-87862661D01*
X151377259Y-87964394D01*
X151429920Y-88055606D01*
X151504394Y-88130080D01*
X151595606Y-88182741D01*
X151697339Y-88210000D01*
X151703553Y-88210000D01*
X151015742Y-88897809D01*
X151008630Y-88933195D01*
X150960014Y-88983377D01*
X150898870Y-88999500D01*
X134401458Y-88999500D01*
X134393068Y-89001169D01*
X134336954Y-89012331D01*
X134208167Y-89037947D01*
X134208159Y-89037950D01*
X134154834Y-89060037D01*
X134154834Y-89060038D01*
X134109315Y-89078892D01*
X134026089Y-89113366D01*
X134026079Y-89113371D01*
X133862219Y-89222859D01*
X133823890Y-89261189D01*
X133722861Y-89362218D01*
X128847863Y-94237215D01*
X128847862Y-94237216D01*
X128738366Y-94401090D01*
X128735497Y-94406459D01*
X128733269Y-94405268D01*
X128696320Y-94451071D01*
X128668987Y-94465360D01*
X128532669Y-94516203D01*
X128532664Y-94516206D01*
X128417455Y-94602452D01*
X128417452Y-94602455D01*
X128331206Y-94717664D01*
X128331202Y-94717671D01*
X128280908Y-94852517D01*
X128274501Y-94912116D01*
X128274500Y-94912135D01*
X125750500Y-94912135D01*
X125750500Y-85369998D01*
X127694532Y-85369998D01*
X127694532Y-85370001D01*
X127714364Y-85596686D01*
X127714366Y-85596697D01*
X127773258Y-85816488D01*
X127773261Y-85816497D01*
X127869431Y-86022732D01*
X127869432Y-86022734D01*
X127999954Y-86209141D01*
X128160858Y-86370045D01*
X128160861Y-86370047D01*
X128347266Y-86500568D01*
X128553504Y-86596739D01*
X128553509Y-86596740D01*
X128553511Y-86596741D01*
X128580942Y-86604091D01*
X128773308Y-86655635D01*
X128935230Y-86669801D01*
X128999998Y-86675468D01*
X129000000Y-86675468D01*
X129000002Y-86675468D01*
X129056673Y-86670509D01*
X129226692Y-86655635D01*
X129446496Y-86596739D01*
X129652734Y-86500568D01*
X129839139Y-86370047D01*
X130000047Y-86209139D01*
X130025088Y-86173377D01*
X130079665Y-86129752D01*
X130126663Y-86120500D01*
X138049951Y-86120500D01*
X138116990Y-86140185D01*
X138137632Y-86156819D01*
X138290858Y-86310045D01*
X138290861Y-86310047D01*
X138477266Y-86440568D01*
X138683504Y-86536739D01*
X138903308Y-86595635D01*
X139065230Y-86609801D01*
X139129998Y-86615468D01*
X139130000Y-86615468D01*
X139130002Y-86615468D01*
X139186807Y-86610498D01*
X139356692Y-86595635D01*
X139576496Y-86536739D01*
X139782734Y-86440568D01*
X139969139Y-86310047D01*
X140130047Y-86149139D01*
X140260568Y-85962734D01*
X140356739Y-85756496D01*
X140415635Y-85536692D01*
X140435468Y-85310000D01*
X140435468Y-85309998D01*
X145444532Y-85309998D01*
X145444532Y-85310001D01*
X145464364Y-85536686D01*
X145464366Y-85536697D01*
X145523258Y-85756488D01*
X145523261Y-85756497D01*
X145619431Y-85962732D01*
X145619432Y-85962734D01*
X145749954Y-86149141D01*
X145910858Y-86310045D01*
X145910861Y-86310047D01*
X146097266Y-86440568D01*
X146303504Y-86536739D01*
X146523308Y-86595635D01*
X146685230Y-86609801D01*
X146749998Y-86615468D01*
X146750000Y-86615468D01*
X146750002Y-86615468D01*
X146806807Y-86610498D01*
X146976692Y-86595635D01*
X147196496Y-86536739D01*
X147402734Y-86440568D01*
X147589139Y-86310047D01*
X147750047Y-86149139D01*
X147880568Y-85962734D01*
X147976739Y-85756496D01*
X148035635Y-85536692D01*
X148055468Y-85310000D01*
X148035635Y-85083308D01*
X147976739Y-84863504D01*
X147880568Y-84657266D01*
X147750047Y-84470861D01*
X147750045Y-84470858D01*
X147589141Y-84309954D01*
X147402734Y-84179432D01*
X147402732Y-84179431D01*
X147196497Y-84083261D01*
X147196488Y-84083258D01*
X146976697Y-84024366D01*
X146976693Y-84024365D01*
X146976692Y-84024365D01*
X146976691Y-84024364D01*
X146976686Y-84024364D01*
X146750002Y-84004532D01*
X146749998Y-84004532D01*
X146523313Y-84024364D01*
X146523302Y-84024366D01*
X146303511Y-84083258D01*
X146303502Y-84083261D01*
X146097267Y-84179431D01*
X146097265Y-84179432D01*
X145910858Y-84309954D01*
X145749954Y-84470858D01*
X145619432Y-84657265D01*
X145619431Y-84657267D01*
X145523261Y-84863502D01*
X145523258Y-84863511D01*
X145464366Y-85083302D01*
X145464364Y-85083313D01*
X145444532Y-85309998D01*
X140435468Y-85309998D01*
X140415635Y-85083308D01*
X140356739Y-84863504D01*
X140260568Y-84657266D01*
X140130047Y-84470861D01*
X140130045Y-84470858D01*
X139969141Y-84309954D01*
X139782734Y-84179432D01*
X139782732Y-84179431D01*
X139576497Y-84083261D01*
X139576488Y-84083258D01*
X139356697Y-84024366D01*
X139356693Y-84024365D01*
X139356692Y-84024365D01*
X139356691Y-84024364D01*
X139356686Y-84024364D01*
X139130002Y-84004532D01*
X139129998Y-84004532D01*
X138903313Y-84024364D01*
X138903302Y-84024366D01*
X138683511Y-84083258D01*
X138683502Y-84083261D01*
X138477267Y-84179431D01*
X138477265Y-84179432D01*
X138290858Y-84309954D01*
X138129954Y-84470858D01*
X138062900Y-84566623D01*
X138008323Y-84610248D01*
X137961325Y-84619500D01*
X130126663Y-84619500D01*
X130059624Y-84599815D01*
X130025088Y-84566623D01*
X130000045Y-84530858D01*
X129839141Y-84369954D01*
X129652734Y-84239432D01*
X129652732Y-84239431D01*
X129446497Y-84143261D01*
X129446488Y-84143258D01*
X129226697Y-84084366D01*
X129226693Y-84084365D01*
X129226692Y-84084365D01*
X129226691Y-84084364D01*
X129226686Y-84084364D01*
X129000002Y-84064532D01*
X128999998Y-84064532D01*
X128773313Y-84084364D01*
X128773302Y-84084366D01*
X128553511Y-84143258D01*
X128553502Y-84143261D01*
X128347267Y-84239431D01*
X128347265Y-84239432D01*
X128160858Y-84369954D01*
X127999954Y-84530858D01*
X127869432Y-84717265D01*
X127869431Y-84717267D01*
X127773261Y-84923502D01*
X127773258Y-84923511D01*
X127714366Y-85143302D01*
X127714364Y-85143313D01*
X127694532Y-85369998D01*
X125750500Y-85369998D01*
X125750500Y-77749998D01*
X127694532Y-77749998D01*
X127694532Y-77750001D01*
X127714364Y-77976686D01*
X127714366Y-77976697D01*
X127773258Y-78196488D01*
X127773261Y-78196497D01*
X127869431Y-78402732D01*
X127869432Y-78402734D01*
X127999954Y-78589141D01*
X128160858Y-78750045D01*
X128160861Y-78750047D01*
X128347266Y-78880568D01*
X128553504Y-78976739D01*
X128773308Y-79035635D01*
X128935230Y-79049801D01*
X128999998Y-79055468D01*
X129000000Y-79055468D01*
X129000002Y-79055468D01*
X129056673Y-79050509D01*
X129226692Y-79035635D01*
X129446496Y-78976739D01*
X129652734Y-78880568D01*
X129839139Y-78750047D01*
X130000047Y-78589139D01*
X130130568Y-78402734D01*
X130226739Y-78196496D01*
X130285635Y-77976692D01*
X130305468Y-77750000D01*
X130285635Y-77523308D01*
X130226739Y-77303504D01*
X130130568Y-77097266D01*
X130104472Y-77059997D01*
X150445034Y-77059997D01*
X150445034Y-77060002D01*
X150464858Y-77286599D01*
X150464860Y-77286610D01*
X150523730Y-77506317D01*
X150523735Y-77506331D01*
X150619863Y-77712478D01*
X150670974Y-77785472D01*
X151350000Y-77106446D01*
X151350000Y-77112661D01*
X151377259Y-77214394D01*
X151429920Y-77305606D01*
X151504394Y-77380080D01*
X151595606Y-77432741D01*
X151697339Y-77460000D01*
X151703553Y-77460000D01*
X151024526Y-78139025D01*
X151097513Y-78190132D01*
X151097521Y-78190136D01*
X151303668Y-78286264D01*
X151303682Y-78286269D01*
X151523389Y-78345139D01*
X151523400Y-78345141D01*
X151749998Y-78364966D01*
X151750002Y-78364966D01*
X151976599Y-78345141D01*
X151976610Y-78345139D01*
X152196317Y-78286269D01*
X152196331Y-78286264D01*
X152402478Y-78190136D01*
X152475471Y-78139024D01*
X151796447Y-77460000D01*
X151802661Y-77460000D01*
X151904394Y-77432741D01*
X151995606Y-77380080D01*
X152070080Y-77305606D01*
X152122741Y-77214394D01*
X152150000Y-77112661D01*
X152150000Y-77106447D01*
X152829024Y-77785471D01*
X152880136Y-77712478D01*
X152976264Y-77506331D01*
X152976269Y-77506317D01*
X153035139Y-77286610D01*
X153035141Y-77286599D01*
X153054966Y-77060002D01*
X153054966Y-77059997D01*
X153035141Y-76833400D01*
X153035139Y-76833389D01*
X152976269Y-76613682D01*
X152976264Y-76613668D01*
X152880136Y-76407521D01*
X152880132Y-76407513D01*
X152829025Y-76334526D01*
X152150000Y-77013551D01*
X152150000Y-77007339D01*
X152122741Y-76905606D01*
X152070080Y-76814394D01*
X151995606Y-76739920D01*
X151904394Y-76687259D01*
X151802661Y-76660000D01*
X151796448Y-76660000D01*
X152480645Y-75975801D01*
X152490492Y-75926807D01*
X152539107Y-75876624D01*
X152594633Y-75861981D01*
X152594576Y-75860900D01*
X152594571Y-75860854D01*
X152594573Y-75860853D01*
X152594564Y-75860676D01*
X152597857Y-75860499D01*
X152597872Y-75860499D01*
X152657483Y-75854091D01*
X152792331Y-75803796D01*
X152907546Y-75717546D01*
X152993796Y-75602331D01*
X153044091Y-75467483D01*
X153050500Y-75407873D01*
X153050499Y-73712128D01*
X153044091Y-73652517D01*
X153031945Y-73619953D01*
X152993797Y-73517671D01*
X152993793Y-73517664D01*
X152907547Y-73402455D01*
X152907544Y-73402452D01*
X152792335Y-73316206D01*
X152792328Y-73316202D01*
X152657482Y-73265908D01*
X152657483Y-73265908D01*
X152597883Y-73259501D01*
X152597881Y-73259500D01*
X152597873Y-73259500D01*
X152597864Y-73259500D01*
X150902129Y-73259500D01*
X150902123Y-73259501D01*
X150842516Y-73265908D01*
X150707671Y-73316202D01*
X150707664Y-73316206D01*
X150592455Y-73402452D01*
X150592452Y-73402455D01*
X150506206Y-73517664D01*
X150506202Y-73517671D01*
X150455908Y-73652517D01*
X150449501Y-73712116D01*
X150449501Y-73712123D01*
X150449500Y-73712135D01*
X150449500Y-75407870D01*
X150449501Y-75407876D01*
X150455908Y-75467483D01*
X150506202Y-75602328D01*
X150506206Y-75602335D01*
X150592452Y-75717544D01*
X150592455Y-75717547D01*
X150707664Y-75803793D01*
X150707671Y-75803797D01*
X150752618Y-75820561D01*
X150842517Y-75854091D01*
X150902127Y-75860500D01*
X150902153Y-75860499D01*
X150905453Y-75860678D01*
X150905372Y-75862183D01*
X150966672Y-75880112D01*
X151012483Y-75932867D01*
X151020016Y-75976464D01*
X151703553Y-76660000D01*
X151697339Y-76660000D01*
X151595606Y-76687259D01*
X151504394Y-76739920D01*
X151429920Y-76814394D01*
X151377259Y-76905606D01*
X151350000Y-77007339D01*
X151350000Y-77013552D01*
X150670974Y-76334526D01*
X150670973Y-76334526D01*
X150619868Y-76407512D01*
X150619866Y-76407516D01*
X150523734Y-76613673D01*
X150523730Y-76613682D01*
X150464860Y-76833389D01*
X150464858Y-76833400D01*
X150445034Y-77059997D01*
X130104472Y-77059997D01*
X130000047Y-76910861D01*
X130000045Y-76910858D01*
X129839141Y-76749954D01*
X129652734Y-76619432D01*
X129652732Y-76619431D01*
X129446497Y-76523261D01*
X129446488Y-76523258D01*
X129226697Y-76464366D01*
X129226693Y-76464365D01*
X129226692Y-76464365D01*
X129226691Y-76464364D01*
X129226686Y-76464364D01*
X129000002Y-76444532D01*
X128999998Y-76444532D01*
X128773313Y-76464364D01*
X128773302Y-76464366D01*
X128553511Y-76523258D01*
X128553502Y-76523261D01*
X128347267Y-76619431D01*
X128347265Y-76619432D01*
X128160858Y-76749954D01*
X127999954Y-76910858D01*
X127869432Y-77097265D01*
X127869431Y-77097267D01*
X127773261Y-77303502D01*
X127773258Y-77303511D01*
X127714366Y-77523302D01*
X127714364Y-77523313D01*
X127694532Y-77749998D01*
X125750500Y-77749998D01*
X125750500Y-74619998D01*
X127694532Y-74619998D01*
X127694532Y-74620001D01*
X127714364Y-74846686D01*
X127714366Y-74846697D01*
X127773258Y-75066488D01*
X127773261Y-75066497D01*
X127869431Y-75272732D01*
X127869432Y-75272734D01*
X127999954Y-75459141D01*
X128160858Y-75620045D01*
X128160861Y-75620047D01*
X128347266Y-75750568D01*
X128553504Y-75846739D01*
X128553509Y-75846740D01*
X128553511Y-75846741D01*
X128580942Y-75854091D01*
X128773308Y-75905635D01*
X128935230Y-75919801D01*
X128999998Y-75925468D01*
X129000000Y-75925468D01*
X129000002Y-75925468D01*
X129056673Y-75920509D01*
X129226692Y-75905635D01*
X129446496Y-75846739D01*
X129652734Y-75750568D01*
X129839139Y-75620047D01*
X130000047Y-75459139D01*
X130025088Y-75423377D01*
X130079665Y-75379752D01*
X130126663Y-75370500D01*
X137972312Y-75370500D01*
X138039351Y-75390185D01*
X138073884Y-75423374D01*
X138149455Y-75531302D01*
X138189954Y-75589141D01*
X138350858Y-75750045D01*
X138350861Y-75750047D01*
X138537266Y-75880568D01*
X138743504Y-75976739D01*
X138963308Y-76035635D01*
X139125230Y-76049801D01*
X139189998Y-76055468D01*
X139190000Y-76055468D01*
X139190002Y-76055468D01*
X139246673Y-76050509D01*
X139416692Y-76035635D01*
X139636496Y-75976739D01*
X139842734Y-75880568D01*
X140029139Y-75750047D01*
X140190047Y-75589139D01*
X140320568Y-75402734D01*
X140416739Y-75196496D01*
X140475635Y-74976692D01*
X140495468Y-74750000D01*
X140495468Y-74749998D01*
X145504532Y-74749998D01*
X145504532Y-74750001D01*
X145524364Y-74976686D01*
X145524366Y-74976697D01*
X145583258Y-75196488D01*
X145583261Y-75196497D01*
X145679431Y-75402732D01*
X145679432Y-75402734D01*
X145809954Y-75589141D01*
X145970858Y-75750045D01*
X145970861Y-75750047D01*
X146157266Y-75880568D01*
X146363504Y-75976739D01*
X146583308Y-76035635D01*
X146745230Y-76049801D01*
X146809998Y-76055468D01*
X146810000Y-76055468D01*
X146810002Y-76055468D01*
X146866673Y-76050509D01*
X147036692Y-76035635D01*
X147256496Y-75976739D01*
X147462734Y-75880568D01*
X147649139Y-75750047D01*
X147810047Y-75589139D01*
X147940568Y-75402734D01*
X148036739Y-75196496D01*
X148095635Y-74976692D01*
X148115468Y-74750000D01*
X148095635Y-74523308D01*
X148036739Y-74303504D01*
X147940568Y-74097266D01*
X147823448Y-73930000D01*
X147810045Y-73910858D01*
X147649141Y-73749954D01*
X147462734Y-73619432D01*
X147462732Y-73619431D01*
X147256497Y-73523261D01*
X147256488Y-73523258D01*
X147036697Y-73464366D01*
X147036693Y-73464365D01*
X147036692Y-73464365D01*
X147036691Y-73464364D01*
X147036686Y-73464364D01*
X146810002Y-73444532D01*
X146809998Y-73444532D01*
X146583313Y-73464364D01*
X146583302Y-73464366D01*
X146363511Y-73523258D01*
X146363502Y-73523261D01*
X146157267Y-73619431D01*
X146157265Y-73619432D01*
X145970858Y-73749954D01*
X145809954Y-73910858D01*
X145679432Y-74097265D01*
X145679431Y-74097267D01*
X145583261Y-74303502D01*
X145583258Y-74303511D01*
X145524366Y-74523302D01*
X145524364Y-74523313D01*
X145504532Y-74749998D01*
X140495468Y-74749998D01*
X140475635Y-74523308D01*
X140416739Y-74303504D01*
X140320568Y-74097266D01*
X140203448Y-73930000D01*
X140190045Y-73910858D01*
X140029141Y-73749954D01*
X139842734Y-73619432D01*
X139842732Y-73619431D01*
X139636497Y-73523261D01*
X139636488Y-73523258D01*
X139416697Y-73464366D01*
X139416693Y-73464365D01*
X139416692Y-73464365D01*
X139416691Y-73464364D01*
X139416686Y-73464364D01*
X139190002Y-73444532D01*
X139189998Y-73444532D01*
X138963313Y-73464364D01*
X138963302Y-73464366D01*
X138743511Y-73523258D01*
X138743502Y-73523261D01*
X138537267Y-73619431D01*
X138537265Y-73619432D01*
X138350862Y-73749951D01*
X138319956Y-73780858D01*
X138267631Y-73833182D01*
X138206311Y-73866666D01*
X138179952Y-73869500D01*
X130126663Y-73869500D01*
X130059624Y-73849815D01*
X130025088Y-73816623D01*
X130000045Y-73780858D01*
X129839141Y-73619954D01*
X129652734Y-73489432D01*
X129652732Y-73489431D01*
X129446497Y-73393261D01*
X129446488Y-73393258D01*
X129226697Y-73334366D01*
X129226693Y-73334365D01*
X129226692Y-73334365D01*
X129226691Y-73334364D01*
X129226686Y-73334364D01*
X129000002Y-73314532D01*
X128999998Y-73314532D01*
X128773313Y-73334364D01*
X128773302Y-73334366D01*
X128553511Y-73393258D01*
X128553502Y-73393261D01*
X128347267Y-73489431D01*
X128347265Y-73489432D01*
X128160858Y-73619954D01*
X127999954Y-73780858D01*
X127869432Y-73967265D01*
X127869431Y-73967267D01*
X127773261Y-74173502D01*
X127773258Y-74173511D01*
X127714366Y-74393302D01*
X127714364Y-74393313D01*
X127694532Y-74619998D01*
X125750500Y-74619998D01*
X125750500Y-68849999D01*
X170144341Y-68849999D01*
X170144341Y-68850000D01*
X170164936Y-69085403D01*
X170164938Y-69085413D01*
X170226094Y-69313655D01*
X170226096Y-69313659D01*
X170226097Y-69313663D01*
X170325965Y-69527830D01*
X170325967Y-69527834D01*
X170461501Y-69721395D01*
X170461506Y-69721402D01*
X170628597Y-69888493D01*
X170628603Y-69888498D01*
X170814158Y-70018425D01*
X170857783Y-70073002D01*
X170864977Y-70142500D01*
X170833454Y-70204855D01*
X170814158Y-70221575D01*
X170628597Y-70351505D01*
X170461505Y-70518597D01*
X170325965Y-70712169D01*
X170325964Y-70712171D01*
X170226098Y-70926335D01*
X170226094Y-70926344D01*
X170164938Y-71154586D01*
X170164936Y-71154596D01*
X170144341Y-71389999D01*
X170144341Y-71390000D01*
X170164936Y-71625403D01*
X170164938Y-71625413D01*
X170226094Y-71853655D01*
X170226096Y-71853659D01*
X170226097Y-71853663D01*
X170325965Y-72067830D01*
X170325967Y-72067834D01*
X170461501Y-72261395D01*
X170461506Y-72261402D01*
X170628597Y-72428493D01*
X170628603Y-72428498D01*
X170814158Y-72558425D01*
X170857783Y-72613002D01*
X170864977Y-72682500D01*
X170833454Y-72744855D01*
X170814158Y-72761575D01*
X170628597Y-72891505D01*
X170461505Y-73058597D01*
X170325965Y-73252169D01*
X170325964Y-73252171D01*
X170226098Y-73466335D01*
X170226094Y-73466344D01*
X170164938Y-73694586D01*
X170164936Y-73694596D01*
X170144341Y-73929999D01*
X170144341Y-73930000D01*
X170164936Y-74165403D01*
X170164938Y-74165413D01*
X170226094Y-74393655D01*
X170226096Y-74393659D01*
X170226097Y-74393663D01*
X170286549Y-74523302D01*
X170325965Y-74607830D01*
X170325967Y-74607834D01*
X170425512Y-74749998D01*
X170461505Y-74801401D01*
X170628599Y-74968495D01*
X170640306Y-74976692D01*
X170822165Y-75104032D01*
X170822167Y-75104033D01*
X170822170Y-75104035D01*
X171036337Y-75203903D01*
X171264592Y-75265063D01*
X171452918Y-75281539D01*
X171499999Y-75285659D01*
X171500000Y-75285659D01*
X171500001Y-75285659D01*
X171539234Y-75282226D01*
X171735408Y-75265063D01*
X171963663Y-75203903D01*
X172177830Y-75104035D01*
X172371401Y-74968495D01*
X172538495Y-74801401D01*
X172674035Y-74607830D01*
X172773903Y-74393663D01*
X172835063Y-74165408D01*
X172855659Y-73930000D01*
X172835063Y-73694592D01*
X172773903Y-73466337D01*
X172674035Y-73252171D01*
X172538495Y-73058599D01*
X172538494Y-73058597D01*
X172371402Y-72891506D01*
X172371396Y-72891501D01*
X172185842Y-72761575D01*
X172142217Y-72706998D01*
X172135023Y-72637500D01*
X172166546Y-72575145D01*
X172185842Y-72558425D01*
X172208026Y-72542891D01*
X172371401Y-72428495D01*
X172538495Y-72261401D01*
X172674035Y-72067830D01*
X172773903Y-71853663D01*
X172835063Y-71625408D01*
X172855659Y-71390000D01*
X172835063Y-71154592D01*
X172773903Y-70926337D01*
X172674035Y-70712171D01*
X172538495Y-70518599D01*
X172538494Y-70518597D01*
X172371402Y-70351506D01*
X172371396Y-70351501D01*
X172185842Y-70221575D01*
X172142217Y-70166998D01*
X172135023Y-70097500D01*
X172166546Y-70035145D01*
X172185842Y-70018425D01*
X172208026Y-70002891D01*
X172371401Y-69888495D01*
X172538495Y-69721401D01*
X172674035Y-69527830D01*
X172773903Y-69313663D01*
X172835063Y-69085408D01*
X172855659Y-68850000D01*
X172835063Y-68614592D01*
X172773903Y-68386337D01*
X172674035Y-68172171D01*
X172644904Y-68130568D01*
X172538496Y-67978600D01*
X172538495Y-67978599D01*
X172416567Y-67856671D01*
X172383084Y-67795351D01*
X172388068Y-67725659D01*
X172429939Y-67669725D01*
X172460915Y-67652810D01*
X172592331Y-67603796D01*
X172707546Y-67517546D01*
X172793796Y-67402331D01*
X172844091Y-67267483D01*
X172850500Y-67207873D01*
X172850499Y-65412128D01*
X172844091Y-65352517D01*
X172805871Y-65250045D01*
X172793797Y-65217671D01*
X172793793Y-65217664D01*
X172707547Y-65102455D01*
X172707544Y-65102452D01*
X172592335Y-65016206D01*
X172592328Y-65016202D01*
X172457482Y-64965908D01*
X172457483Y-64965908D01*
X172397883Y-64959501D01*
X172397881Y-64959500D01*
X172397873Y-64959500D01*
X172397864Y-64959500D01*
X170602129Y-64959500D01*
X170602123Y-64959501D01*
X170542516Y-64965908D01*
X170407671Y-65016202D01*
X170407664Y-65016206D01*
X170292455Y-65102452D01*
X170292452Y-65102455D01*
X170206206Y-65217664D01*
X170206202Y-65217671D01*
X170155908Y-65352517D01*
X170149996Y-65407512D01*
X170149501Y-65412123D01*
X170149500Y-65412135D01*
X170149500Y-67207870D01*
X170149501Y-67207876D01*
X170155908Y-67267483D01*
X170206202Y-67402328D01*
X170206206Y-67402335D01*
X170292452Y-67517544D01*
X170292455Y-67517547D01*
X170407664Y-67603793D01*
X170407671Y-67603797D01*
X170539081Y-67652810D01*
X170595015Y-67694681D01*
X170619432Y-67760145D01*
X170604580Y-67828418D01*
X170583430Y-67856673D01*
X170461503Y-67978600D01*
X170325965Y-68172169D01*
X170325964Y-68172171D01*
X170226098Y-68386335D01*
X170226094Y-68386344D01*
X170164938Y-68614586D01*
X170164936Y-68614596D01*
X170144341Y-68849999D01*
X125750500Y-68849999D01*
X125750500Y-66999998D01*
X127694532Y-66999998D01*
X127694532Y-67000001D01*
X127714364Y-67226686D01*
X127714366Y-67226697D01*
X127773258Y-67446488D01*
X127773261Y-67446497D01*
X127869431Y-67652732D01*
X127869432Y-67652734D01*
X127999954Y-67839141D01*
X128160858Y-68000045D01*
X128160861Y-68000047D01*
X128347266Y-68130568D01*
X128553504Y-68226739D01*
X128773308Y-68285635D01*
X128935230Y-68299801D01*
X128999998Y-68305468D01*
X129000000Y-68305468D01*
X129000002Y-68305468D01*
X129056673Y-68300509D01*
X129226692Y-68285635D01*
X129446496Y-68226739D01*
X129652734Y-68130568D01*
X129839139Y-68000047D01*
X130000047Y-67839139D01*
X130130568Y-67652734D01*
X130226739Y-67446496D01*
X130285635Y-67226692D01*
X130305468Y-67000000D01*
X130285635Y-66773308D01*
X130226739Y-66553504D01*
X130130568Y-66347266D01*
X130000047Y-66160861D01*
X130000045Y-66160858D01*
X129899184Y-66059997D01*
X150445034Y-66059997D01*
X150445034Y-66060002D01*
X150464858Y-66286599D01*
X150464860Y-66286610D01*
X150523730Y-66506317D01*
X150523735Y-66506331D01*
X150619863Y-66712478D01*
X150670974Y-66785472D01*
X151350000Y-66106446D01*
X151350000Y-66112661D01*
X151377259Y-66214394D01*
X151429920Y-66305606D01*
X151504394Y-66380080D01*
X151595606Y-66432741D01*
X151697339Y-66460000D01*
X151703553Y-66460000D01*
X151024526Y-67139025D01*
X151097513Y-67190132D01*
X151097521Y-67190136D01*
X151303668Y-67286264D01*
X151303682Y-67286269D01*
X151523389Y-67345139D01*
X151523400Y-67345141D01*
X151749998Y-67364966D01*
X151750002Y-67364966D01*
X151976599Y-67345141D01*
X151976610Y-67345139D01*
X152196317Y-67286269D01*
X152196331Y-67286264D01*
X152402478Y-67190136D01*
X152475471Y-67139024D01*
X151796447Y-66460000D01*
X151802661Y-66460000D01*
X151904394Y-66432741D01*
X151995606Y-66380080D01*
X152070080Y-66305606D01*
X152122741Y-66214394D01*
X152150000Y-66112661D01*
X152150000Y-66106447D01*
X152829024Y-66785471D01*
X152880136Y-66712478D01*
X152976264Y-66506331D01*
X152976269Y-66506317D01*
X153035139Y-66286610D01*
X153035141Y-66286599D01*
X153054966Y-66060002D01*
X153054966Y-66059997D01*
X153035141Y-65833400D01*
X153035139Y-65833389D01*
X152976269Y-65613682D01*
X152976264Y-65613668D01*
X152880136Y-65407521D01*
X152880132Y-65407513D01*
X152829025Y-65334526D01*
X152150000Y-66013551D01*
X152150000Y-66007339D01*
X152122741Y-65905606D01*
X152070080Y-65814394D01*
X151995606Y-65739920D01*
X151904394Y-65687259D01*
X151802661Y-65660000D01*
X151796448Y-65660000D01*
X152480645Y-64975801D01*
X152490492Y-64926807D01*
X152539107Y-64876624D01*
X152594633Y-64861981D01*
X152594576Y-64860900D01*
X152594571Y-64860854D01*
X152594573Y-64860853D01*
X152594564Y-64860676D01*
X152597857Y-64860499D01*
X152597872Y-64860499D01*
X152657483Y-64854091D01*
X152792331Y-64803796D01*
X152907546Y-64717546D01*
X152993796Y-64602331D01*
X153044091Y-64467483D01*
X153050500Y-64407873D01*
X153050499Y-62712128D01*
X153044091Y-62652517D01*
X153033653Y-62624532D01*
X152993797Y-62517671D01*
X152993793Y-62517664D01*
X152907547Y-62402455D01*
X152907544Y-62402452D01*
X152792335Y-62316206D01*
X152792328Y-62316202D01*
X152657482Y-62265908D01*
X152657483Y-62265908D01*
X152597883Y-62259501D01*
X152597881Y-62259500D01*
X152597873Y-62259500D01*
X152597864Y-62259500D01*
X150902129Y-62259500D01*
X150902123Y-62259501D01*
X150842516Y-62265908D01*
X150707671Y-62316202D01*
X150707664Y-62316206D01*
X150592455Y-62402452D01*
X150592452Y-62402455D01*
X150506206Y-62517664D01*
X150506202Y-62517671D01*
X150455908Y-62652517D01*
X150450453Y-62703261D01*
X150449501Y-62712123D01*
X150449500Y-62712135D01*
X150449500Y-64407870D01*
X150449501Y-64407876D01*
X150455908Y-64467483D01*
X150506202Y-64602328D01*
X150506206Y-64602335D01*
X150592452Y-64717544D01*
X150592455Y-64717547D01*
X150707664Y-64803793D01*
X150707671Y-64803797D01*
X150752618Y-64820561D01*
X150842517Y-64854091D01*
X150902127Y-64860500D01*
X150902153Y-64860499D01*
X150905453Y-64860678D01*
X150905372Y-64862183D01*
X150966672Y-64880112D01*
X151012483Y-64932867D01*
X151020016Y-64976464D01*
X151703553Y-65660000D01*
X151697339Y-65660000D01*
X151595606Y-65687259D01*
X151504394Y-65739920D01*
X151429920Y-65814394D01*
X151377259Y-65905606D01*
X151350000Y-66007339D01*
X151350000Y-66013552D01*
X150670974Y-65334526D01*
X150670973Y-65334526D01*
X150619868Y-65407512D01*
X150619866Y-65407516D01*
X150523734Y-65613673D01*
X150523730Y-65613682D01*
X150464860Y-65833389D01*
X150464858Y-65833400D01*
X150445034Y-66059997D01*
X129899184Y-66059997D01*
X129839141Y-65999954D01*
X129652734Y-65869432D01*
X129652732Y-65869431D01*
X129446497Y-65773261D01*
X129446488Y-65773258D01*
X129226697Y-65714366D01*
X129226693Y-65714365D01*
X129226692Y-65714365D01*
X129226691Y-65714364D01*
X129226686Y-65714364D01*
X129000002Y-65694532D01*
X128999998Y-65694532D01*
X128773313Y-65714364D01*
X128773302Y-65714366D01*
X128553511Y-65773258D01*
X128553502Y-65773261D01*
X128347267Y-65869431D01*
X128347265Y-65869432D01*
X128160858Y-65999954D01*
X127999954Y-66160858D01*
X127869432Y-66347265D01*
X127869431Y-66347267D01*
X127773261Y-66553502D01*
X127773258Y-66553511D01*
X127714366Y-66773302D01*
X127714364Y-66773313D01*
X127694532Y-66999998D01*
X125750500Y-66999998D01*
X125750500Y-63929998D01*
X127694532Y-63929998D01*
X127694532Y-63930001D01*
X127714364Y-64156686D01*
X127714366Y-64156697D01*
X127773258Y-64376488D01*
X127773261Y-64376497D01*
X127869431Y-64582732D01*
X127869432Y-64582734D01*
X127999954Y-64769141D01*
X128160858Y-64930045D01*
X128160861Y-64930047D01*
X128347266Y-65060568D01*
X128553504Y-65156739D01*
X128773308Y-65215635D01*
X128935230Y-65229801D01*
X128999998Y-65235468D01*
X129000000Y-65235468D01*
X129000002Y-65235468D01*
X129056673Y-65230509D01*
X129226692Y-65215635D01*
X129446496Y-65156739D01*
X129652734Y-65060568D01*
X129839139Y-64930047D01*
X130000047Y-64769139D01*
X130025088Y-64733377D01*
X130079665Y-64689752D01*
X130126663Y-64680500D01*
X137876806Y-64680500D01*
X137943845Y-64700185D01*
X137989186Y-64752093D01*
X138040523Y-64862183D01*
X138059431Y-64902732D01*
X138059432Y-64902734D01*
X138189954Y-65089141D01*
X138350858Y-65250045D01*
X138350861Y-65250047D01*
X138537266Y-65380568D01*
X138743504Y-65476739D01*
X138963308Y-65535635D01*
X139125230Y-65549801D01*
X139189998Y-65555468D01*
X139190000Y-65555468D01*
X139190002Y-65555468D01*
X139246673Y-65550509D01*
X139416692Y-65535635D01*
X139636496Y-65476739D01*
X139842734Y-65380568D01*
X140029139Y-65250047D01*
X140190047Y-65089139D01*
X140320568Y-64902734D01*
X140416739Y-64696496D01*
X140475635Y-64476692D01*
X140495468Y-64250000D01*
X140495468Y-64249998D01*
X145504532Y-64249998D01*
X145504532Y-64250001D01*
X145524364Y-64476686D01*
X145524366Y-64476697D01*
X145583258Y-64696488D01*
X145583261Y-64696497D01*
X145679431Y-64902732D01*
X145679432Y-64902734D01*
X145809954Y-65089141D01*
X145970858Y-65250045D01*
X145970861Y-65250047D01*
X146157266Y-65380568D01*
X146363504Y-65476739D01*
X146583308Y-65535635D01*
X146745230Y-65549801D01*
X146809998Y-65555468D01*
X146810000Y-65555468D01*
X146810002Y-65555468D01*
X146866673Y-65550509D01*
X147036692Y-65535635D01*
X147256496Y-65476739D01*
X147462734Y-65380568D01*
X147649139Y-65250047D01*
X147810047Y-65089139D01*
X147940568Y-64902734D01*
X148036739Y-64696496D01*
X148095635Y-64476692D01*
X148115468Y-64250000D01*
X148095635Y-64023308D01*
X148036739Y-63803504D01*
X147940568Y-63597266D01*
X147810047Y-63410861D01*
X147810045Y-63410858D01*
X147649141Y-63249954D01*
X147462734Y-63119432D01*
X147462732Y-63119431D01*
X147256497Y-63023261D01*
X147256488Y-63023258D01*
X147036697Y-62964366D01*
X147036693Y-62964365D01*
X147036692Y-62964365D01*
X147036691Y-62964364D01*
X147036686Y-62964364D01*
X146810002Y-62944532D01*
X146809998Y-62944532D01*
X146583313Y-62964364D01*
X146583302Y-62964366D01*
X146363511Y-63023258D01*
X146363502Y-63023261D01*
X146157267Y-63119431D01*
X146157265Y-63119432D01*
X145970858Y-63249954D01*
X145809954Y-63410858D01*
X145679432Y-63597265D01*
X145679431Y-63597267D01*
X145583261Y-63803502D01*
X145583258Y-63803511D01*
X145524366Y-64023302D01*
X145524364Y-64023313D01*
X145504532Y-64249998D01*
X140495468Y-64249998D01*
X140475635Y-64023308D01*
X140416739Y-63803504D01*
X140320568Y-63597266D01*
X140190047Y-63410861D01*
X140190045Y-63410858D01*
X140029141Y-63249954D01*
X139842734Y-63119432D01*
X139842732Y-63119431D01*
X139636497Y-63023261D01*
X139636488Y-63023258D01*
X139416697Y-62964366D01*
X139416693Y-62964365D01*
X139416692Y-62964365D01*
X139416691Y-62964364D01*
X139416686Y-62964364D01*
X139190002Y-62944532D01*
X139189998Y-62944532D01*
X138963313Y-62964364D01*
X138963302Y-62964366D01*
X138743511Y-63023258D01*
X138743502Y-63023261D01*
X138537267Y-63119431D01*
X138537265Y-63119432D01*
X138483506Y-63157075D01*
X138417300Y-63179402D01*
X138412383Y-63179500D01*
X130126663Y-63179500D01*
X130059624Y-63159815D01*
X130025088Y-63126623D01*
X130000045Y-63090858D01*
X129839141Y-62929954D01*
X129652734Y-62799432D01*
X129652732Y-62799431D01*
X129446497Y-62703261D01*
X129446488Y-62703258D01*
X129226697Y-62644366D01*
X129226693Y-62644365D01*
X129226692Y-62644365D01*
X129226691Y-62644364D01*
X129226686Y-62644364D01*
X129000002Y-62624532D01*
X128999998Y-62624532D01*
X128773313Y-62644364D01*
X128773302Y-62644366D01*
X128553511Y-62703258D01*
X128553502Y-62703261D01*
X128347267Y-62799431D01*
X128347265Y-62799432D01*
X128160858Y-62929954D01*
X127999954Y-63090858D01*
X127869432Y-63277265D01*
X127869431Y-63277267D01*
X127773261Y-63483502D01*
X127773258Y-63483511D01*
X127714366Y-63703302D01*
X127714364Y-63703313D01*
X127694532Y-63929998D01*
X125750500Y-63929998D01*
X125750500Y-56309998D01*
X127694532Y-56309998D01*
X127694532Y-56310001D01*
X127714364Y-56536686D01*
X127714366Y-56536697D01*
X127773258Y-56756488D01*
X127773261Y-56756497D01*
X127869431Y-56962732D01*
X127869432Y-56962734D01*
X127999954Y-57149141D01*
X128160858Y-57310045D01*
X128160861Y-57310047D01*
X128347266Y-57440568D01*
X128553504Y-57536739D01*
X128773308Y-57595635D01*
X128935230Y-57609801D01*
X128999998Y-57615468D01*
X129000000Y-57615468D01*
X129000002Y-57615468D01*
X129056673Y-57610509D01*
X129226692Y-57595635D01*
X129446496Y-57536739D01*
X129652734Y-57440568D01*
X129839139Y-57310047D01*
X130000047Y-57149139D01*
X130130568Y-56962734D01*
X130226739Y-56756496D01*
X130285635Y-56536692D01*
X130305468Y-56310000D01*
X130285635Y-56083308D01*
X130226739Y-55863504D01*
X130130568Y-55657266D01*
X130000047Y-55470861D01*
X130000045Y-55470858D01*
X129839141Y-55309954D01*
X129652734Y-55179432D01*
X129652732Y-55179431D01*
X129446497Y-55083261D01*
X129446488Y-55083258D01*
X129359676Y-55059997D01*
X150445034Y-55059997D01*
X150445034Y-55060002D01*
X150464858Y-55286599D01*
X150464860Y-55286610D01*
X150523730Y-55506317D01*
X150523735Y-55506331D01*
X150619863Y-55712478D01*
X150670974Y-55785472D01*
X151350000Y-55106446D01*
X151350000Y-55112661D01*
X151377259Y-55214394D01*
X151429920Y-55305606D01*
X151504394Y-55380080D01*
X151595606Y-55432741D01*
X151697339Y-55460000D01*
X151703553Y-55460000D01*
X151024526Y-56139025D01*
X151097513Y-56190132D01*
X151097521Y-56190136D01*
X151303668Y-56286264D01*
X151303682Y-56286269D01*
X151523389Y-56345139D01*
X151523400Y-56345141D01*
X151749998Y-56364966D01*
X151750002Y-56364966D01*
X151976599Y-56345141D01*
X151976610Y-56345139D01*
X152196317Y-56286269D01*
X152196331Y-56286264D01*
X152402478Y-56190136D01*
X152475471Y-56139024D01*
X151796447Y-55460000D01*
X151802661Y-55460000D01*
X151904394Y-55432741D01*
X151995606Y-55380080D01*
X152070080Y-55305606D01*
X152122741Y-55214394D01*
X152150000Y-55112661D01*
X152150000Y-55106447D01*
X152829024Y-55785471D01*
X152880136Y-55712478D01*
X152976264Y-55506331D01*
X152976269Y-55506317D01*
X153035139Y-55286610D01*
X153035141Y-55286599D01*
X153054966Y-55060002D01*
X153054966Y-55059997D01*
X153035141Y-54833400D01*
X153035139Y-54833389D01*
X152976269Y-54613682D01*
X152976264Y-54613668D01*
X152880136Y-54407521D01*
X152880132Y-54407513D01*
X152829025Y-54334526D01*
X152150000Y-55013551D01*
X152150000Y-55007339D01*
X152122741Y-54905606D01*
X152070080Y-54814394D01*
X151995606Y-54739920D01*
X151904394Y-54687259D01*
X151802661Y-54660000D01*
X151796448Y-54660000D01*
X152480645Y-53975801D01*
X152490492Y-53926807D01*
X152539107Y-53876624D01*
X152594633Y-53861981D01*
X152594576Y-53860900D01*
X152594571Y-53860854D01*
X152594573Y-53860853D01*
X152594564Y-53860676D01*
X152597857Y-53860499D01*
X152597872Y-53860499D01*
X152657483Y-53854091D01*
X152792331Y-53803796D01*
X152907546Y-53717546D01*
X152993796Y-53602331D01*
X153044091Y-53467483D01*
X153050500Y-53407873D01*
X153050499Y-51712128D01*
X153044091Y-51652517D01*
X152993796Y-51517669D01*
X152993795Y-51517668D01*
X152993793Y-51517664D01*
X152907547Y-51402455D01*
X152907544Y-51402452D01*
X152792335Y-51316206D01*
X152792328Y-51316202D01*
X152657482Y-51265908D01*
X152657483Y-51265908D01*
X152597883Y-51259501D01*
X152597881Y-51259500D01*
X152597873Y-51259500D01*
X152597864Y-51259500D01*
X150902129Y-51259500D01*
X150902123Y-51259501D01*
X150842516Y-51265908D01*
X150707671Y-51316202D01*
X150707664Y-51316206D01*
X150592455Y-51402452D01*
X150592452Y-51402455D01*
X150506206Y-51517664D01*
X150506202Y-51517671D01*
X150455908Y-51652517D01*
X150449501Y-51712116D01*
X150449501Y-51712123D01*
X150449500Y-51712135D01*
X150449500Y-53407870D01*
X150449501Y-53407876D01*
X150455908Y-53467483D01*
X150506202Y-53602328D01*
X150506206Y-53602335D01*
X150592452Y-53717544D01*
X150592455Y-53717547D01*
X150707664Y-53803793D01*
X150707671Y-53803797D01*
X150752618Y-53820561D01*
X150842517Y-53854091D01*
X150902127Y-53860500D01*
X150902153Y-53860499D01*
X150905453Y-53860678D01*
X150905372Y-53862183D01*
X150966672Y-53880112D01*
X151012483Y-53932867D01*
X151020016Y-53976464D01*
X151703553Y-54660000D01*
X151697339Y-54660000D01*
X151595606Y-54687259D01*
X151504394Y-54739920D01*
X151429920Y-54814394D01*
X151377259Y-54905606D01*
X151350000Y-55007339D01*
X151350000Y-55013552D01*
X150670974Y-54334526D01*
X150670973Y-54334526D01*
X150619868Y-54407512D01*
X150619866Y-54407516D01*
X150523734Y-54613673D01*
X150523730Y-54613682D01*
X150464860Y-54833389D01*
X150464858Y-54833400D01*
X150445034Y-55059997D01*
X129359676Y-55059997D01*
X129226697Y-55024366D01*
X129226693Y-55024365D01*
X129226692Y-55024365D01*
X129226691Y-55024364D01*
X129226686Y-55024364D01*
X129000002Y-55004532D01*
X128999998Y-55004532D01*
X128773313Y-55024364D01*
X128773302Y-55024366D01*
X128553511Y-55083258D01*
X128553502Y-55083261D01*
X128347267Y-55179431D01*
X128347265Y-55179432D01*
X128160858Y-55309954D01*
X127999954Y-55470858D01*
X127869432Y-55657265D01*
X127869431Y-55657267D01*
X127773261Y-55863502D01*
X127773258Y-55863511D01*
X127714366Y-56083302D01*
X127714364Y-56083313D01*
X127694532Y-56309998D01*
X125750500Y-56309998D01*
X125750500Y-53119998D01*
X127694532Y-53119998D01*
X127694532Y-53120001D01*
X127714364Y-53346686D01*
X127714366Y-53346697D01*
X127773258Y-53566488D01*
X127773261Y-53566497D01*
X127869431Y-53772732D01*
X127869432Y-53772734D01*
X127999954Y-53959141D01*
X128160858Y-54120045D01*
X128160861Y-54120047D01*
X128347266Y-54250568D01*
X128553504Y-54346739D01*
X128773308Y-54405635D01*
X128935230Y-54419801D01*
X128999998Y-54425468D01*
X129000000Y-54425468D01*
X129000002Y-54425468D01*
X129056673Y-54420509D01*
X129226692Y-54405635D01*
X129446496Y-54346739D01*
X129652734Y-54250568D01*
X129839139Y-54120047D01*
X130000047Y-53959139D01*
X130130568Y-53772734D01*
X130226739Y-53566496D01*
X130285635Y-53346692D01*
X130305468Y-53120000D01*
X130294969Y-52999998D01*
X138384532Y-52999998D01*
X138384532Y-53000001D01*
X138404364Y-53226686D01*
X138404366Y-53226697D01*
X138463258Y-53446488D01*
X138463261Y-53446497D01*
X138559431Y-53652732D01*
X138559432Y-53652734D01*
X138689954Y-53839141D01*
X138850858Y-54000045D01*
X138850861Y-54000047D01*
X139037266Y-54130568D01*
X139243504Y-54226739D01*
X139463308Y-54285635D01*
X139625230Y-54299801D01*
X139689998Y-54305468D01*
X139690000Y-54305468D01*
X139690002Y-54305468D01*
X139746673Y-54300509D01*
X139916692Y-54285635D01*
X140136496Y-54226739D01*
X140342734Y-54130568D01*
X140529139Y-54000047D01*
X140690047Y-53839139D01*
X140820568Y-53652734D01*
X140916739Y-53446496D01*
X140975635Y-53226692D01*
X140995468Y-53000000D01*
X140995468Y-52999998D01*
X146004532Y-52999998D01*
X146004532Y-53000001D01*
X146024364Y-53226686D01*
X146024366Y-53226697D01*
X146083258Y-53446488D01*
X146083261Y-53446497D01*
X146179431Y-53652732D01*
X146179432Y-53652734D01*
X146309954Y-53839141D01*
X146470858Y-54000045D01*
X146470861Y-54000047D01*
X146657266Y-54130568D01*
X146863504Y-54226739D01*
X147083308Y-54285635D01*
X147245230Y-54299801D01*
X147309998Y-54305468D01*
X147310000Y-54305468D01*
X147310002Y-54305468D01*
X147366673Y-54300509D01*
X147536692Y-54285635D01*
X147756496Y-54226739D01*
X147962734Y-54130568D01*
X148149139Y-54000047D01*
X148310047Y-53839139D01*
X148440568Y-53652734D01*
X148536739Y-53446496D01*
X148595635Y-53226692D01*
X148615468Y-53000000D01*
X148595635Y-52773308D01*
X148536739Y-52553504D01*
X148440568Y-52347266D01*
X148310047Y-52160861D01*
X148310045Y-52160858D01*
X148149141Y-51999954D01*
X147962734Y-51869432D01*
X147962732Y-51869431D01*
X147756497Y-51773261D01*
X147756488Y-51773258D01*
X147536697Y-51714366D01*
X147536693Y-51714365D01*
X147536692Y-51714365D01*
X147536691Y-51714364D01*
X147536686Y-51714364D01*
X147310002Y-51694532D01*
X147309998Y-51694532D01*
X147083313Y-51714364D01*
X147083302Y-51714366D01*
X146863511Y-51773258D01*
X146863502Y-51773261D01*
X146657267Y-51869431D01*
X146657265Y-51869432D01*
X146470858Y-51999954D01*
X146309954Y-52160858D01*
X146179432Y-52347265D01*
X146179431Y-52347267D01*
X146083261Y-52553502D01*
X146083258Y-52553511D01*
X146024366Y-52773302D01*
X146024364Y-52773313D01*
X146004532Y-52999998D01*
X140995468Y-52999998D01*
X140975635Y-52773308D01*
X140916739Y-52553504D01*
X140820568Y-52347266D01*
X140690047Y-52160861D01*
X140690045Y-52160858D01*
X140529141Y-51999954D01*
X140342734Y-51869432D01*
X140342732Y-51869431D01*
X140136497Y-51773261D01*
X140136488Y-51773258D01*
X139916697Y-51714366D01*
X139916693Y-51714365D01*
X139916692Y-51714365D01*
X139916691Y-51714364D01*
X139916686Y-51714364D01*
X139690002Y-51694532D01*
X139689998Y-51694532D01*
X139463313Y-51714364D01*
X139463302Y-51714366D01*
X139243511Y-51773258D01*
X139243502Y-51773261D01*
X139037267Y-51869431D01*
X139037265Y-51869432D01*
X138850858Y-51999954D01*
X138689954Y-52160858D01*
X138559432Y-52347265D01*
X138559431Y-52347267D01*
X138463261Y-52553502D01*
X138463258Y-52553511D01*
X138404366Y-52773302D01*
X138404364Y-52773313D01*
X138384532Y-52999998D01*
X130294969Y-52999998D01*
X130285635Y-52893308D01*
X130226739Y-52673504D01*
X130130568Y-52467266D01*
X130000047Y-52280861D01*
X130000045Y-52280858D01*
X129839141Y-52119954D01*
X129652734Y-51989432D01*
X129652732Y-51989431D01*
X129446497Y-51893261D01*
X129446488Y-51893258D01*
X129226697Y-51834366D01*
X129226693Y-51834365D01*
X129226692Y-51834365D01*
X129226691Y-51834364D01*
X129226686Y-51834364D01*
X129000002Y-51814532D01*
X128999998Y-51814532D01*
X128773313Y-51834364D01*
X128773302Y-51834366D01*
X128553511Y-51893258D01*
X128553502Y-51893261D01*
X128347267Y-51989431D01*
X128347265Y-51989432D01*
X128160858Y-52119954D01*
X127999954Y-52280858D01*
X127869432Y-52467265D01*
X127869431Y-52467267D01*
X127773261Y-52673502D01*
X127773258Y-52673511D01*
X127714366Y-52893302D01*
X127714364Y-52893313D01*
X127694532Y-53119998D01*
X125750500Y-53119998D01*
X125750500Y-45499998D01*
X127694532Y-45499998D01*
X127694532Y-45500001D01*
X127714364Y-45726686D01*
X127714366Y-45726697D01*
X127773258Y-45946488D01*
X127773261Y-45946497D01*
X127869431Y-46152732D01*
X127869432Y-46152734D01*
X127999954Y-46339141D01*
X128160858Y-46500045D01*
X128160861Y-46500047D01*
X128347266Y-46630568D01*
X128553504Y-46726739D01*
X128773308Y-46785635D01*
X128935230Y-46799801D01*
X128999998Y-46805468D01*
X129000000Y-46805468D01*
X129000002Y-46805468D01*
X129056673Y-46800509D01*
X129226692Y-46785635D01*
X129446496Y-46726739D01*
X129652734Y-46630568D01*
X129839139Y-46500047D01*
X130000047Y-46339139D01*
X130025088Y-46303377D01*
X130079665Y-46259752D01*
X130126663Y-46250500D01*
X130175620Y-46250500D01*
X130273162Y-46231096D01*
X130320613Y-46221658D01*
X130457195Y-46165084D01*
X130506429Y-46132186D01*
X130580116Y-46082952D01*
X134626248Y-42036818D01*
X134687571Y-42003334D01*
X134713929Y-42000500D01*
X145725501Y-42000500D01*
X145792540Y-42020185D01*
X145838295Y-42072989D01*
X145849501Y-42124500D01*
X145849501Y-42697876D01*
X145855908Y-42757483D01*
X145906202Y-42892328D01*
X145906206Y-42892335D01*
X145992452Y-43007544D01*
X145992455Y-43007547D01*
X146107664Y-43093793D01*
X146107671Y-43093797D01*
X146242517Y-43144091D01*
X146242516Y-43144091D01*
X146249444Y-43144835D01*
X146302127Y-43150500D01*
X149197872Y-43150499D01*
X149257483Y-43144091D01*
X149392331Y-43093796D01*
X149507546Y-43007546D01*
X149593796Y-42892331D01*
X149644091Y-42757483D01*
X149650500Y-42697873D01*
X149650499Y-41249998D01*
X150845147Y-41249998D01*
X150845147Y-41250001D01*
X150864536Y-41521090D01*
X150864537Y-41521097D01*
X150922305Y-41786654D01*
X151017285Y-42041306D01*
X151017287Y-42041310D01*
X151147532Y-42279835D01*
X151147537Y-42279843D01*
X151241321Y-42405123D01*
X151241322Y-42405124D01*
X152148958Y-41497488D01*
X152173978Y-41557890D01*
X152245112Y-41664351D01*
X152335649Y-41754888D01*
X152442110Y-41826022D01*
X152502511Y-41851041D01*
X151594874Y-42758676D01*
X151720163Y-42852466D01*
X151720164Y-42852467D01*
X151958689Y-42982712D01*
X151958693Y-42982714D01*
X152213345Y-43077694D01*
X152478902Y-43135462D01*
X152478909Y-43135463D01*
X152749999Y-43154853D01*
X152750001Y-43154853D01*
X153021090Y-43135463D01*
X153021097Y-43135462D01*
X153286654Y-43077694D01*
X153541306Y-42982714D01*
X153541310Y-42982712D01*
X153779844Y-42852462D01*
X153905123Y-42758677D01*
X153905124Y-42758676D01*
X152997488Y-41851041D01*
X153057890Y-41826022D01*
X153164351Y-41754888D01*
X153254888Y-41664351D01*
X153326022Y-41557890D01*
X153351041Y-41497489D01*
X154258676Y-42405124D01*
X154258677Y-42405123D01*
X154352462Y-42279844D01*
X154482712Y-42041310D01*
X154482714Y-42041306D01*
X154577694Y-41786654D01*
X154635462Y-41521097D01*
X154635463Y-41521090D01*
X154654853Y-41250001D01*
X154654853Y-41249998D01*
X154635463Y-40978909D01*
X154635462Y-40978902D01*
X154577694Y-40713345D01*
X154482714Y-40458693D01*
X154482712Y-40458689D01*
X154352467Y-40220164D01*
X154352466Y-40220163D01*
X154258676Y-40094874D01*
X153351041Y-41002510D01*
X153326022Y-40942110D01*
X153254888Y-40835649D01*
X153164351Y-40745112D01*
X153057890Y-40673978D01*
X152997488Y-40648958D01*
X153905124Y-39741322D01*
X153905123Y-39741321D01*
X153779843Y-39647537D01*
X153779835Y-39647532D01*
X153541310Y-39517287D01*
X153541306Y-39517285D01*
X153286654Y-39422305D01*
X153021097Y-39364537D01*
X153021090Y-39364536D01*
X152750001Y-39345147D01*
X152749999Y-39345147D01*
X152478909Y-39364536D01*
X152478902Y-39364537D01*
X152213345Y-39422305D01*
X151958693Y-39517285D01*
X151958689Y-39517287D01*
X151720164Y-39647532D01*
X151720156Y-39647537D01*
X151594875Y-39741321D01*
X151594874Y-39741322D01*
X152502511Y-40648958D01*
X152442110Y-40673978D01*
X152335649Y-40745112D01*
X152245112Y-40835649D01*
X152173978Y-40942110D01*
X152148958Y-41002510D01*
X151241322Y-40094874D01*
X151241321Y-40094875D01*
X151147537Y-40220156D01*
X151147532Y-40220164D01*
X151017287Y-40458689D01*
X151017285Y-40458693D01*
X150922305Y-40713345D01*
X150864537Y-40978902D01*
X150864536Y-40978909D01*
X150845147Y-41249998D01*
X149650499Y-41249998D01*
X149650499Y-39802128D01*
X149644091Y-39742517D01*
X149643645Y-39741322D01*
X149593797Y-39607671D01*
X149593793Y-39607664D01*
X149507547Y-39492455D01*
X149507544Y-39492452D01*
X149392335Y-39406206D01*
X149392328Y-39406202D01*
X149257482Y-39355908D01*
X149257483Y-39355908D01*
X149197883Y-39349501D01*
X149197881Y-39349500D01*
X149197873Y-39349500D01*
X149197864Y-39349500D01*
X146302129Y-39349500D01*
X146302123Y-39349501D01*
X146242516Y-39355908D01*
X146107671Y-39406202D01*
X146107664Y-39406206D01*
X145992455Y-39492452D01*
X145992452Y-39492455D01*
X145906206Y-39607664D01*
X145906202Y-39607671D01*
X145855908Y-39742517D01*
X145849501Y-39802116D01*
X145849501Y-39802123D01*
X145849500Y-39802135D01*
X145849500Y-40375500D01*
X145829815Y-40442539D01*
X145777011Y-40488294D01*
X145725500Y-40499500D01*
X134277776Y-40499500D01*
X134248942Y-40505234D01*
X134248943Y-40505235D01*
X134132793Y-40528339D01*
X134132783Y-40528342D01*
X134052781Y-40561479D01*
X134052782Y-40561480D01*
X133996205Y-40584915D01*
X133914072Y-40639795D01*
X133873285Y-40667047D01*
X133873281Y-40667050D01*
X130027440Y-44512891D01*
X129966117Y-44546376D01*
X129896425Y-44541392D01*
X129852078Y-44512891D01*
X129839141Y-44499954D01*
X129652734Y-44369432D01*
X129652732Y-44369431D01*
X129446497Y-44273261D01*
X129446488Y-44273258D01*
X129226697Y-44214366D01*
X129226693Y-44214365D01*
X129226692Y-44214365D01*
X129226691Y-44214364D01*
X129226686Y-44214364D01*
X129000002Y-44194532D01*
X128999998Y-44194532D01*
X128773313Y-44214364D01*
X128773302Y-44214366D01*
X128553511Y-44273258D01*
X128553502Y-44273261D01*
X128347267Y-44369431D01*
X128347265Y-44369432D01*
X128160858Y-44499954D01*
X127999954Y-44660858D01*
X127869432Y-44847265D01*
X127869431Y-44847267D01*
X127773261Y-45053502D01*
X127773258Y-45053511D01*
X127714366Y-45273302D01*
X127714364Y-45273313D01*
X127694532Y-45499998D01*
X125750500Y-45499998D01*
X125750500Y-36874500D01*
X125770185Y-36807461D01*
X125822989Y-36761706D01*
X125874500Y-36750500D01*
X174625500Y-36750500D01*
X174692539Y-36770185D01*
G37*
%TD.AperFunction*%
%TD*%
M02*
